<?xml version="1.0" encoding="utf-8"?>
<svg xmlns="http://www.w3.org/2000/svg" xmlns:xlink="http://www.w3.org/1999/xlink" width="600" height="400" viewBox="0 0 2400 1600">
<defs>
  <clipPath id="clip700">
    <rect x="0" y="0" width="2400" height="1600"/>
  </clipPath>
</defs>
<path clip-path="url(#clip700)" d="
M0 1600 L2400 1600 L2400 0 L0 0  Z
  " fill="#ffffff" fill-rule="evenodd" fill-opacity="1"/>
<defs>
  <clipPath id="clip701">
    <rect x="480" y="0" width="1681" height="1600"/>
  </clipPath>
</defs>
<path clip-path="url(#clip700)" d="
M247.945 1423.18 L2352.76 1423.18 L2352.76 47.2441 L247.945 47.2441  Z
  " fill="#ffffff" fill-rule="evenodd" fill-opacity="1"/>
<defs>
  <clipPath id="clip702">
    <rect x="247" y="47" width="2106" height="1377"/>
  </clipPath>
</defs>
<polyline clip-path="url(#clip702)" style="stroke:#000000; stroke-linecap:butt; stroke-linejoin:round; stroke-width:2; stroke-opacity:0.1; fill:none" points="
  546.181,1423.18 546.181,47.2441 
  "/>
<polyline clip-path="url(#clip702)" style="stroke:#000000; stroke-linecap:butt; stroke-linejoin:round; stroke-width:2; stroke-opacity:0.1; fill:none" points="
  933.406,1423.18 933.406,47.2441 
  "/>
<polyline clip-path="url(#clip702)" style="stroke:#000000; stroke-linecap:butt; stroke-linejoin:round; stroke-width:2; stroke-opacity:0.1; fill:none" points="
  1320.63,1423.18 1320.63,47.2441 
  "/>
<polyline clip-path="url(#clip702)" style="stroke:#000000; stroke-linecap:butt; stroke-linejoin:round; stroke-width:2; stroke-opacity:0.1; fill:none" points="
  1707.85,1423.18 1707.85,47.2441 
  "/>
<polyline clip-path="url(#clip702)" style="stroke:#000000; stroke-linecap:butt; stroke-linejoin:round; stroke-width:2; stroke-opacity:0.1; fill:none" points="
  2095.08,1423.18 2095.08,47.2441 
  "/>
<polyline clip-path="url(#clip700)" style="stroke:#000000; stroke-linecap:butt; stroke-linejoin:round; stroke-width:4; stroke-opacity:1; fill:none" points="
  247.945,1423.18 2352.76,1423.18 
  "/>
<polyline clip-path="url(#clip700)" style="stroke:#000000; stroke-linecap:butt; stroke-linejoin:round; stroke-width:4; stroke-opacity:1; fill:none" points="
  546.181,1423.18 546.181,1404.28 
  "/>
<polyline clip-path="url(#clip700)" style="stroke:#000000; stroke-linecap:butt; stroke-linejoin:round; stroke-width:4; stroke-opacity:1; fill:none" points="
  933.406,1423.18 933.406,1404.28 
  "/>
<polyline clip-path="url(#clip700)" style="stroke:#000000; stroke-linecap:butt; stroke-linejoin:round; stroke-width:4; stroke-opacity:1; fill:none" points="
  1320.63,1423.18 1320.63,1404.28 
  "/>
<polyline clip-path="url(#clip700)" style="stroke:#000000; stroke-linecap:butt; stroke-linejoin:round; stroke-width:4; stroke-opacity:1; fill:none" points="
  1707.85,1423.18 1707.85,1404.28 
  "/>
<polyline clip-path="url(#clip700)" style="stroke:#000000; stroke-linecap:butt; stroke-linejoin:round; stroke-width:4; stroke-opacity:1; fill:none" points="
  2095.08,1423.18 2095.08,1404.28 
  "/>
<path clip-path="url(#clip700)" d="M498.299 1481.64 L505.938 1481.64 L505.938 1455.28 L497.628 1456.95 L497.628 1452.69 L505.892 1451.02 L510.568 1451.02 L510.568 1481.64 L518.207 1481.64 L518.207 1485.58 L498.299 1485.58 L498.299 1481.64 Z" fill="#000000" fill-rule="evenodd" fill-opacity="1" /><path clip-path="url(#clip700)" d="M528.461 1481.64 L536.1 1481.64 L536.1 1455.28 L527.79 1456.95 L527.79 1452.69 L536.054 1451.02 L540.73 1451.02 L540.73 1481.64 L548.369 1481.64 L548.369 1485.58 L528.461 1485.58 L528.461 1481.64 Z" fill="#000000" fill-rule="evenodd" fill-opacity="1" /><path clip-path="url(#clip700)" d="M557.813 1479.7 L562.697 1479.7 L562.697 1485.58 L557.813 1485.58 L557.813 1479.7 Z" fill="#000000" fill-rule="evenodd" fill-opacity="1" /><path clip-path="url(#clip700)" d="M582.882 1469.17 Q579.549 1469.17 577.628 1470.95 Q575.73 1472.73 575.73 1475.86 Q575.73 1478.98 577.628 1480.77 Q579.549 1482.55 582.882 1482.55 Q586.216 1482.55 588.137 1480.77 Q590.058 1478.96 590.058 1475.86 Q590.058 1472.73 588.137 1470.95 Q586.239 1469.17 582.882 1469.17 M578.206 1467.18 Q575.197 1466.44 573.507 1464.38 Q571.841 1462.32 571.841 1459.35 Q571.841 1455.21 574.781 1452.8 Q577.743 1450.39 582.882 1450.39 Q588.044 1450.39 590.984 1452.8 Q593.924 1455.21 593.924 1459.35 Q593.924 1462.32 592.234 1464.38 Q590.567 1466.44 587.581 1467.18 Q590.961 1467.96 592.836 1470.26 Q594.734 1472.55 594.734 1475.86 Q594.734 1480.88 591.655 1483.57 Q588.6 1486.25 582.882 1486.25 Q577.165 1486.25 574.086 1483.57 Q571.031 1480.88 571.031 1475.86 Q571.031 1472.55 572.929 1470.26 Q574.827 1467.96 578.206 1467.18 M576.493 1459.79 Q576.493 1462.48 578.16 1463.98 Q579.85 1465.49 582.882 1465.49 Q585.892 1465.49 587.581 1463.98 Q589.294 1462.48 589.294 1459.79 Q589.294 1457.11 587.581 1455.6 Q585.892 1454.1 582.882 1454.1 Q579.85 1454.1 578.16 1455.6 Q576.493 1457.11 576.493 1459.79 Z" fill="#000000" fill-rule="evenodd" fill-opacity="1" /><path clip-path="url(#clip700)" d="M885.478 1481.64 L893.117 1481.64 L893.117 1455.28 L884.806 1456.95 L884.806 1452.69 L893.07 1451.02 L897.746 1451.02 L897.746 1481.64 L905.385 1481.64 L905.385 1485.58 L885.478 1485.58 L885.478 1481.64 Z" fill="#000000" fill-rule="evenodd" fill-opacity="1" /><path clip-path="url(#clip700)" d="M918.857 1481.64 L935.176 1481.64 L935.176 1485.58 L913.232 1485.58 L913.232 1481.64 Q915.894 1478.89 920.477 1474.26 Q925.084 1469.61 926.264 1468.27 Q928.51 1465.74 929.389 1464.01 Q930.292 1462.25 930.292 1460.56 Q930.292 1457.8 928.348 1456.07 Q926.427 1454.33 923.325 1454.33 Q921.126 1454.33 918.672 1455.09 Q916.241 1455.86 913.464 1457.41 L913.464 1452.69 Q916.288 1451.55 918.741 1450.97 Q921.195 1450.39 923.232 1450.39 Q928.602 1450.39 931.797 1453.08 Q934.991 1455.77 934.991 1460.26 Q934.991 1462.39 934.181 1464.31 Q933.394 1466.2 931.288 1468.8 Q930.709 1469.47 927.607 1472.69 Q924.505 1475.88 918.857 1481.64 Z" fill="#000000" fill-rule="evenodd" fill-opacity="1" /><path clip-path="url(#clip700)" d="M944.991 1479.7 L949.875 1479.7 L949.875 1485.58 L944.991 1485.58 L944.991 1479.7 Z" fill="#000000" fill-rule="evenodd" fill-opacity="1" /><path clip-path="url(#clip700)" d="M970.061 1454.1 Q966.449 1454.1 964.621 1457.66 Q962.815 1461.2 962.815 1468.33 Q962.815 1475.44 964.621 1479.01 Q966.449 1482.55 970.061 1482.55 Q973.695 1482.55 975.5 1479.01 Q977.329 1475.44 977.329 1468.33 Q977.329 1461.2 975.5 1457.66 Q973.695 1454.1 970.061 1454.1 M970.061 1450.39 Q975.871 1450.39 978.926 1455 Q982.005 1459.58 982.005 1468.33 Q982.005 1477.06 978.926 1481.67 Q975.871 1486.25 970.061 1486.25 Q964.25 1486.25 961.172 1481.67 Q958.116 1477.06 958.116 1468.33 Q958.116 1459.58 961.172 1455 Q964.25 1450.39 970.061 1450.39 Z" fill="#000000" fill-rule="evenodd" fill-opacity="1" /><path clip-path="url(#clip700)" d="M1273.5 1481.64 L1281.14 1481.64 L1281.14 1455.28 L1272.83 1456.95 L1272.83 1452.69 L1281.09 1451.02 L1285.77 1451.02 L1285.77 1481.64 L1293.41 1481.64 L1293.41 1485.58 L1273.5 1485.58 L1273.5 1481.64 Z" fill="#000000" fill-rule="evenodd" fill-opacity="1" /><path clip-path="url(#clip700)" d="M1306.88 1481.64 L1323.2 1481.64 L1323.2 1485.58 L1301.26 1485.58 L1301.26 1481.64 Q1303.92 1478.89 1308.5 1474.26 Q1313.11 1469.61 1314.29 1468.27 Q1316.53 1465.74 1317.41 1464.01 Q1318.32 1462.25 1318.32 1460.56 Q1318.32 1457.8 1316.37 1456.07 Q1314.45 1454.33 1311.35 1454.33 Q1309.15 1454.33 1306.7 1455.09 Q1304.26 1455.86 1301.49 1457.41 L1301.49 1452.69 Q1304.31 1451.55 1306.76 1450.97 Q1309.22 1450.39 1311.26 1450.39 Q1316.63 1450.39 1319.82 1453.08 Q1323.01 1455.77 1323.01 1460.26 Q1323.01 1462.39 1322.2 1464.31 Q1321.42 1466.2 1319.31 1468.8 Q1318.73 1469.47 1315.63 1472.69 Q1312.53 1475.88 1306.88 1481.64 Z" fill="#000000" fill-rule="evenodd" fill-opacity="1" /><path clip-path="url(#clip700)" d="M1333.01 1479.7 L1337.9 1479.7 L1337.9 1485.58 L1333.01 1485.58 L1333.01 1479.7 Z" fill="#000000" fill-rule="evenodd" fill-opacity="1" /><path clip-path="url(#clip700)" d="M1352.11 1481.64 L1368.43 1481.64 L1368.43 1485.58 L1346.49 1485.58 L1346.49 1481.64 Q1349.15 1478.89 1353.73 1474.26 Q1358.34 1469.61 1359.52 1468.27 Q1361.76 1465.74 1362.64 1464.01 Q1363.55 1462.25 1363.55 1460.56 Q1363.55 1457.8 1361.6 1456.07 Q1359.68 1454.33 1356.58 1454.33 Q1354.38 1454.33 1351.93 1455.09 Q1349.5 1455.86 1346.72 1457.41 L1346.72 1452.69 Q1349.54 1451.55 1352 1450.97 Q1354.45 1450.39 1356.49 1450.39 Q1361.86 1450.39 1365.05 1453.08 Q1368.25 1455.77 1368.25 1460.26 Q1368.25 1462.39 1367.44 1464.31 Q1366.65 1466.2 1364.54 1468.8 Q1363.96 1469.47 1360.86 1472.69 Q1357.76 1475.88 1352.11 1481.64 Z" fill="#000000" fill-rule="evenodd" fill-opacity="1" /><path clip-path="url(#clip700)" d="M1659.68 1481.64 L1667.32 1481.64 L1667.32 1455.28 L1659.01 1456.95 L1659.01 1452.69 L1667.28 1451.02 L1671.95 1451.02 L1671.95 1481.64 L1679.59 1481.64 L1679.59 1485.58 L1659.68 1485.58 L1659.68 1481.64 Z" fill="#000000" fill-rule="evenodd" fill-opacity="1" /><path clip-path="url(#clip700)" d="M1693.06 1481.64 L1709.38 1481.64 L1709.38 1485.58 L1687.44 1485.58 L1687.44 1481.64 Q1690.1 1478.89 1694.68 1474.26 Q1699.29 1469.61 1700.47 1468.27 Q1702.72 1465.74 1703.6 1464.01 Q1704.5 1462.25 1704.5 1460.56 Q1704.5 1457.8 1702.55 1456.07 Q1700.63 1454.33 1697.53 1454.33 Q1695.33 1454.33 1692.88 1455.09 Q1690.45 1455.86 1687.67 1457.41 L1687.67 1452.69 Q1690.49 1451.55 1692.95 1450.97 Q1695.4 1450.39 1697.44 1450.39 Q1702.81 1450.39 1706 1453.08 Q1709.2 1455.77 1709.2 1460.26 Q1709.2 1462.39 1708.39 1464.31 Q1707.6 1466.2 1705.49 1468.8 Q1704.91 1469.47 1701.81 1472.69 Q1698.71 1475.88 1693.06 1481.64 Z" fill="#000000" fill-rule="evenodd" fill-opacity="1" /><path clip-path="url(#clip700)" d="M1719.2 1479.7 L1724.08 1479.7 L1724.08 1485.58 L1719.2 1485.58 L1719.2 1479.7 Z" fill="#000000" fill-rule="evenodd" fill-opacity="1" /><path clip-path="url(#clip700)" d="M1747.11 1455.09 L1735.31 1473.54 L1747.11 1473.54 L1747.11 1455.09 M1745.89 1451.02 L1751.77 1451.02 L1751.77 1473.54 L1756.7 1473.54 L1756.7 1477.43 L1751.77 1477.43 L1751.77 1485.58 L1747.11 1485.58 L1747.11 1477.43 L1731.51 1477.43 L1731.51 1472.92 L1745.89 1451.02 Z" fill="#000000" fill-rule="evenodd" fill-opacity="1" /><path clip-path="url(#clip700)" d="M2047.07 1481.64 L2054.71 1481.64 L2054.71 1455.28 L2046.4 1456.95 L2046.4 1452.69 L2054.66 1451.02 L2059.34 1451.02 L2059.34 1481.64 L2066.98 1481.64 L2066.98 1485.58 L2047.07 1485.58 L2047.07 1481.64 Z" fill="#000000" fill-rule="evenodd" fill-opacity="1" /><path clip-path="url(#clip700)" d="M2080.45 1481.64 L2096.77 1481.64 L2096.77 1485.58 L2074.82 1485.58 L2074.82 1481.64 Q2077.49 1478.89 2082.07 1474.26 Q2086.68 1469.61 2087.86 1468.27 Q2090.1 1465.74 2090.98 1464.01 Q2091.88 1462.25 2091.88 1460.56 Q2091.88 1457.8 2089.94 1456.07 Q2088.02 1454.33 2084.92 1454.33 Q2082.72 1454.33 2080.26 1455.09 Q2077.83 1455.86 2075.06 1457.41 L2075.06 1452.69 Q2077.88 1451.55 2080.33 1450.97 Q2082.79 1450.39 2084.82 1450.39 Q2090.19 1450.39 2093.39 1453.08 Q2096.58 1455.77 2096.58 1460.26 Q2096.58 1462.39 2095.77 1464.31 Q2094.99 1466.2 2092.88 1468.8 Q2092.3 1469.47 2089.2 1472.69 Q2086.1 1475.88 2080.45 1481.64 Z" fill="#000000" fill-rule="evenodd" fill-opacity="1" /><path clip-path="url(#clip700)" d="M2106.58 1479.7 L2111.47 1479.7 L2111.47 1485.58 L2106.58 1485.58 L2106.58 1479.7 Z" fill="#000000" fill-rule="evenodd" fill-opacity="1" /><path clip-path="url(#clip700)" d="M2132.23 1466.44 Q2129.08 1466.44 2127.23 1468.59 Q2125.4 1470.74 2125.4 1474.49 Q2125.4 1478.22 2127.23 1480.39 Q2129.08 1482.55 2132.23 1482.55 Q2135.38 1482.55 2137.21 1480.39 Q2139.06 1478.22 2139.06 1474.49 Q2139.06 1470.74 2137.21 1468.59 Q2135.38 1466.44 2132.23 1466.44 M2141.51 1451.78 L2141.51 1456.04 Q2139.75 1455.21 2137.95 1454.77 Q2136.17 1454.33 2134.41 1454.33 Q2129.78 1454.33 2127.32 1457.45 Q2124.89 1460.58 2124.55 1466.9 Q2125.91 1464.89 2127.97 1463.82 Q2130.03 1462.73 2132.51 1462.73 Q2137.72 1462.73 2140.73 1465.9 Q2143.76 1469.05 2143.76 1474.49 Q2143.76 1479.82 2140.61 1483.03 Q2137.46 1486.25 2132.23 1486.25 Q2126.24 1486.25 2123.07 1481.67 Q2119.89 1477.06 2119.89 1468.33 Q2119.89 1460.14 2123.78 1455.28 Q2127.67 1450.39 2134.22 1450.39 Q2135.98 1450.39 2137.76 1450.74 Q2139.57 1451.09 2141.51 1451.78 Z" fill="#000000" fill-rule="evenodd" fill-opacity="1" /><path clip-path="url(#clip700)" d="M1314.63 1525.32 Q1314.63 1525.74 1314.53 1526.03 Q1314.43 1526.28 1314.21 1526.41 Q1313.98 1526.54 1313.85 1526.57 Q1313.72 1526.61 1313.43 1526.64 Q1312.05 1526.77 1311.08 1526.99 Q1310.15 1527.22 1307.83 1528.38 Q1305.54 1529.54 1302.68 1531.63 L1291.15 1540.55 L1289.22 1542.06 Q1289.22 1542.16 1289.28 1542.35 Q1289.34 1542.51 1289.41 1542.74 Q1289.51 1542.93 1289.54 1543 L1298.91 1564.61 Q1299.65 1566.35 1300.55 1566.96 Q1301.45 1567.57 1303.48 1567.6 Q1303.81 1567.6 1303.93 1567.64 Q1304.1 1567.64 1304.32 1567.7 Q1304.58 1567.73 1304.67 1567.89 Q1304.8 1568.05 1304.8 1568.31 Q1304.8 1569.63 1303.61 1569.63 Q1302.87 1569.63 1300.36 1569.54 Q1297.85 1569.44 1297.14 1569.44 Q1295.82 1569.44 1293.11 1569.54 Q1290.41 1569.63 1289.09 1569.63 Q1288.15 1569.63 1288.15 1568.89 Q1288.15 1568.28 1288.38 1567.99 Q1288.64 1567.67 1288.86 1567.64 Q1289.09 1567.6 1289.6 1567.6 Q1289.99 1567.6 1290.41 1567.57 Q1290.86 1567.51 1291.5 1567.35 Q1292.18 1567.15 1292.6 1566.7 Q1293.05 1566.22 1293.05 1565.54 Q1293.05 1564.99 1292.24 1563.22 L1284.61 1545.48 L1274.79 1553.14 L1272.15 1563.51 Q1272.08 1563.9 1271.92 1564.58 Q1271.76 1565.25 1271.63 1565.74 Q1271.53 1566.22 1271.53 1566.41 Q1271.53 1566.83 1271.79 1567.09 Q1272.08 1567.35 1272.79 1567.47 Q1273.5 1567.57 1274.05 1567.6 Q1274.63 1567.6 1275.82 1567.6 Q1277.3 1567.6 1277.56 1567.86 Q1277.69 1568.02 1277.69 1568.31 Q1277.69 1568.76 1277.56 1569.08 Q1277.43 1569.37 1277.17 1569.47 Q1276.95 1569.57 1276.78 1569.6 Q1276.62 1569.63 1276.37 1569.63 Q1275.69 1569.63 1274.24 1569.57 Q1272.82 1569.5 1272.08 1569.5 L1267.86 1569.44 L1259.49 1569.63 Q1258.49 1569.63 1258.49 1568.83 Q1258.49 1568.22 1258.75 1567.96 Q1259.01 1567.67 1259.3 1567.64 Q1259.59 1567.6 1260.33 1567.6 Q1261.94 1567.6 1262.9 1567.51 Q1263.87 1567.41 1264.48 1567.28 Q1265.13 1567.12 1265.45 1566.67 Q1265.8 1566.22 1265.96 1565.83 Q1266.12 1565.41 1266.35 1564.48 L1275.17 1529.05 Q1275.43 1527.99 1275.43 1527.83 Q1275.43 1527.28 1275.11 1527.09 Q1274.82 1526.86 1273.98 1526.77 Q1272.37 1526.64 1271.15 1526.64 Q1270.34 1526.64 1270.02 1526.61 Q1269.73 1526.57 1269.47 1526.41 Q1269.25 1526.22 1269.25 1525.83 Q1269.25 1524.58 1270.57 1524.58 L1279.07 1524.77 L1287.51 1524.58 Q1288.44 1524.58 1288.44 1525.32 Q1288.44 1526.25 1287.99 1526.44 Q1287.57 1526.64 1286.19 1526.64 Q1283.77 1526.64 1282.68 1526.96 Q1281.62 1527.25 1281.29 1527.76 Q1281 1528.25 1280.65 1529.66 L1275.37 1550.82 L1301.1 1531.05 Q1303.48 1529.05 1303.48 1528.02 Q1303.48 1527.35 1303 1527.06 Q1302.55 1526.73 1301.42 1526.64 Q1300.62 1526.51 1300.62 1525.9 Q1300.62 1525.28 1300.84 1524.99 Q1301.1 1524.67 1301.29 1524.64 Q1301.52 1524.58 1301.87 1524.58 Q1303.06 1524.58 1305.54 1524.67 Q1308.02 1524.77 1309.22 1524.77 Q1310.02 1524.77 1311.6 1524.67 Q1313.18 1524.58 1313.89 1524.58 Q1314.24 1524.58 1314.43 1524.83 Q1314.63 1525.06 1314.63 1525.32 Z" fill="#000000" fill-rule="evenodd" fill-opacity="1" /><path clip-path="url(#clip700)" d="M1335.31 1567.42 Q1335.31 1568.05 1335.01 1568.21 Q1334.72 1568.34 1333.91 1568.34 L1329.58 1568.34 L1326.15 1581.96 Q1325.88 1583.15 1325.88 1584.17 Q1325.88 1585.3 1326.22 1585.79 Q1326.58 1586.29 1327.32 1586.29 Q1328.79 1586.29 1330.37 1584.96 Q1331.97 1583.63 1333.32 1580.38 Q1333.5 1579.95 1333.59 1579.86 Q1333.7 1579.75 1334 1579.75 Q1334.56 1579.75 1334.56 1580.2 Q1334.56 1580.36 1334.25 1581.08 Q1333.95 1581.8 1333.3 1582.86 Q1332.67 1583.92 1331.83 1584.91 Q1331.02 1585.9 1329.78 1586.63 Q1328.54 1587.32 1327.21 1587.32 Q1325.34 1587.32 1324.15 1586.13 Q1322.97 1584.94 1322.97 1583.06 Q1322.97 1582.46 1323.45 1580.52 Q1323.92 1578.56 1326.49 1568.34 L1322.41 1568.34 Q1321.85 1568.34 1321.62 1568.32 Q1321.42 1568.3 1321.26 1568.18 Q1321.13 1568.05 1321.13 1567.78 Q1321.13 1567.35 1321.31 1567.17 Q1321.49 1566.97 1321.71 1566.94 Q1321.96 1566.9 1322.52 1566.9 L1326.85 1566.9 L1328.66 1559.57 Q1328.84 1558.85 1329.29 1558.45 Q1329.76 1558.02 1330.03 1557.97 Q1330.3 1557.9 1330.5 1557.9 Q1331.11 1557.9 1331.47 1558.24 Q1331.83 1558.56 1331.83 1559.14 Q1331.83 1559.46 1329.94 1566.9 L1334 1566.9 Q1334.52 1566.9 1334.72 1566.92 Q1334.94 1566.94 1335.13 1567.06 Q1335.31 1567.17 1335.31 1567.42 Z" fill="#000000" fill-rule="evenodd" fill-opacity="1" /><polyline clip-path="url(#clip702)" style="stroke:#000000; stroke-linecap:butt; stroke-linejoin:round; stroke-width:2; stroke-opacity:0.1; fill:none" points="
  247.945,1228.22 2352.76,1228.22 
  "/>
<polyline clip-path="url(#clip702)" style="stroke:#000000; stroke-linecap:butt; stroke-linejoin:round; stroke-width:2; stroke-opacity:0.1; fill:none" points="
  247.945,975.087 2352.76,975.087 
  "/>
<polyline clip-path="url(#clip702)" style="stroke:#000000; stroke-linecap:butt; stroke-linejoin:round; stroke-width:2; stroke-opacity:0.1; fill:none" points="
  247.945,721.955 2352.76,721.955 
  "/>
<polyline clip-path="url(#clip702)" style="stroke:#000000; stroke-linecap:butt; stroke-linejoin:round; stroke-width:2; stroke-opacity:0.1; fill:none" points="
  247.945,468.822 2352.76,468.822 
  "/>
<polyline clip-path="url(#clip702)" style="stroke:#000000; stroke-linecap:butt; stroke-linejoin:round; stroke-width:2; stroke-opacity:0.1; fill:none" points="
  247.945,215.69 2352.76,215.69 
  "/>
<polyline clip-path="url(#clip700)" style="stroke:#000000; stroke-linecap:butt; stroke-linejoin:round; stroke-width:4; stroke-opacity:1; fill:none" points="
  247.945,1423.18 247.945,47.2441 
  "/>
<polyline clip-path="url(#clip700)" style="stroke:#000000; stroke-linecap:butt; stroke-linejoin:round; stroke-width:4; stroke-opacity:1; fill:none" points="
  247.945,1228.22 266.842,1228.22 
  "/>
<polyline clip-path="url(#clip700)" style="stroke:#000000; stroke-linecap:butt; stroke-linejoin:round; stroke-width:4; stroke-opacity:1; fill:none" points="
  247.945,975.087 266.842,975.087 
  "/>
<polyline clip-path="url(#clip700)" style="stroke:#000000; stroke-linecap:butt; stroke-linejoin:round; stroke-width:4; stroke-opacity:1; fill:none" points="
  247.945,721.955 266.842,721.955 
  "/>
<polyline clip-path="url(#clip700)" style="stroke:#000000; stroke-linecap:butt; stroke-linejoin:round; stroke-width:4; stroke-opacity:1; fill:none" points="
  247.945,468.822 266.842,468.822 
  "/>
<polyline clip-path="url(#clip700)" style="stroke:#000000; stroke-linecap:butt; stroke-linejoin:round; stroke-width:4; stroke-opacity:1; fill:none" points="
  247.945,215.69 266.842,215.69 
  "/>
<path clip-path="url(#clip700)" d="M115.51 1241.56 L123.149 1241.56 L123.149 1215.2 L114.839 1216.87 L114.839 1212.61 L123.103 1210.94 L127.779 1210.94 L127.779 1241.56 L135.417 1241.56 L135.417 1245.5 L115.51 1245.5 L115.51 1241.56 Z" fill="#000000" fill-rule="evenodd" fill-opacity="1" /><path clip-path="url(#clip700)" d="M145.672 1241.56 L153.311 1241.56 L153.311 1215.2 L145.001 1216.87 L145.001 1212.61 L153.265 1210.94 L157.94 1210.94 L157.94 1241.56 L165.579 1241.56 L165.579 1245.5 L145.672 1245.5 L145.672 1241.56 Z" fill="#000000" fill-rule="evenodd" fill-opacity="1" /><path clip-path="url(#clip700)" d="M175.024 1239.62 L179.908 1239.62 L179.908 1245.5 L175.024 1245.5 L175.024 1239.62 Z" fill="#000000" fill-rule="evenodd" fill-opacity="1" /><path clip-path="url(#clip700)" d="M200.093 1229.09 Q196.76 1229.09 194.838 1230.87 Q192.94 1232.65 192.94 1235.78 Q192.94 1238.9 194.838 1240.69 Q196.76 1242.47 200.093 1242.47 Q203.426 1242.47 205.348 1240.69 Q207.269 1238.88 207.269 1235.78 Q207.269 1232.65 205.348 1230.87 Q203.449 1229.09 200.093 1229.09 M195.417 1227.1 Q192.408 1226.36 190.718 1224.3 Q189.051 1222.24 189.051 1219.27 Q189.051 1215.13 191.991 1212.72 Q194.954 1210.31 200.093 1210.31 Q205.255 1210.31 208.195 1212.72 Q211.135 1215.13 211.135 1219.27 Q211.135 1222.24 209.445 1224.3 Q207.778 1226.36 204.792 1227.1 Q208.172 1227.88 210.047 1230.18 Q211.945 1232.47 211.945 1235.78 Q211.945 1240.8 208.866 1243.49 Q205.811 1246.17 200.093 1246.17 Q194.375 1246.17 191.297 1243.49 Q188.241 1240.8 188.241 1235.78 Q188.241 1232.47 190.139 1230.18 Q192.038 1227.88 195.417 1227.1 M193.704 1219.71 Q193.704 1222.4 195.371 1223.9 Q197.061 1225.41 200.093 1225.41 Q203.102 1225.41 204.792 1223.9 Q206.505 1222.4 206.505 1219.71 Q206.505 1217.03 204.792 1215.52 Q203.102 1214.02 200.093 1214.02 Q197.061 1214.02 195.371 1215.52 Q193.704 1217.03 193.704 1219.71 Z" fill="#000000" fill-rule="evenodd" fill-opacity="1" /><path clip-path="url(#clip700)" d="M115.418 988.432 L123.056 988.432 L123.056 962.067 L114.746 963.733 L114.746 959.474 L123.01 957.807 L127.686 957.807 L127.686 988.432 L135.325 988.432 L135.325 992.367 L115.418 992.367 L115.418 988.432 Z" fill="#000000" fill-rule="evenodd" fill-opacity="1" /><path clip-path="url(#clip700)" d="M148.797 988.432 L165.116 988.432 L165.116 992.367 L143.172 992.367 L143.172 988.432 Q145.834 985.678 150.417 981.048 Q155.024 976.395 156.204 975.053 Q158.45 972.529 159.329 970.793 Q160.232 969.034 160.232 967.344 Q160.232 964.59 158.288 962.854 Q156.366 961.118 153.265 961.118 Q151.066 961.118 148.612 961.881 Q146.181 962.645 143.404 964.196 L143.404 959.474 Q146.228 958.34 148.681 957.761 Q151.135 957.182 153.172 957.182 Q158.542 957.182 161.737 959.868 Q164.931 962.553 164.931 967.043 Q164.931 969.173 164.121 971.094 Q163.334 972.992 161.227 975.585 Q160.649 976.256 157.547 979.474 Q154.445 982.668 148.797 988.432 Z" fill="#000000" fill-rule="evenodd" fill-opacity="1" /><path clip-path="url(#clip700)" d="M174.931 986.488 L179.815 986.488 L179.815 992.367 L174.931 992.367 L174.931 986.488 Z" fill="#000000" fill-rule="evenodd" fill-opacity="1" /><path clip-path="url(#clip700)" d="M200 960.886 Q196.389 960.886 194.561 964.451 Q192.755 967.992 192.755 975.122 Q192.755 982.229 194.561 985.793 Q196.389 989.335 200 989.335 Q203.635 989.335 205.44 985.793 Q207.269 982.229 207.269 975.122 Q207.269 967.992 205.44 964.451 Q203.635 960.886 200 960.886 M200 957.182 Q205.811 957.182 208.866 961.789 Q211.945 966.372 211.945 975.122 Q211.945 983.849 208.866 988.455 Q205.811 993.039 200 993.039 Q194.19 993.039 191.112 988.455 Q188.056 983.849 188.056 975.122 Q188.056 966.372 191.112 961.789 Q194.19 957.182 200 957.182 Z" fill="#000000" fill-rule="evenodd" fill-opacity="1" /><path clip-path="url(#clip700)" d="M117.015 735.3 L124.654 735.3 L124.654 708.934 L116.343 710.601 L116.343 706.342 L124.607 704.675 L129.283 704.675 L129.283 735.3 L136.922 735.3 L136.922 739.235 L117.015 739.235 L117.015 735.3 Z" fill="#000000" fill-rule="evenodd" fill-opacity="1" /><path clip-path="url(#clip700)" d="M150.394 735.3 L166.714 735.3 L166.714 739.235 L144.769 739.235 L144.769 735.3 Q147.431 732.545 152.015 727.915 Q156.621 723.263 157.802 721.92 Q160.047 719.397 160.927 717.661 Q161.829 715.902 161.829 714.212 Q161.829 711.457 159.885 709.721 Q157.964 707.985 154.862 707.985 Q152.663 707.985 150.209 708.749 Q147.778 709.513 145.001 711.064 L145.001 706.342 Q147.825 705.207 150.278 704.629 Q152.732 704.05 154.769 704.05 Q160.14 704.05 163.334 706.735 Q166.528 709.42 166.528 713.911 Q166.528 716.041 165.718 717.962 Q164.931 719.86 162.825 722.453 Q162.246 723.124 159.144 726.341 Q156.042 729.536 150.394 735.3 Z" fill="#000000" fill-rule="evenodd" fill-opacity="1" /><path clip-path="url(#clip700)" d="M176.528 733.355 L181.413 733.355 L181.413 739.235 L176.528 739.235 L176.528 733.355 Z" fill="#000000" fill-rule="evenodd" fill-opacity="1" /><path clip-path="url(#clip700)" d="M195.625 735.3 L211.945 735.3 L211.945 739.235 L190 739.235 L190 735.3 Q192.663 732.545 197.246 727.915 Q201.852 723.263 203.033 721.92 Q205.278 719.397 206.158 717.661 Q207.061 715.902 207.061 714.212 Q207.061 711.457 205.116 709.721 Q203.195 707.985 200.093 707.985 Q197.894 707.985 195.44 708.749 Q193.01 709.513 190.232 711.064 L190.232 706.342 Q193.056 705.207 195.51 704.629 Q197.963 704.05 200 704.05 Q205.371 704.05 208.565 706.735 Q211.76 709.42 211.76 713.911 Q211.76 716.041 210.949 717.962 Q210.162 719.86 208.056 722.453 Q207.477 723.124 204.375 726.341 Q201.274 729.536 195.625 735.3 Z" fill="#000000" fill-rule="evenodd" fill-opacity="1" /><path clip-path="url(#clip700)" d="M114.931 482.167 L122.57 482.167 L122.57 455.802 L114.26 457.468 L114.26 453.209 L122.524 451.542 L127.2 451.542 L127.2 482.167 L134.839 482.167 L134.839 486.102 L114.931 486.102 L114.931 482.167 Z" fill="#000000" fill-rule="evenodd" fill-opacity="1" /><path clip-path="url(#clip700)" d="M148.311 482.167 L164.63 482.167 L164.63 486.102 L142.686 486.102 L142.686 482.167 Q145.348 479.413 149.931 474.783 Q154.538 470.13 155.718 468.788 Q157.964 466.265 158.843 464.528 Q159.746 462.769 159.746 461.079 Q159.746 458.325 157.802 456.589 Q155.88 454.853 152.778 454.853 Q150.579 454.853 148.126 455.616 Q145.695 456.38 142.917 457.931 L142.917 453.209 Q145.741 452.075 148.195 451.496 Q150.649 450.917 152.686 450.917 Q158.056 450.917 161.251 453.603 Q164.445 456.288 164.445 460.778 Q164.445 462.908 163.635 464.829 Q162.848 466.728 160.741 469.32 Q160.163 469.991 157.061 473.209 Q153.959 476.403 148.311 482.167 Z" fill="#000000" fill-rule="evenodd" fill-opacity="1" /><path clip-path="url(#clip700)" d="M174.445 480.223 L179.329 480.223 L179.329 486.102 L174.445 486.102 L174.445 480.223 Z" fill="#000000" fill-rule="evenodd" fill-opacity="1" /><path clip-path="url(#clip700)" d="M202.362 455.616 L190.556 474.065 L202.362 474.065 L202.362 455.616 M201.135 451.542 L207.014 451.542 L207.014 474.065 L211.945 474.065 L211.945 477.954 L207.014 477.954 L207.014 486.102 L202.362 486.102 L202.362 477.954 L186.76 477.954 L186.76 473.44 L201.135 451.542 Z" fill="#000000" fill-rule="evenodd" fill-opacity="1" /><path clip-path="url(#clip700)" d="M115.256 229.035 L122.894 229.035 L122.894 202.669 L114.584 204.336 L114.584 200.077 L122.848 198.41 L127.524 198.41 L127.524 229.035 L135.163 229.035 L135.163 232.97 L115.256 232.97 L115.256 229.035 Z" fill="#000000" fill-rule="evenodd" fill-opacity="1" /><path clip-path="url(#clip700)" d="M148.635 229.035 L164.954 229.035 L164.954 232.97 L143.01 232.97 L143.01 229.035 Q145.672 226.28 150.255 221.651 Q154.862 216.998 156.042 215.655 Q158.288 213.132 159.167 211.396 Q160.07 209.637 160.07 207.947 Q160.07 205.192 158.126 203.456 Q156.204 201.72 153.103 201.72 Q150.903 201.72 148.45 202.484 Q146.019 203.248 143.241 204.799 L143.241 200.077 Q146.066 198.942 148.519 198.364 Q150.973 197.785 153.01 197.785 Q158.38 197.785 161.575 200.47 Q164.769 203.155 164.769 207.646 Q164.769 209.776 163.959 211.697 Q163.172 213.595 161.065 216.188 Q160.487 216.859 157.385 220.076 Q154.283 223.271 148.635 229.035 Z" fill="#000000" fill-rule="evenodd" fill-opacity="1" /><path clip-path="url(#clip700)" d="M174.769 227.09 L179.653 227.09 L179.653 232.97 L174.769 232.97 L174.769 227.09 Z" fill="#000000" fill-rule="evenodd" fill-opacity="1" /><path clip-path="url(#clip700)" d="M200.417 213.827 Q197.269 213.827 195.417 215.979 Q193.588 218.132 193.588 221.882 Q193.588 225.609 195.417 227.785 Q197.269 229.938 200.417 229.938 Q203.565 229.938 205.394 227.785 Q207.246 225.609 207.246 221.882 Q207.246 218.132 205.394 215.979 Q203.565 213.827 200.417 213.827 M209.699 199.174 L209.699 203.433 Q207.94 202.6 206.135 202.16 Q204.352 201.72 202.593 201.72 Q197.963 201.72 195.51 204.845 Q193.079 207.97 192.732 214.289 Q194.098 212.276 196.158 211.211 Q198.218 210.123 200.695 210.123 Q205.903 210.123 208.912 213.294 Q211.945 216.442 211.945 221.882 Q211.945 227.206 208.797 230.424 Q205.649 233.641 200.417 233.641 Q194.422 233.641 191.25 229.058 Q188.079 224.451 188.079 215.725 Q188.079 207.53 191.968 202.669 Q195.857 197.785 202.408 197.785 Q204.167 197.785 205.949 198.132 Q207.755 198.479 209.699 199.174 Z" fill="#000000" fill-rule="evenodd" fill-opacity="1" /><path clip-path="url(#clip700)" d="M19.1292 764.194 Q19.5479 764.194 19.8377 764.29 Q20.0954 764.387 20.2242 764.613 Q20.353 764.838 20.3852 764.967 Q20.4174 765.096 20.4496 765.385 Q20.5785 766.77 20.8039 767.736 Q21.0294 768.67 22.1888 770.989 Q23.3482 773.276 25.4416 776.142 L34.3626 787.672 L35.8763 789.604 Q35.9729 789.604 36.1661 789.54 Q36.3271 789.475 36.5526 789.411 Q36.7458 789.314 36.8102 789.282 L58.4204 779.91 Q60.1595 779.17 60.7714 778.268 Q61.3833 777.366 61.4155 775.337 Q61.4155 775.015 61.4477 774.886 Q61.4477 774.725 61.5121 774.5 Q61.5443 774.242 61.7054 774.145 Q61.8664 774.017 62.124 774.017 Q63.4445 774.017 63.4445 775.208 Q63.4445 775.949 63.3479 778.461 Q63.2512 780.973 63.2512 781.682 Q63.2512 783.002 63.3479 785.707 Q63.4445 788.413 63.4445 789.733 Q63.4445 790.667 62.7037 790.667 Q62.0918 790.667 61.802 790.442 Q61.4799 790.184 61.4477 789.959 Q61.4155 789.733 61.4155 789.218 Q61.4155 788.831 61.3833 788.413 Q61.3189 787.962 61.1579 787.318 Q60.9646 786.641 60.5137 786.223 Q60.0306 785.772 59.3543 785.772 Q58.8068 785.772 57.0355 786.577 L39.2901 794.21 L46.9551 804.032 L57.3254 806.673 Q57.7118 806.738 58.3881 806.899 Q59.0645 807.06 59.5476 807.189 Q60.0306 807.285 60.2239 807.285 Q60.6426 807.285 60.9002 807.028 Q61.1579 806.738 61.2867 806.029 Q61.3833 805.321 61.4155 804.773 Q61.4155 804.194 61.4155 803.002 Q61.4155 801.52 61.6731 801.263 Q61.8342 801.134 62.124 801.134 Q62.5749 801.134 62.897 801.263 Q63.1868 801.392 63.2834 801.649 Q63.3801 801.875 63.4123 802.036 Q63.4445 802.197 63.4445 802.454 Q63.4445 803.131 63.3801 804.58 Q63.3156 805.997 63.3156 806.738 L63.2512 810.957 L63.4445 819.33 Q63.4445 820.329 62.6393 820.329 Q62.0274 820.329 61.7698 820.071 Q61.4799 819.813 61.4477 819.523 Q61.4155 819.234 61.4155 818.493 Q61.4155 816.883 61.3189 815.916 Q61.2223 814.95 61.0934 814.338 Q60.9324 813.694 60.4815 813.372 Q60.0306 813.018 59.6442 812.857 Q59.2255 812.696 58.2915 812.47 L22.8651 803.646 Q21.8023 803.388 21.6413 803.388 Q21.0938 803.388 20.9005 803.71 Q20.6751 804 20.5785 804.838 Q20.4496 806.448 20.4496 807.672 Q20.4496 808.477 20.4174 808.799 Q20.3852 809.089 20.2242 809.346 Q20.031 809.572 19.6445 809.572 Q18.3885 809.572 18.3885 808.251 L18.5817 799.749 L18.3885 791.311 Q18.3885 790.377 19.1292 790.377 Q20.0632 790.377 20.2564 790.828 Q20.4496 791.247 20.4496 792.632 Q20.4496 795.047 20.7717 796.142 Q21.0616 797.205 21.5769 797.527 Q22.0599 797.817 23.477 798.171 L44.6362 803.453 L24.8618 777.72 Q22.8651 775.337 21.8345 775.337 Q21.1582 775.337 20.8683 775.82 Q20.5463 776.271 20.4496 777.398 Q20.3208 778.203 19.7089 778.203 Q19.097 778.203 18.8071 777.978 Q18.4851 777.72 18.4529 777.527 Q18.3885 777.302 18.3885 776.947 Q18.3885 775.756 18.4851 773.276 Q18.5817 770.796 18.5817 769.604 Q18.5817 768.799 18.4851 767.221 Q18.3885 765.643 18.3885 764.935 Q18.3885 764.58 18.6461 764.387 Q18.8716 764.194 19.1292 764.194 Z" fill="#000000" fill-rule="evenodd" fill-opacity="1" /><path clip-path="url(#clip700)" d="M62.3331 743.515 Q62.9643 743.515 63.1221 743.808 Q63.2574 744.101 63.2574 744.912 L63.2574 749.241 L76.8741 752.668 Q78.0689 752.938 79.0834 752.938 Q80.2106 752.938 80.7065 752.6 Q81.2025 752.239 81.2025 751.495 Q81.2025 750.03 79.8724 748.452 Q78.5423 746.851 75.296 745.499 Q74.8676 745.318 74.7774 745.228 Q74.6647 745.115 74.6647 744.822 Q74.6647 744.259 75.1156 744.259 Q75.2734 744.259 75.9948 744.574 Q76.7162 744.867 77.7758 745.521 Q78.8354 746.152 79.8273 746.986 Q80.8193 747.798 81.5407 749.038 Q82.2395 750.278 82.2395 751.608 Q82.2395 753.479 81.0447 754.674 Q79.8499 755.846 77.9787 755.846 Q77.37 755.846 75.4312 755.373 Q73.4699 754.899 63.2574 752.329 L63.2574 756.41 Q63.2574 756.973 63.2349 757.199 Q63.2123 757.402 63.0996 757.56 Q62.9643 757.695 62.6938 757.695 Q62.2655 757.695 62.0851 757.515 Q61.8822 757.334 61.8597 757.109 Q61.8146 756.861 61.8146 756.297 L61.8146 751.969 L54.4878 750.165 Q53.7663 749.985 53.3606 749.534 Q52.9322 749.061 52.8871 748.79 Q52.8195 748.519 52.8195 748.317 Q52.8195 747.708 53.1577 747.347 Q53.4733 746.986 54.0594 746.986 Q54.375 746.986 61.8146 748.88 L61.8146 744.822 Q61.8146 744.304 61.8371 744.101 Q61.8597 743.875 61.9724 743.695 Q62.0851 743.515 62.3331 743.515 Z" fill="#000000" fill-rule="evenodd" fill-opacity="1" /><path clip-path="url(#clip700)" d="M70.7421 727.322 Q70.7421 728.382 70.1785 728.382 Q69.6148 728.382 69.6148 727.277 Q69.6148 727.142 69.6374 726.917 Q69.6599 726.669 69.6599 726.624 L69.6599 713.616 L56.6069 713.616 Q56.5618 713.616 56.3589 713.638 Q56.1335 713.661 55.9982 713.661 Q54.8935 713.661 54.8935 713.12 Q54.8935 712.556 55.9982 712.556 L69.6599 712.556 L69.6599 699.526 Q69.6599 699.48 69.6374 699.255 Q69.6148 699.03 69.6148 698.894 Q69.6148 697.835 70.1785 697.835 Q70.7421 697.812 70.7421 698.939 Q70.7421 699.075 70.7195 699.278 Q70.697 699.48 70.697 699.526 L70.697 712.556 L84.4038 712.556 Q85.4634 712.556 85.4634 713.12 Q85.4634 713.661 84.3587 713.661 Q84.2234 713.661 83.998 713.638 Q83.7951 713.616 83.75 713.616 L70.697 713.616 L70.697 726.624 Q70.697 726.669 70.7195 726.939 Q70.7421 727.187 70.7421 727.322 Z" fill="#000000" fill-rule="evenodd" fill-opacity="1" /><path clip-path="url(#clip700)" d="M55.367 680 L53.9242 680 Q53.9242 674.454 50.9709 671.591 Q50.9709 670.802 51.1512 670.667 Q51.3316 670.532 52.1657 670.532 L78.0689 670.532 Q79.4441 670.532 79.8724 669.855 Q80.3008 669.179 80.3008 666.226 L80.3008 664.76 L81.721 664.76 Q81.5858 666.383 81.5858 672.245 Q81.5858 678.106 81.721 679.707 L80.3008 679.707 L80.3008 678.242 Q80.3008 675.334 79.895 674.635 Q79.4666 673.936 78.0689 673.936 L54.1496 673.936 Q55.367 676.348 55.367 680 Z" fill="#000000" fill-rule="evenodd" fill-opacity="1" /><polyline clip-path="url(#clip702)" style="stroke:#009af9; stroke-linecap:butt; stroke-linejoin:round; stroke-width:4; stroke-opacity:1; fill:none" stroke-dasharray="2, 4" points="
  2193.51,216.552 2093.76,278.715 1998.67,338.047 1907.91,394.515 1821.53,448.28 1739.28,499.86 1660.38,548.736 1585.61,594.642 1784.86,470.331 1705.55,519.847 
  1629.8,567.256 1557.28,612.457 1488.13,655.125 1422.86,695.589 1360.96,733.806 1302.5,770.372 1246.56,805.035 1193.54,837.908 1143.25,870.271 1093.75,900.477 
  1047.54,929.784 1002.71,956.934 961.175,982.988 921.319,1007.76 883.433,1031.42 847.237,1054.02 812.652,1075.39 779.967,1095.45 749.276,1114.51 720.131,1132.76 
  692.206,1150.14 665.617,1166.41 640.74,1182.1 616.73,1197.33 593.437,1211.46 571.812,1224.8 1203.98,830.832 1154.08,861.995 1106.41,891.833 1060.76,920.258 
  1017.28,947.401 975.759,973.455 1619.4,572.679 1775.43,476.872 1695.54,525.794 1620.7,572.495 1549.26,617.006 1481.17,659.455 1416.24,699.999 1354.22,738.511 
  1295.3,775.118 1239.31,810.651 1725,507.365 1648.89,554.662 1795.07,463.787 1715.56,513.459 1639.57,560.838 1567.1,606.144 1497.79,649.116 1432.05,689.766 
  1369.87,728.303 1310.92,767.19 1251.43,802.502 1197.41,836.15 1145.94,867.414 1098.12,896.946 1052.94,924.901 1010.18,951.546 969.417,977.257 930.087,1001.99 
  892.245,1025.6 856.131,1047.85 822.092,1069.09 789.604,1089.5 758.382,1108.93 728.669,1127.42 700.374,1145.28 932.414,999.757 895.668,1022.78 2252.71,179.492 
  2150.45,243.404 2052.68,304.479 1959.26,362.556 1870.41,417.656 1786.13,469.858 1706.27,519.464 1630.39,566.533 1558.38,611.583 1489.47,654.396 2183.16,222.653 
  2170.61,230.788 2071.98,292.344 1977.82,351.12 1887.91,406.776 1802.77,459.515 1722.09,509.808 1645.16,557.736 1571.84,603.317 1502.11,646.872 1435.49,688.053 
  1372.49,726.829 1313.17,763.729 1256.73,798.849 1203,832.354 1151.75,863.944 1103.42,894.06 1266.33,792.179 1213.21,825.218 1162.67,856.469 1114.86,886.275 
  1069.27,914.528 1026.05,941.131 985.35,966.889 945.946,991.528 908.255,1014.89 872.516,1037.25 838.317,1058.57 805.704,1079.64 773.462,1099.55 743.004,1118.34 
  714.263,1136.45 686.557,1153.69 660.19,1170.09 635.097,1185.69 611.242,1200.43 588.688,1214.35 567.397,1227.72 546.952,1241.69 525.573,1254.2 506.446,1265.93 
  488.488,1277.04 471.503,1287.77 993.301,963.176 951.626,988.27 1702.53,520.967 1906.55,394.821 1821.06,447.74 1740.11,498.057 1663.13,546.017 1589.77,591.587 
  1520.06,635.034 1453.6,676.332 1390.42,715.568 1330.4,752.979 1273.17,788.371 1219.03,822.323 1167.09,854.606 1117.71,885.815 1069.97,914.821 1422.34,695.462 
  1795.62,463.526 1715.96,513.189 1639.99,560.523 1567.58,605.392 1498.94,648.435 1433.1,689.45 1534.8,625.927 1467.53,667.749 1403.55,707.795 1342.29,746.572 
  1282.97,782.961 1227.31,817.577 1174.35,850.174 1124.49,881.303 1076.87,911.183 1104.41,893.865 1057.65,923.083 1012.96,950.881 1591.35,590.439 1521.81,634.071 
  1455.07,675.736 1391.33,715.349 1330.74,753.227 1776.41,475.729 1697.29,525.028 1621.88,572.005 1550.01,616.959 1481.25,659.695 2069.25,293.761 1975.65,352.071 
  1886.45,407.639 1801.45,460.556 1995.09,340.105 1904.76,396.339 1818.73,449.311 1737.7,500.444 1659.48,548.495 1585.98,594.661 1515.36,638.704 1447.98,680.424 
  1384.16,720.384 1323.03,757.622 1266.07,793.641 1210.97,827.965 1158.46,861.27 1107.52,892.689 1059.45,922.299 1014.16,950.516 970.993,977.468 929.763,1003.06 
  1894.83,403.83 1807.28,456.934 1726.04,507.522 1648.66,555.885 1574.67,601.999 1504.13,645.759 1437.19,687.195 1373.8,726.502 1313.67,764.016 1256.29,799.774 
  1596.57,588.038 1525.49,632.233 1457.88,674.878 1392.64,715.205 1330.96,753.799 1271.92,790.208 1216.22,824.756 1163.37,857.642 1113.07,888.93 1065.2,918.711 
  1019.65,947.246 975.996,974.777 933.88,1000.64 894.319,1025.24 935.679,999.535 896.007,1024.09 858.449,1048 821.863,1070.15 787.992,1091.31 755.61,1111.6 
  724.581,1130.65 695.438,1148.78 667.697,1165.94 641.447,1182.59 615.981,1198.67 591.377,1214.03 567.886,1228.59 545.61,1242.3 524.636,1255.35 504.676,1267.54 
  767.954,1103.15 737.512,1122.49 707.912,1141.11 679.439,1158.58 652.716,1175.01 1916.57,388.447 1830.81,442.119 1748.7,492.609 1671.47,541.312 1596.96,587.66 
  1526.06,631.865 1458.44,675.122 1392.27,714.989 1331.29,752.848 1273.37,788.796 1218.38,823.303 1165.59,856.308 1115.11,887.4 1067.54,916.798 1022.57,944.464 
  980.251,970.619 940.24,995.347 1555.12,612.439 1488.16,654.402 1423.97,694.586 1362.5,732.957 1303.8,769.774 1247.48,805.237 1441.22,683.985 1436.55,686.844 
  1374.34,725.854 1314.67,762.952 1257.92,798.161 1204.06,831.803 1152.59,864.985 1101.83,895.318 1327.1,755.478 1269.35,790.975 1215.05,825.19 1162.71,857.723 
  1112.94,888.54 1334.63,750.741 1276.59,786.539 1405.43,706.266 1344.63,744.396 2262.41,173.625 2159.43,237.902 2061.1,299.227 1967.29,357.647 1877.92,413.207 
  1792.93,465.758 1712.54,515.705 1636.14,563.441 1611.09,578.855 1539.54,623.361 1471.45,665.774 1406.57,706.149 1344.81,744.51 1286.13,780.903 2155.97,240.11 
  2057.72,301.073 1993.01,341.563 1902.53,399.153 1914.57,390.48 1827.7,444.736 1744.7,496.493 1665.53,545.488 1590.58,592.089 1519.29,636.327 1451.62,678.386 
  1387.28,718.192 1326.39,756.454 1267.86,792.208 1213.16,826.175 1161.2,858.931 1111.09,891.275 1061.62,920.939 1016.24,949.144 973.091,976.147 931.785,1001.72 
  892.666,1026.14 855.309,1049.32 819.85,1071.29 786.245,1092.01 754.539,1111.98 724.004,1131 694.903,1149.58 756.879,1109.9 727.174,1128.69 698.442,1146.51 
  671.181,1163.61 645.01,1179.76 620.316,1195.6 596.081,1211.04 572.46,1225.26 550.702,1239.39 529.094,1252.01 1032.67,939.059 988.52,966.075 947.192,991.805 
  907.832,1016.36 950.925,989.218 911.789,1013.5 874.652,1036.72 839.118,1059 805.035,1080.4 772.311,1100.42 741.674,1119.49 966.596,979.324 926.925,1003.99 
  889.199,1028.03 1013.56,949.339 972.793,974.396 934.463,998.895 896.986,1022.44 860.962,1044.88 826.647,1066.29 793.885,1086.79 762.526,1106.25 732.763,1125.05 
  792.862,1087.55 761.365,1107.49 730.873,1125.93 702.651,1144.05 674.935,1161.17 740.596,1119.85 711.964,1139.69 681.613,1157.07 655.02,1173.81 629.419,1189.67 
  605.148,1204.74 582.093,1218.98 560.322,1232 540.392,1245.12 520.331,1257.63 501.19,1269.22 483.467,1280.28 466.542,1290.59 450.764,1300.63 536.969,1246.41 
  518.351,1258.19 500.337,1269.29 483.349,1280.66 566.192,1227.97 546.57,1240.74 527.036,1252.8 957.318,984.907 918.384,1009.23 1431.19,689.811 1369.8,727.976 
  1311.42,764.349 1255.78,799.089 1202.64,832.123 1152.1,863.382 1104.29,893.635 1058.01,922.579 1013.73,949.932 971.887,976.161 931.763,1001.79 1644.49,557.437 
  1572.3,602.475 1503.4,645.579 1437.46,687.23 1803.63,458.285 1723.97,508.606 1647,555.972 1574.54,601.312 1505.18,644.15 1439.65,684.884 1377.34,723.726 
  1317.92,760.783 1261.23,795.743 1207.75,828.877 1157.07,860.588 1108.56,891.197 1854.7,426.885 1772.01,478.326 1693.32,527.503 2176.85,226.655 2078.31,288.087 
  1984.33,346.753 1894.59,402.45 1809.39,455.522 1728.2,506.292 1650.54,554.579 1623.78,570.896 1551.71,615.822 1482.99,658.596 1417.55,699.299 1355.29,738.042 
  1296.02,774.666 1240,809.323 1186.98,841.658 1137.52,872.96 1089.63,901.815 1045.49,929.76 1002.74,956.627 961.645,981.665 923.344,1005.65 886.658,1029.06 
  850.845,1051.64 816.301,1073.22 783.285,1093.93 751.602,1113.39 721.837,1132.48 692.636,1150.44 665.166,1168.52 637.498,1184.15 2004.56,333.67 2005.07,333.7 
  1945.7,370.539 1858.2,425.092 1774.75,477.18 1695.07,526.704 1619.31,573.826 1967.85,356.903 1879.06,412.498 1930.51,380.392 1843.13,435.095 1797.67,463.622 
  1715.81,513.929 1638.85,561.944 2082.45,285.938 1987.62,344.913 1897.4,401.066 1811.5,454.576 1729.65,505.517 1775.77,476.56 1776.55,476.168 1696.62,526.035 
  1786.1,470.262 1705.65,520.386 1628.98,569.018 1554.58,614.884 1484.42,658.406 1417.84,699.878 1354.4,739.152 1294.32,776.416 1237.32,811.569 1183.54,845.035 
  1132.35,876.905 1083.6,908.639 1035.05,937.312 991.191,964.838 949.084,991.196 908.764,1016.31 870.349,1039.62 834.683,1062.26 800.052,1083.86 767.014,1104.55 
  735.368,1124.48 704.872,1143.25 676.156,1161.07 648.898,1177.83 623.267,1193.69 598.997,1208.87 575.786,1223.51 553.384,1237.39 532.156,1251.25 2182.51,222.788 
  2084.22,284.363 2043.46,309.521 1951.54,367.405 1863,421.981 1853.04,428.077 1770.18,479.697 1691.22,528.845 1616.04,576.076 1543.79,620.316 1476.11,662.592 
  1411.44,703.242 1349.26,741.146 1291.27,777.477 1235.7,812.571 1248.7,803.633 1195.68,837.067 1212.18,826.907 1160.08,859.332 1110.48,890.122 1063.38,919.96 
  1091.93,901.454 1489.33,654.079 1424.46,694.741 1362.26,733.546 1302.9,770.489 1246.39,805.876 1192.25,839.331 1141.08,871.332 1092.12,901.81 1045.5,930.808 
  1001.14,958.235 959.186,984.032 919.722,1008.14 882.846,1031.51 847.095,1053.79 1645.46,557.02 2293.19,154.078 2189.33,219.233 2089.66,281.742 1994.04,340.595 
  1904.01,396.554 2147.17,245.651 2049.25,306.62 1955.98,364.744 1867.07,420.072 1855.52,427.157 1771.59,479.236 1691.92,528.826 1616.07,577.447 1541.69,622.697 
  1472.47,665.842 1406.47,706.884 1343.68,746.363 1283.29,783.839 1225.96,818.993 1172.19,852.338 1539.27,623.585 1471.11,666.203 1701.1,522.848 1625.21,570.076 
  1552.96,615.176 1483.97,658.066 1418.36,698.953 1355.82,738.621 1295.14,775.857 1238.17,811.208 1184.1,844.871 1723.32,509.049 1646.32,557.272 1572.55,603.072 
  1502.49,646.566 1435.95,687.458 1373.4,726.457 1313.74,764.114 1256.14,799.866 1201.45,833.937 1149.33,866.344 1099.75,896.942 1052.95,925.925 1008.61,953.586 
  966.297,979.934 925.992,1004.95 887.717,1029.66 849.922,1051.91 815.895,1073.95 782.173,1094.24 751.137,1113.67 809.462,1077.03 777.458,1097.2 746.613,1116.43 
  1254.48,800.473 1200.52,834.261 1148.83,866.635 1099.31,897.254 1593.35,589.451 1523.33,633.281 1456.28,675.103 1392.3,714.817 1331.55,753.05 1273.06,789.081 
  1217.94,823.49 1165.31,856.157 1115.34,887.243 1067.78,916.487 1023.05,944.43 980.302,971.05 939.582,996.324 900.919,1020.07 864.595,1042.82 829.794,1064.55 
  796.55,1085.01 765.26,1104.28 735.782,1122.7 707.603,1139.89 681.3,1156.29 656.21,1172.6 631.262,1187.71 608.149,1202.03 586.251,1215.53 565.594,1228 
  546.523,1239.75 528.538,1251.55 510.495,1262.86 493.197,1275.09 1293.31,775.264 1239.08,810.056 1185.86,842.652 1136,873.583 1088.68,903.204 1043.37,931.461 
  1000.14,958.262 959.144,985.026 1662.28,545.979 1589.83,591.315 1520.47,634.575 1454.3,675.709 1391.37,714.949 1331.35,752.237 1274.31,787.769 1347.95,741.748 
  1290.35,777.353 1873.09,415.229 1789.84,466.77 1710.99,516.402 1635.07,563.347 1563.26,608.075 1494.84,650.398 1430.09,690.494 1368.76,730.421 1634.29,563.432 
  1745.01,494.774 1668.16,543.307 1593.91,589.237 1523.65,633.486 1741.81,497.083 1664.62,545.18 1591.05,590.909 1521.1,634.272 1454.76,675.357 1391.91,714.19 
  1650.6,553.568 1578.22,598.999 1508.72,642.2 1442.63,683.411 1379.59,722.563 1319.7,759.942 1262.52,795.568 1208.02,829.555 1463.25,670.549 1399.27,710.765 
  1337.75,750.263 1277.33,786.674 1221.63,821.732 1298.26,773.085 1242.42,807.967 1189.05,841.38 1137.94,873.271 1089.16,903.786 1042.48,933.417 997.15,960.918 
  955.081,986.823 915.453,1011.27 959.602,982.793 921.618,1006.35 885.575,1028.81 851.217,1050.61 817.88,1072.22 784.812,1093.25 752.646,1113.05 722.364,1131.46 
  694.2,1148.6 667.981,1165.17 642.626,1181.01 618.405,1195.9 595.622,1210.31 573.582,1223.97 552.677,1237.57 531.883,1250.63 511.896,1262.55 493.662,1273.84 
  476.4,1285 459.319,1294.96 444.091,1304.13 629.906,1188.44 607.04,1202.82 585.039,1216.7 563.801,1229.78 543.8,1242.34 524.585,1254.48 506.013,1266.06 
  488.289,1277.09 471.429,1287.67 455.232,1297.66 439.95,1307.13 425.472,1316.25 411.52,1324.95 398.212,1333.13 385.692,1341.1 373.511,1348.47 362.229,1355.49 
  351.497,1361.87 341.726,1367.7 332.811,1373.42 324.059,1379.07 315.416,1384.24 1118.23,884.529 1071.94,913.581 1027.49,941.793 1451.43,677.017 1389.37,715.862 
  1329.95,752.954 1273.21,789.02 1218.04,823.166 1165.8,855.149 1116.88,885.66 1070.21,914.67 1025.83,943.178 1200.98,833.643 1218.5,822.01 1167.57,853.527 
  1119.36,883.823 1073.02,912.776 1028.72,940.315 986.598,966.602 946.386,991.83 907.794,1015.8 871.122,1038.77 835.99,1060.65 802.515,1081.37 770.817,1101.03 
  740.751,1119.71 712.175,1137.34 1023.35,943.396 1392.08,714.15 1332.57,751.026 1276.16,786.053 1222.58,819.454 1171.48,851.298 1260,795.907 1207.5,828.707 
  1157.33,860.089 1109.32,890.03 1063.52,919.072 1165.45,855.078 1187.23,841.696 1137.46,872.855 1089.79,902.568 1044.34,931.153 1000.61,958.184 959.264,983.882 
  919.952,1009.03 881.486,1032.3 845.882,1054.69 811.631,1075.92 779.161,1095.98 748.467,1115.08 1047.88,928.596 1004.53,956.077 962.486,981.679 923.323,1006.28 
  885.693,1029.23 850.588,1050.99 817.293,1072.34 784.64,1092.49 1079.51,908.712 1034.94,936.378 992.62,962.725 952.317,988.06 913.561,1012.29 876.489,1035.22 
  841.415,1057.26 807.711,1078.28 775.554,1097.75 745.764,1116.57 716.979,1134.54 689.481,1151.69 663.255,1168.14 638.086,1183.44 614.686,1197.84 592.654,1211.48 
  571.783,1224.08 552.511,1236.24 533.909,1247.82 516.205,1259.59 498.196,1270.86 480.954,1281.79 464.231,1291.96 549.882,1238.29 530.772,1250.28 512.43,1261.55 
  2027.89,319.028 1937,376.853 1848.54,430.765 1766.07,482.183 1687.42,531.417 1612.1,578.06 1540.75,622.333 1473.03,664.163 1993.3,340.385 1904.33,395.925 
  1923.02,384.381 1837.03,438.079 1754.88,489.297 1676.53,537.858 1602.25,584.102 1531.51,628.311 1463.88,670.342 1399.58,710.226 1654.43,551.91 1580.75,597.159 
  1511.53,640.329 1445.5,681.775 1382.09,721.416 1321.45,758.989 1263.98,795.128 1556.13,612.818 1487.58,655.254 1422.66,695.784 1473.19,664.298 1408.83,704.362 
  1347.54,742.455 1289.27,778.963 1233.42,813.829 1180.09,846.902 1129.5,878.234 1347.26,742.858 1288.65,778.975 1233.4,813.13 1181.16,845.691 1131.35,876.708 
  1083.9,906.546 1038.25,934.988 994.746,961.934 1305.8,767.934 1250.29,802.933 1196.76,836.712 1145.08,868.345 1096.69,898.268 1050.92,926.98 1710.44,516.054 
  1635.6,562.905 1563.93,607.675 1495.45,650.997 1429.18,691.606 1367.06,730.585 1307.43,767.683 1250.68,802.881 1196.84,837.032 1144.59,871.276 1092.21,901.385 
  1046.15,930.716 1001.28,958.11 959.377,984.335 919.259,1008.98 881.56,1032.2 846.044,1054.59 811.781,1075.42 779.919,1095.2 749.672,1114.79 719.693,1133.08 
  691.726,1151 664.301,1167.66 638.815,1183.63 1770.84,478.606 1692.89,527.518 1618.07,574.313 1770.48,479.248 1691.91,528.938 1615.89,576.338 1543.39,621.466 
  1474.35,663.808 1409.58,703.836 1348.35,741.984 1289.99,777.983 1234.92,812.509 1182.11,845.345 1131.88,878.759 1080.76,908.237 1247.56,803.955 1195.19,836.782 
  1144.98,867.843 1097.46,897.407 1052.24,925.557 1009.17,952.199 968.418,977.759 929.318,1001.95 892.311,1025.19 856.768,1046.61 823.998,1066.75 793.194,1085.6 
  764.344,1103.65 736.745,1120.93 710.303,1138.13 683.993,1154.66 658.706,1170.49 634.486,1185.79 790.703,1088.13 847.574,1053.01 814.204,1073.82 782.364,1093.67 
  752.012,1112.24 723.599,1129.75 696.82,1146.19 671.66,1161.77 647.827,1176.68 625.021,1190.84 603.36,1204.7 854.48,1048.62 820.917,1069.38 789.161,1089.56 
  758.294,1108.78 728.892,1127.59 700.124,1144.77 673.83,1160.92 649.131,1175.49 626.844,1189.97 604.687,1203.92 
  "/>
<polyline clip-path="url(#clip702)" style="stroke:#e26f46; stroke-linecap:butt; stroke-linejoin:round; stroke-width:4; stroke-opacity:1; fill:none" stroke-dasharray="2, 4" points="
  2089.85,204.096 2112.81,190.454 2133.68,176.685 2154.75,163.747 2174.54,151.346 1515.38,561.756 1565.69,530.062 1614.18,499.769 1660.51,471.664 1703.51,444.387 
  1745.23,418.484 551.409,1161.63 648.05,1101.42 740.153,1044.35 827.458,989.509 911.344,938.389 989.544,889.451 1064.41,843.374 1134.89,798.213 935.902,922.079 
  1014.49,873.118 1089.39,826.323 1160.97,781.687 1229.26,738.98 1294.59,698.594 1356.37,660.561 1414.55,625.263 1468.54,590.886 1521.13,558.308 1570.97,526.643 
  1548.98,540.296 1598.52,509.38 1645.81,479.764 1691.12,451.501 1734.35,424.647 1184.95,767.366 1251.16,725.954 1314.51,686.369 1375.07,648.366 1433.2,613.374 
  1486.73,578.966 1539.36,546.189 1589.5,515.172 1636.95,485.677 1682.07,457.613 1576.54,523.385 1624.39,493.106 1670.71,465.074 1713.59,437.744 1755.4,411.807 
  673.059,1086.2 763.433,1029.7 849.863,975.735 860.443,968.567 943.38,917.236 1021.9,868.429 1096.56,821.983 1167.61,777.752 1235.28,735.551 1299.83,695.269 
  1361.45,656.823 1420.26,620.424 1475.94,585.803 1528.91,552.878 1579.27,521.377 1627.46,491.487 1673.18,462.967 1716.81,436.304 1757.6,410.452 1797.15,385.837 
  1834.8,362.318 1870.78,339.984 1904.94,318.865 1937.25,298.44 1968.49,279.135 1998.03,262.647 2023.25,245.249 2049.86,228.825 2074.99,213.049 2099.12,198.02 
  2122.11,183.602 2144.17,170.037 2164.92,157.046 2184.79,144.805 2203.51,133.222 2221.23,122.875 2237.06,112.648 1423.98,618.205 1479.34,583.905 1531.81,551.169 
  1581.89,520 1629.57,490.204 1675.15,461.921 1718.41,435.053 1759.51,409.722 1798.26,385.315 1835.6,362.27 1870.85,340.172 1904.65,318.953 1937.11,298.955 
  1967.71,279.801 1997.01,261.69 2024.71,244.892 2050.41,228.99 2074.73,213.232 2098.84,198.476 2121.41,184.297 2143.1,170.838 2163.69,158.109 2084.43,207.465 
  2107.66,193.02 2129.76,179.352 2150.67,166.316 1057.36,846.32 1130.38,800.761 1200.08,757.45 455.088,1221.92 555.811,1159.06 651.975,1099.25 743.465,1042.69 
  829.986,988.025 913.615,935.933 913.24,935.965 993.252,886.213 1069.36,838.805 1141.88,793.506 1211.18,750.299 1277.27,709.943 1339,670.785 1398.91,633.586 
  1455.81,598.063 1510.15,564.119 1562.08,532.011 1611.19,501.397 1658.02,472.302 1628.09,491.009 1673.91,462.536 1717.47,435.24 1759.23,409.458 1798.67,384.731 
  1836.49,361.343 1872.27,338.931 1025.6,866.38 1099.7,820.14 1170.43,776.053 1237.87,733.973 1302.25,693.817 1363.67,655.466 1361.16,657.325 1419.5,621.076 
  1474.95,586.413 1527.97,553.402 1578.47,522.498 1625.74,492.698 1671.33,464.21 1714.91,437.199 1756.23,411.446 1370.35,651.879 1427.83,616.144 1482.49,581.953 
  1031.16,863.303 970.435,901.326 1046.24,853.797 1118.95,808.488 1188.26,765.077 1254.67,723.743 1317.89,684.482 1377.95,647.138 1435.08,611.414 1489.73,577.309 
  1541.9,544.982 1272.79,712.799 1334.64,674.115 1393.81,637.078 1450.47,602.972 1502.64,569.331 1554.1,537.43 1602.9,506.965 1649.51,477.898 1693.97,450.218 
  1736.31,424.005 1415.87,623.723 1470.9,589.324 1523.52,556.545 1573.66,525.238 1621.55,495.354 1667.27,467.103 1710.49,440.049 1751.87,414.255 1791.33,389.575 
  1829.08,366.259 1864.75,344.034 1898.75,323.146 1930.7,303.192 1961.22,284.187 1990.3,266.169 2017.86,248.922 2044.24,232.573 1720.5,434.277 1760.7,409.134 
  1799.16,385.069 1835.97,361.909 1871.4,340.069 1904.81,319.358 1936.49,299.767 1966.46,281.056 890.613,951.108 970.088,901.573 1045.86,854.887 1117.28,809.671 
  1186.45,766.601 1252.33,725.672 1314.94,686.735 1374.51,649.55 1431.39,615.897 1482.87,582.128 1534.53,550.624 1582.72,522.057 1626.42,492.56 1671.54,464.624 
  1714.28,437.999 1755.01,414.793 1790.51,391.127 1826.71,368.093 1861.94,346.595 1201.59,757.449 1266.33,717.101 1328.05,678.428 1387.21,641.53 1443.66,606.371 
  1497.44,573.203 1548.18,541.572 856.693,973.601 486.032,1203.25 584.383,1141.88 678.261,1083.24 627.582,1114.5 720.139,1056.45 808.939,1002.33 891.735,949.585 
  972.418,899.287 1049.36,851.237 1122.86,805.592 1192.69,762.053 1259.29,720.713 1322.53,681.411 1382.65,643.87 1440.08,608.129 1494.75,573.981 1546.99,541.46 
  1596.74,510.367 1644.3,480.8 1689.53,452.779 1732.4,426.095 1773.22,400.824 1811.87,377.002 1848.31,354.125 1883.31,332.381 902.413,942.795 982.804,892.755 
  1059.35,844.898 1132.56,799.462 1202.06,755.922 1268.67,714.512 1332.02,675.813 1391.22,638.385 1448.47,602.771 1502.95,568.667 1193.23,761.992 1259.38,720.552 
  1322.78,680.931 1383.39,643.122 1378.71,646.177 1055.43,847.682 1128.3,802.261 1197.78,758.844 1264.2,717.727 1065.8,841.608 1137.59,796.705 1206.28,753.648 
  1272.15,712.803 1221.83,744.304 1286.44,703.975 1348.13,666.52 1286.3,704.154 1347.86,665.813 1406.51,629.102 1462.67,594.194 1516.07,561.045 1566.78,530.163 
  1614.02,500 1660.16,471.483 1703.78,444.135 1745.62,418.08 1785.48,393.54 1823.02,370.072 1858.92,347.598 1893.3,326.021 1926.3,305.605 1957.53,286.764 
  1986.35,267.746 2015.45,250.17 2042.33,233.31 2068.13,217.624 2092.12,202.653 2115.02,188.28 2137.01,174.595 2157.94,161.691 2177.68,149.22 2196.76,138.101 
  2213.77,127.02 2230.72,116.474 2246.85,106.306 1563.11,532.08 1230.46,739.399 1293.95,699.781 1354.55,661.819 1412.62,625.705 1467.87,591.13 1520.76,558.33 
  1570.93,526.894 1619.02,497.104 1664.59,468.764 1707.94,442.392 1748.29,417.001 1787.13,392.694 1824.31,369.635 1859.58,347.628 1893.25,326.51 1925.55,306.234 
  1956.57,287.148 1985.77,269.032 2013.48,251.641 2040.08,234.969 2065.59,219.216 2089.69,203.566 2113.63,189.385 2135.32,175.883 1964.47,282.414 1814.43,376.676 
  1848.81,354.714 1882.41,333.693 666.479,1090.48 509.784,1188.02 607.68,1126.92 701.145,1068.48 790.541,1012.95 875.485,960.083 956.358,910.197 870.263,963.635 
  712.515,1061.51 801.205,1006.1 885.97,953.391 852.417,974.249 934.688,922.692 703.997,1066.96 648.753,1101.13 435.415,1234.24 465.969,1215.14 508.586,1188.64 
  606.724,1127.24 700.652,1068.57 790.403,1012.76 875.77,959.456 881.184,956.408 961.98,906.177 1038.82,858.012 1112.5,811.998 1182.89,767.962 1250.25,725.985 
  1314.47,686.044 1375.56,649.683 892.554,949.369 972.747,899.974 1048.31,852.093 1121.55,806.454 1191.37,762.937 1257.94,721.535 1321.27,682.069 1381.65,644.231 
  1439.53,608.086 1494.82,573.749 1547.34,541.204 1597.13,510.246 1373.75,650.375 1430.13,614.95 1484.32,580.675 1536.75,547.83 1586.99,516.626 1634.73,486.98 
  1680.08,458.725 1723.3,431.827 1764.45,406.215 1061.74,843.45 1134.78,797.383 1205.24,754.052 1271.53,712.723 1334.75,673.275 1395.1,636.182 1451.84,601.76 
  1504.5,568.373 1555.57,536.164 1604.84,505.462 1651.81,476.3 1696.42,448.553 1738.86,422.021 1779.45,396.731 1818.13,372.826 1618.09,497.639 1663.77,469.077 
  1707.46,441.829 1749.15,416.53 1787.85,392.436 1824.7,369.056 1860.47,346.785 1894.54,325.415 1927.23,304.666 1958.97,285.38 1988.47,267.075 2016.47,249.573 
  2043.25,232.987 2068.62,217.225 2092.73,202.18 2115.75,188.668 2136.42,175.205 2157.01,162.235 1576.67,523.782 613.597,1123.58 706.256,1065.27 795.445,1009.64 
  880.554,956.279 962.177,905.528 1039.81,857.265 1113.64,811.426 1183.76,767.46 1251.02,725.773 1314.79,685.998 1375.63,648.182 1433.48,612.035 1488.78,577.653 
  1541.37,545.158 1591.08,514.116 1638.57,484.57 1683.77,456.324 1726.97,429.519 1767.98,403.86 1807.23,379.393 1844.66,356.3 1879.98,334.241 1913.73,313.304 
  1945.76,293.61 1975.88,274.866 1914.6,312.853 1946.45,293.161 1976.57,274.531 1914.56,313.338 1547.23,542.484 1595.17,512.784 1640.61,483.958 1684.7,456.543 
  1726.64,430.298 1766.79,405.304 1805.02,381.441 1841.53,358.572 1876.51,337.047 1909.44,316.581 1940.74,298.858 1794.02,388.493 1830.74,365.676 1865.64,343.996 
  1898.81,323.273 1759.45,410.111 1565.4,530.751 1613.12,501.074 1658.52,472.642 1702.01,446.366 1742.21,420.76 1781.38,396.455 1818.56,373.144 1854.22,351.168 
  1887.83,330.302 1919.75,310.244 1950.44,291.296 1979.42,273.618 2006.47,256.18 2033.14,239.707 2058.34,223.947 1651.72,477.113 1695.17,450.072 1736.54,424.425 
  1696.02,449.647 1737.19,423.917 1620.34,496.712 1665.19,468.879 1707.77,442.377 1748.31,417.673 510.946,1187.71 608.149,1126.98 701.044,1069.08 789.624,1013.79 
  874.194,961.037 954.898,910.616 1032.03,862.659 1105.39,816.884 1175.41,773.304 1242.08,731.77 1305.62,693.326 1364.43,657.147 1419.77,621.281 1474.63,586.889 
  1527.24,554.035 1577.5,522.732 1625.39,492.847 1671.1,464.285 1714.8,437.234 1756.18,411.483 1795.57,386.878 1833.21,363.403 1869.12,341.105 1903.23,319.826 
  1935.78,299.724 1966.53,280.673 1995.67,262.407 2023.61,244.985 2050.27,228.556 2075.4,212.942 2099.28,197.964 2122.2,183.74 2143.95,170.852 2163.67,158.536 
  1990.03,266.894 2016.75,249.435 1779.51,397.349 1817.19,373.915 1182.01,768.978 1144.54,792.851 1017.74,871.461 1046.04,855.13 1116.91,809.61 1186.54,766.181 
  1252.98,724.749 1316.36,685.24 1376.79,647.546 1434.46,611.672 813.01,999.448 896.141,946.847 976.605,896.961 1052.92,849.163 1126.04,803.83 1195.38,760.465 
  1261.72,719.136 1324.94,679.703 1385.26,642.28 1442.51,606.623 1497.06,572.706 1548.94,540.37 1598.41,509.613 1572.94,525.621 1620.97,495.639 1666.83,467.761 
  1709.48,440.645 1750.96,415.446 1789.51,390.779 1827.24,367.824 1862.35,345.473 1896.55,324.233 1929.04,303.847 1960.22,284.552 1989.74,266.223 2017.78,248.686 
  2044.6,232.074 2070.02,216.115 2094.43,200.988 2117.57,186.595 2139.59,173.168 2160.13,160.281 2179.84,147.93 2198.73,136.229 2216.63,124.967 2233.86,114.306 
  2250.17,104.845 2264.64,95.2138 2279.38,86.1857 1818.41,373.293 1853.99,351.147 1887.87,329.997 1920.22,309.83 1951.07,290.514 1980.62,273.953 2005.95,256.532 
  2032.6,239.999 2057.89,224.203 2082.06,208.982 2105.34,195.198 2126.43,181.638 1782.43,395.334 1820.27,372.295 1121.18,807.525 1189.73,764.811 1255.07,723.955 
  1317.57,685.126 1376.97,648.076 1433.65,612.898 1487.46,579.026 1405.92,630.3 1460.84,595.743 1513.7,562.784 1564.12,531.957 1611.28,501.867 1657.31,473.236 
  1132.6,800.526 1200.44,758.093 1265.35,717.68 1327.17,679.958 1384.87,643.199 1441.11,608.095 1494.81,574.797 1545.74,544.109 1592.69,515.576 1636.33,486.279 
  1681.15,458.715 721.419,1056.11 717.185,1058.8 805.346,1003.66 889.696,951.182 969.974,901.218 1046.41,853.599 1119.25,808.341 1188.48,765.201 1052.47,850.037 
  1124.7,804.752 1193.97,761.606 1259.97,720.362 1323.07,682.347 1381.22,644.829 1438.61,609.556 1492.57,575.793 1544.22,543.674 474.475,1209.27 575.175,1146.48 
  671.222,1086.75 762.597,1029.74 849.805,975.56 932.682,923.622 1012.13,873.973 1088.08,826.977 1159.97,782.006 1228.77,739.817 918.202,933.189 997.499,883.64 
  1073.3,836.4 1145.56,791.365 1214.45,748.27 1280.38,707.196 1343.21,668.087 1403.03,630.895 1459.93,595.372 1514.27,561.637 1565.87,529.309 1615.33,498.618 
  1219.95,745.129 1285.18,704.098 1235.89,735.268 1300.26,695.021 1361.83,656.651 1420.53,620.122 1476.41,585.435 1529.47,552.415 1579.98,521.076 1627.92,491.169 
  1673.67,462.604 1717.37,435.452 1758.9,409.278 1798.94,384.467 1836.9,360.806 1307.68,690.342 1368.99,652.199 1427.34,615.94 1482.8,581.448 1535.57,548.231 
  1586.38,516.91 1563.13,531.421 1612.1,501.045 1658.56,472.218 1702.66,444.532 1455.96,598.655 1509.24,565.105 1560.57,533.226 1609.34,503.076 1655.46,474.098 
  1699.79,446.627 1332.51,675.033 1392.41,637.718 1449.49,602.203 1503.82,569.091 1554.47,536.834 1603.82,506.251 1156.03,785.352 1223.65,743.051 1288.36,703.418 
  1348.99,665.073 1407.64,628.722 1168,778.517 1234.11,736.581 878.061,957.963 430.062,1237.3 532.292,1173.49 307.515,1313.37 415.928,1245.95 519.057,1181.54 
  617.591,1120.03 711.683,1061.31 801.504,1005.53 886.838,952.656 967.719,901.993 1045.22,854.264 984.336,891.755 1060.88,844.066 1133.83,798.543 1203.47,755.12 
  1269.9,713.693 1333.27,674.122 1393.8,636.45 982.218,893.331 1058.47,845.62 1131.46,800.17 1149.78,788.717 685.205,1078.03 775.929,1021.49 862.423,967.468 
  945.061,916.291 981.885,893.233 1058.62,845.389 1131.81,799.625 1201.82,756.109 1268.38,714.62 1331.85,675.246 1122.77,805.425 1192.94,761.589 1019.09,870.183 
  1093.88,823.4 1116.99,809.161 719.248,1057.45 807.415,1002.5 891.478,950.495 971.025,900.257 753.817,1035.23 841.402,980.557 925.038,928.505 1004.66,879.58 
  448.682,1225.8 495.196,1196.71 594.387,1134.49 689.563,1075.12 780.384,1019.02 866.202,965.146 948.613,913.668 1027.36,864.506 1102.56,817.725 1174.13,773.337 
  1242.03,731.052 1306.71,692.602 1365.53,655.983 1421.55,619.716 1477.03,584.628 1530.7,552.477 1579.89,520.884 1628.21,490.719 1674.36,461.96 1718.35,434.558 
  1760.27,408.899 1799.52,384.093 1837.47,361.726 1871.68,339.277 1906.02,317.873 1938.77,297.432 1970.04,277.983 1999.79,259.611 1409.04,627.411 1465.26,592.323 
  1518.93,558.991 1569.92,527.184 1618.58,496.933 1664.85,468.014 1709.09,440.521 1751.15,414.548 1790.88,389.835 1828.68,366.132 1864.94,343.552 1899.48,322.096 
  1932.31,301.56 1963.72,282.224 1819.37,372.318 1855.48,349.703 1890.08,328.17 1338.57,671.628 1397.62,634.656 1454.17,599.499 1507.95,566.025 1559.16,534.238 
  1607.79,503.748 1208.7,752.513 1273.88,711.856 1336.08,673.066 1395.42,636.124 1451.93,601.467 1504.94,568.006 1360.66,657.979 1418.5,622.226 1081.57,831.471 
  1153.1,787.391 1220.53,745.005 1285.37,704.549 953.527,911.29 1031,863.145 1104.65,817.008 1175.22,773.619 1241.6,731.651 1007,877.912 1082.06,830.893 
  1153.98,786.142 1222.44,743.566 1287.57,703.394 1349.02,664.372 1408.72,627.333 1465.38,592.111 1519.26,558.478 1570.71,526.622 1619.44,496.1 1666.13,467.135 
  614.398,1122.6 707.748,1064.15 797.169,1008.56 882.202,955.143 963.916,904.257 1041.76,855.792 1115.9,809.682 1186.43,765.98 1253.28,724.277 1317.08,684.564 
  1377.83,646.629 1435.86,610.437 1491.22,575.96 1543.96,543.182 1594.1,512.208 1641.49,482.766 1686.52,454.407 1729.91,427.65 1546.48,541.977 1595.95,511.162 
  1643.09,481.808 1687.99,454.483 1729.79,427.881 1035.67,859.774 1109.8,813.563 1180.49,769.722 611.09,1127.21 700.692,1068.37 760.488,1031.2 582.159,1141.9 
  678.233,1082.63 768.89,1026.68 
  "/>
<polyline clip-path="url(#clip702)" style="stroke:#3da44d; stroke-linecap:butt; stroke-linejoin:round; stroke-width:4; stroke-opacity:1; fill:none" points="
  352.569,1354.79 546.181,1228.22 739.793,1101.65 933.406,975.087 1127.02,848.521 1320.63,721.955 1514.24,595.389 1707.85,468.822 1901.47,342.256 2095.08,215.69 
  2288.69,89.1237 
  "/>
<path clip-path="url(#clip700)" d="
M1781 1377.32 L2282.6 1377.32 L2282.6 1169.96 L1781 1169.96  Z
  " fill="#ffffff" fill-rule="evenodd" fill-opacity="1"/>
<polyline clip-path="url(#clip700)" style="stroke:#000000; stroke-linecap:butt; stroke-linejoin:round; stroke-width:4; stroke-opacity:1; fill:none" points="
  1781,1377.32 2282.6,1377.32 2282.6,1169.96 1781,1169.96 1781,1377.32 
  "/>
<polyline clip-path="url(#clip700)" style="stroke:#009af9; stroke-linecap:butt; stroke-linejoin:round; stroke-width:4; stroke-opacity:1; fill:none" stroke-dasharray="2, 4" points="
  1805,1221.8 1949,1221.8 
  "/>
<path clip-path="url(#clip700)" d="M1977.68 1222.57 L1977.68 1235.23 L1985.18 1235.23 Q1988.95 1235.23 1990.75 1233.68 Q1992.58 1232.11 1992.58 1228.89 Q1992.58 1225.65 1990.75 1224.12 Q1988.95 1222.57 1985.18 1222.57 L1977.68 1222.57 M1977.68 1208.36 L1977.68 1218.77 L1984.6 1218.77 Q1988.02 1218.77 1989.69 1217.5 Q1991.38 1216.21 1991.38 1213.57 Q1991.38 1210.95 1989.69 1209.65 Q1988.02 1208.36 1984.6 1208.36 L1977.68 1208.36 M1973 1204.52 L1984.94 1204.52 Q1990.29 1204.52 1993.18 1206.74 Q1996.08 1208.96 1996.08 1213.06 Q1996.08 1216.23 1994.6 1218.1 Q1993.12 1219.98 1990.24 1220.44 Q1993.69 1221.18 1995.59 1223.54 Q1997.51 1225.88 1997.51 1229.4 Q1997.51 1234.03 1994.37 1236.55 Q1991.22 1239.08 1985.41 1239.08 L1973 1239.08 L1973 1204.52 Z" fill="#000000" fill-rule="evenodd" fill-opacity="1" /><path clip-path="url(#clip700)" d="M2017.12 1226.04 Q2011.96 1226.04 2009.97 1227.22 Q2007.98 1228.4 2007.98 1231.25 Q2007.98 1233.52 2009.46 1234.86 Q2010.96 1236.18 2013.53 1236.18 Q2017.07 1236.18 2019.2 1233.68 Q2021.36 1231.16 2021.36 1226.99 L2021.36 1226.04 L2017.12 1226.04 M2025.62 1224.28 L2025.62 1239.08 L2021.36 1239.08 L2021.36 1235.14 Q2019.9 1237.5 2017.72 1238.64 Q2015.55 1239.75 2012.4 1239.75 Q2008.42 1239.75 2006.06 1237.52 Q2003.72 1235.28 2003.72 1231.53 Q2003.72 1227.15 2006.63 1224.93 Q2009.57 1222.71 2015.38 1222.71 L2021.36 1222.71 L2021.36 1222.29 Q2021.36 1219.35 2019.41 1217.76 Q2017.49 1216.14 2013.99 1216.14 Q2011.77 1216.14 2009.67 1216.67 Q2007.56 1217.2 2005.62 1218.27 L2005.62 1214.33 Q2007.95 1213.43 2010.15 1212.99 Q2012.35 1212.52 2014.43 1212.52 Q2020.06 1212.52 2022.84 1215.44 Q2025.62 1218.36 2025.62 1224.28 Z" fill="#000000" fill-rule="evenodd" fill-opacity="1" /><path clip-path="url(#clip700)" d="M2051.45 1217.08 L2051.45 1203.06 L2055.71 1203.06 L2055.71 1239.08 L2051.45 1239.08 L2051.45 1235.19 Q2050.11 1237.5 2048.05 1238.64 Q2046.01 1239.75 2043.14 1239.75 Q2038.44 1239.75 2035.48 1236 Q2032.54 1232.25 2032.54 1226.14 Q2032.54 1220.02 2035.48 1216.27 Q2038.44 1212.52 2043.14 1212.52 Q2046.01 1212.52 2048.05 1213.66 Q2050.11 1214.77 2051.45 1217.08 M2036.93 1226.14 Q2036.93 1230.83 2038.86 1233.52 Q2040.8 1236.18 2044.18 1236.18 Q2047.56 1236.18 2049.5 1233.52 Q2051.45 1230.83 2051.45 1226.14 Q2051.45 1221.44 2049.5 1218.77 Q2047.56 1216.09 2044.18 1216.09 Q2040.8 1216.09 2038.86 1218.77 Q2036.93 1221.44 2036.93 1226.14 Z" fill="#000000" fill-rule="evenodd" fill-opacity="1" /><path clip-path="url(#clip700)" d="M2100.45 1205.65 L2100.45 1210.21 Q2097.79 1208.94 2095.43 1208.31 Q2093.07 1207.69 2090.87 1207.69 Q2087.05 1207.69 2084.97 1209.17 Q2082.91 1210.65 2082.91 1213.38 Q2082.91 1215.67 2084.27 1216.85 Q2085.66 1218.01 2089.5 1218.73 L2092.33 1219.31 Q2097.56 1220.3 2100.04 1222.83 Q2102.54 1225.33 2102.54 1229.54 Q2102.54 1234.56 2099.16 1237.15 Q2095.8 1239.75 2089.3 1239.75 Q2086.84 1239.75 2084.06 1239.19 Q2081.31 1238.64 2078.35 1237.55 L2078.35 1232.73 Q2081.19 1234.33 2083.93 1235.14 Q2086.66 1235.95 2089.3 1235.95 Q2093.3 1235.95 2095.48 1234.38 Q2097.65 1232.8 2097.65 1229.89 Q2097.65 1227.34 2096.08 1225.9 Q2094.53 1224.47 2090.96 1223.75 L2088.11 1223.2 Q2082.88 1222.15 2080.55 1219.93 Q2078.21 1217.71 2078.21 1213.75 Q2078.21 1209.17 2081.43 1206.53 Q2084.67 1203.89 2090.34 1203.89 Q2092.77 1203.89 2095.29 1204.33 Q2097.81 1204.77 2100.45 1205.65 Z" fill="#000000" fill-rule="evenodd" fill-opacity="1" /><path clip-path="url(#clip700)" d="M2113.86 1205.79 L2113.86 1213.15 L2122.63 1213.15 L2122.63 1216.46 L2113.86 1216.46 L2113.86 1230.53 Q2113.86 1233.7 2114.71 1234.61 Q2115.59 1235.51 2118.25 1235.51 L2122.63 1235.51 L2122.63 1239.08 L2118.25 1239.08 Q2113.32 1239.08 2111.45 1237.25 Q2109.57 1235.39 2109.57 1230.53 L2109.57 1216.46 L2106.45 1216.46 L2106.45 1213.15 L2109.57 1213.15 L2109.57 1205.79 L2113.86 1205.79 Z" fill="#000000" fill-rule="evenodd" fill-opacity="1" /><path clip-path="url(#clip700)" d="M2140.01 1226.04 Q2134.85 1226.04 2132.86 1227.22 Q2130.87 1228.4 2130.87 1231.25 Q2130.87 1233.52 2132.35 1234.86 Q2133.86 1236.18 2136.42 1236.18 Q2139.97 1236.18 2142.1 1233.68 Q2144.25 1231.16 2144.25 1226.99 L2144.25 1226.04 L2140.01 1226.04 M2148.51 1224.28 L2148.51 1239.08 L2144.25 1239.08 L2144.25 1235.14 Q2142.79 1237.5 2140.61 1238.64 Q2138.44 1239.75 2135.29 1239.75 Q2131.31 1239.75 2128.95 1237.52 Q2126.61 1235.28 2126.61 1231.53 Q2126.61 1227.15 2129.53 1224.93 Q2132.47 1222.71 2138.28 1222.71 L2144.25 1222.71 L2144.25 1222.29 Q2144.25 1219.35 2142.3 1217.76 Q2140.38 1216.14 2136.89 1216.14 Q2134.67 1216.14 2132.56 1216.67 Q2130.45 1217.2 2128.51 1218.27 L2128.51 1214.33 Q2130.85 1213.43 2133.05 1212.99 Q2135.24 1212.52 2137.33 1212.52 Q2142.95 1212.52 2145.73 1215.44 Q2148.51 1218.36 2148.51 1224.28 Z" fill="#000000" fill-rule="evenodd" fill-opacity="1" /><path clip-path="url(#clip700)" d="M2161.49 1205.79 L2161.49 1213.15 L2170.27 1213.15 L2170.27 1216.46 L2161.49 1216.46 L2161.49 1230.53 Q2161.49 1233.7 2162.35 1234.61 Q2163.23 1235.51 2165.89 1235.51 L2170.27 1235.51 L2170.27 1239.08 L2165.89 1239.08 Q2160.96 1239.08 2159.09 1237.25 Q2157.21 1235.39 2157.21 1230.53 L2157.21 1216.46 L2154.09 1216.46 L2154.09 1213.15 L2157.21 1213.15 L2157.21 1205.79 L2161.49 1205.79 Z" fill="#000000" fill-rule="evenodd" fill-opacity="1" /><path clip-path="url(#clip700)" d="M2198.04 1225.05 L2198.04 1227.13 L2178.46 1227.13 Q2178.74 1231.53 2181.1 1233.84 Q2183.48 1236.14 2187.72 1236.14 Q2190.17 1236.14 2192.47 1235.53 Q2194.78 1234.93 2197.05 1233.73 L2197.05 1237.76 Q2194.76 1238.73 2192.35 1239.24 Q2189.94 1239.75 2187.47 1239.75 Q2181.26 1239.75 2177.63 1236.14 Q2174.02 1232.52 2174.02 1226.37 Q2174.02 1220 2177.44 1216.27 Q2180.89 1212.52 2186.73 1212.52 Q2191.96 1212.52 2194.99 1215.9 Q2198.04 1219.26 2198.04 1225.05 M2193.79 1223.8 Q2193.74 1220.3 2191.82 1218.22 Q2189.92 1216.14 2186.77 1216.14 Q2183.21 1216.14 2181.05 1218.15 Q2178.92 1220.16 2178.6 1223.82 L2193.79 1223.8 Z" fill="#000000" fill-rule="evenodd" fill-opacity="1" /><polyline clip-path="url(#clip700)" style="stroke:#e26f46; stroke-linecap:butt; stroke-linejoin:round; stroke-width:4; stroke-opacity:1; fill:none" stroke-dasharray="2, 4" points="
  1805,1273.64 1949,1273.64 
  "/>
<path clip-path="url(#clip700)" d="M1998.56 1285.98 L1998.56 1276.7 L1990.92 1276.7 L1990.92 1272.86 L2003.18 1272.86 L2003.18 1287.7 Q2000.48 1289.62 1997.21 1290.61 Q1993.95 1291.59 1990.24 1291.59 Q1982.14 1291.59 1977.56 1286.86 Q1973 1282.12 1973 1273.67 Q1973 1265.2 1977.56 1260.48 Q1982.14 1255.73 1990.24 1255.73 Q1993.62 1255.73 1996.66 1256.56 Q1999.71 1257.4 2002.28 1259.02 L2002.28 1263.99 Q1999.69 1261.8 1996.77 1260.68 Q1993.86 1259.57 1990.64 1259.57 Q1984.3 1259.57 1981.1 1263.11 Q1977.93 1266.66 1977.93 1273.67 Q1977.93 1280.66 1981.1 1284.2 Q1984.3 1287.74 1990.64 1287.74 Q1993.12 1287.74 1995.06 1287.33 Q1997 1286.89 1998.56 1285.98 Z" fill="#000000" fill-rule="evenodd" fill-opacity="1" /><path clip-path="url(#clip700)" d="M2021.59 1267.98 Q2018.16 1267.98 2016.17 1270.66 Q2014.18 1273.32 2014.18 1277.98 Q2014.18 1282.63 2016.15 1285.31 Q2018.14 1287.98 2021.59 1287.98 Q2024.99 1287.98 2026.98 1285.29 Q2028.97 1282.61 2028.97 1277.98 Q2028.97 1273.37 2026.98 1270.68 Q2024.99 1267.98 2021.59 1267.98 M2021.59 1264.36 Q2027.14 1264.36 2030.31 1267.98 Q2033.49 1271.59 2033.49 1277.98 Q2033.49 1284.34 2030.31 1287.98 Q2027.14 1291.59 2021.59 1291.59 Q2016.01 1291.59 2012.84 1287.98 Q2009.69 1284.34 2009.69 1277.98 Q2009.69 1271.59 2012.84 1267.98 Q2016.01 1264.36 2021.59 1264.36 Z" fill="#000000" fill-rule="evenodd" fill-opacity="1" /><path clip-path="url(#clip700)" d="M2050.59 1267.98 Q2047.17 1267.98 2045.18 1270.66 Q2043.18 1273.32 2043.18 1277.98 Q2043.18 1282.63 2045.15 1285.31 Q2047.14 1287.98 2050.59 1287.98 Q2053.99 1287.98 2055.99 1285.29 Q2057.98 1282.61 2057.98 1277.98 Q2057.98 1273.37 2055.99 1270.68 Q2053.99 1267.98 2050.59 1267.98 M2050.59 1264.36 Q2056.15 1264.36 2059.32 1267.98 Q2062.49 1271.59 2062.49 1277.98 Q2062.49 1284.34 2059.32 1287.98 Q2056.15 1291.59 2050.59 1291.59 Q2045.01 1291.59 2041.84 1287.98 Q2038.69 1284.34 2038.69 1277.98 Q2038.69 1271.59 2041.84 1267.98 Q2045.01 1264.36 2050.59 1264.36 Z" fill="#000000" fill-rule="evenodd" fill-opacity="1" /><path clip-path="url(#clip700)" d="M2086.61 1268.92 L2086.61 1254.9 L2090.87 1254.9 L2090.87 1290.92 L2086.61 1290.92 L2086.61 1287.03 Q2085.27 1289.34 2083.21 1290.48 Q2081.17 1291.59 2078.3 1291.59 Q2073.6 1291.59 2070.64 1287.84 Q2067.7 1284.09 2067.7 1277.98 Q2067.7 1271.86 2070.64 1268.11 Q2073.6 1264.36 2078.3 1264.36 Q2081.17 1264.36 2083.21 1265.5 Q2085.27 1266.61 2086.61 1268.92 M2072.1 1277.98 Q2072.1 1282.67 2074.02 1285.36 Q2075.96 1288.02 2079.34 1288.02 Q2082.72 1288.02 2084.67 1285.36 Q2086.61 1282.67 2086.61 1277.98 Q2086.61 1273.28 2084.67 1270.61 Q2082.72 1267.93 2079.34 1267.93 Q2075.96 1267.93 2074.02 1270.61 Q2072.1 1273.28 2072.1 1277.98 Z" fill="#000000" fill-rule="evenodd" fill-opacity="1" /><path clip-path="url(#clip700)" d="M2135.61 1257.49 L2135.61 1262.05 Q2132.95 1260.78 2130.59 1260.15 Q2128.23 1259.53 2126.03 1259.53 Q2122.21 1259.53 2120.13 1261.01 Q2118.07 1262.49 2118.07 1265.22 Q2118.07 1267.51 2119.43 1268.69 Q2120.82 1269.85 2124.67 1270.57 L2127.49 1271.15 Q2132.72 1272.14 2135.2 1274.67 Q2137.7 1277.17 2137.7 1281.38 Q2137.7 1286.4 2134.32 1288.99 Q2130.96 1291.59 2124.46 1291.59 Q2122 1291.59 2119.23 1291.03 Q2116.47 1290.48 2113.51 1289.39 L2113.51 1284.57 Q2116.36 1286.17 2119.09 1286.98 Q2121.82 1287.79 2124.46 1287.79 Q2128.46 1287.79 2130.64 1286.22 Q2132.81 1284.64 2132.81 1281.73 Q2132.81 1279.18 2131.24 1277.74 Q2129.69 1276.31 2126.12 1275.59 L2123.28 1275.04 Q2118.05 1273.99 2115.71 1271.77 Q2113.37 1269.55 2113.37 1265.59 Q2113.37 1261.01 2116.59 1258.37 Q2119.83 1255.73 2125.5 1255.73 Q2127.93 1255.73 2130.45 1256.17 Q2132.98 1256.61 2135.61 1257.49 Z" fill="#000000" fill-rule="evenodd" fill-opacity="1" /><path clip-path="url(#clip700)" d="M2149.02 1257.63 L2149.02 1264.99 L2157.79 1264.99 L2157.79 1268.3 L2149.02 1268.3 L2149.02 1282.37 Q2149.02 1285.54 2149.87 1286.45 Q2150.75 1287.35 2153.42 1287.35 L2157.79 1287.35 L2157.79 1290.92 L2153.42 1290.92 Q2148.48 1290.92 2146.61 1289.09 Q2144.73 1287.23 2144.73 1282.37 L2144.73 1268.3 L2141.61 1268.3 L2141.61 1264.99 L2144.73 1264.99 L2144.73 1257.63 L2149.02 1257.63 Z" fill="#000000" fill-rule="evenodd" fill-opacity="1" /><path clip-path="url(#clip700)" d="M2175.17 1277.88 Q2170.01 1277.88 2168.02 1279.06 Q2166.03 1280.24 2166.03 1283.09 Q2166.03 1285.36 2167.51 1286.7 Q2169.02 1288.02 2171.59 1288.02 Q2175.13 1288.02 2177.26 1285.52 Q2179.41 1283 2179.41 1278.83 L2179.41 1277.88 L2175.17 1277.88 M2183.67 1276.12 L2183.67 1290.92 L2179.41 1290.92 L2179.41 1286.98 Q2177.95 1289.34 2175.78 1290.48 Q2173.6 1291.59 2170.45 1291.59 Q2166.47 1291.59 2164.11 1289.36 Q2161.77 1287.12 2161.77 1283.37 Q2161.77 1278.99 2164.69 1276.77 Q2167.63 1274.55 2173.44 1274.55 L2179.41 1274.55 L2179.41 1274.13 Q2179.41 1271.19 2177.47 1269.6 Q2175.54 1267.98 2172.05 1267.98 Q2169.83 1267.98 2167.72 1268.51 Q2165.61 1269.04 2163.67 1270.11 L2163.67 1266.17 Q2166.01 1265.27 2168.21 1264.83 Q2170.41 1264.36 2172.49 1264.36 Q2178.11 1264.36 2180.89 1267.28 Q2183.67 1270.2 2183.67 1276.12 Z" fill="#000000" fill-rule="evenodd" fill-opacity="1" /><path clip-path="url(#clip700)" d="M2196.66 1257.63 L2196.66 1264.99 L2205.43 1264.99 L2205.43 1268.3 L2196.66 1268.3 L2196.66 1282.37 Q2196.66 1285.54 2197.51 1286.45 Q2198.39 1287.35 2201.05 1287.35 L2205.43 1287.35 L2205.43 1290.92 L2201.05 1290.92 Q2196.12 1290.92 2194.25 1289.09 Q2192.37 1287.23 2192.37 1282.37 L2192.37 1268.3 L2189.25 1268.3 L2189.25 1264.99 L2192.37 1264.99 L2192.37 1257.63 L2196.66 1257.63 Z" fill="#000000" fill-rule="evenodd" fill-opacity="1" /><path clip-path="url(#clip700)" d="M2233.21 1276.89 L2233.21 1278.97 L2213.62 1278.97 Q2213.9 1283.37 2216.26 1285.68 Q2218.65 1287.98 2222.88 1287.98 Q2225.34 1287.98 2227.63 1287.37 Q2229.94 1286.77 2232.21 1285.57 L2232.21 1289.6 Q2229.92 1290.57 2227.51 1291.08 Q2225.1 1291.59 2222.63 1291.59 Q2216.42 1291.59 2212.79 1287.98 Q2209.18 1284.36 2209.18 1278.21 Q2209.18 1271.84 2212.6 1268.11 Q2216.05 1264.36 2221.89 1264.36 Q2227.12 1264.36 2230.15 1267.74 Q2233.21 1271.1 2233.21 1276.89 M2228.95 1275.64 Q2228.9 1272.14 2226.98 1270.06 Q2225.08 1267.98 2221.93 1267.98 Q2218.37 1267.98 2216.22 1269.99 Q2214.09 1272 2213.76 1275.66 L2228.95 1275.64 Z" fill="#000000" fill-rule="evenodd" fill-opacity="1" /><polyline clip-path="url(#clip700)" style="stroke:#3da44d; stroke-linecap:butt; stroke-linejoin:round; stroke-width:4; stroke-opacity:1; fill:none" points="
  1805,1325.48 1949,1325.48 
  "/>
<path clip-path="url(#clip700)" d="M1988.6 1312.27 L1976.8 1330.72 L1988.6 1330.72 L1988.6 1312.27 M1987.37 1308.2 L1993.25 1308.2 L1993.25 1330.72 L1998.18 1330.72 L1998.18 1334.61 L1993.25 1334.61 L1993.25 1342.76 L1988.6 1342.76 L1988.6 1334.61 L1973 1334.61 L1973 1330.09 L1987.37 1308.2 Z" fill="#000000" fill-rule="evenodd" fill-opacity="1" /><path clip-path="url(#clip700)" d="M2005.96 1308.2 L2024.32 1308.2 L2024.32 1312.13 L2010.24 1312.13 L2010.24 1320.6 Q2011.26 1320.26 2012.28 1320.09 Q2013.3 1319.91 2014.32 1319.91 Q2020.11 1319.91 2023.49 1323.08 Q2026.87 1326.25 2026.87 1331.67 Q2026.87 1337.25 2023.39 1340.35 Q2019.92 1343.43 2013.6 1343.43 Q2011.43 1343.43 2009.16 1343.06 Q2006.91 1342.69 2004.5 1341.95 L2004.5 1337.25 Q2006.59 1338.38 2008.81 1338.94 Q2011.03 1339.49 2013.51 1339.49 Q2017.51 1339.49 2019.85 1337.38 Q2022.19 1335.28 2022.19 1331.67 Q2022.19 1328.06 2019.85 1325.95 Q2017.51 1323.84 2013.51 1323.84 Q2011.63 1323.84 2009.76 1324.26 Q2007.91 1324.68 2005.96 1325.56 L2005.96 1308.2 Z" fill="#000000" fill-rule="evenodd" fill-opacity="1" /><path clip-path="url(#clip700)" d="M2067.61 1320.76 L2067.61 1306.74 L2071.86 1306.74 L2071.86 1342.76 L2067.61 1342.76 L2067.61 1338.87 Q2066.26 1341.18 2064.2 1342.32 Q2062.17 1343.43 2059.3 1343.43 Q2054.6 1343.43 2051.63 1339.68 Q2048.69 1335.93 2048.69 1329.82 Q2048.69 1323.7 2051.63 1319.95 Q2054.6 1316.2 2059.3 1316.2 Q2062.17 1316.2 2064.2 1317.34 Q2066.26 1318.45 2067.61 1320.76 M2053.09 1329.82 Q2053.09 1334.51 2055.01 1337.2 Q2056.96 1339.86 2060.34 1339.86 Q2063.72 1339.86 2065.66 1337.2 Q2067.61 1334.51 2067.61 1329.82 Q2067.61 1325.12 2065.66 1322.45 Q2063.72 1319.77 2060.34 1319.77 Q2056.96 1319.77 2055.01 1322.45 Q2053.09 1325.12 2053.09 1329.82 Z" fill="#000000" fill-rule="evenodd" fill-opacity="1" /><path clip-path="url(#clip700)" d="M2102.81 1328.73 L2102.81 1330.81 L2083.23 1330.81 Q2083.51 1335.21 2085.87 1337.52 Q2088.25 1339.82 2092.49 1339.82 Q2094.94 1339.82 2097.24 1339.21 Q2099.55 1338.61 2101.82 1337.41 L2101.82 1341.44 Q2099.53 1342.41 2097.12 1342.92 Q2094.71 1343.43 2092.24 1343.43 Q2086.03 1343.43 2082.4 1339.82 Q2078.79 1336.2 2078.79 1330.05 Q2078.79 1323.68 2082.21 1319.95 Q2085.66 1316.2 2091.49 1316.2 Q2096.73 1316.2 2099.76 1319.58 Q2102.81 1322.94 2102.81 1328.73 M2098.55 1327.48 Q2098.51 1323.98 2096.59 1321.9 Q2094.69 1319.82 2091.54 1319.82 Q2087.98 1319.82 2085.82 1321.83 Q2083.69 1323.84 2083.37 1327.5 L2098.55 1327.48 Z" fill="#000000" fill-rule="evenodd" fill-opacity="1" /><path clip-path="url(#clip700)" d="M2126.86 1329.49 Q2126.86 1324.86 2124.94 1322.32 Q2123.05 1319.77 2119.6 1319.77 Q2116.17 1319.77 2114.25 1322.32 Q2112.35 1324.86 2112.35 1329.49 Q2112.35 1334.1 2114.25 1336.64 Q2116.17 1339.19 2119.6 1339.19 Q2123.05 1339.19 2124.94 1336.64 Q2126.86 1334.1 2126.86 1329.49 M2131.12 1339.54 Q2131.12 1346.16 2128.18 1349.38 Q2125.24 1352.62 2119.18 1352.62 Q2116.93 1352.62 2114.94 1352.27 Q2112.95 1351.95 2111.08 1351.25 L2111.08 1347.11 Q2112.95 1348.13 2114.78 1348.61 Q2116.61 1349.1 2118.51 1349.1 Q2122.7 1349.1 2124.78 1346.9 Q2126.86 1344.72 2126.86 1340.3 L2126.86 1338.2 Q2125.55 1340.49 2123.49 1341.62 Q2121.42 1342.76 2118.55 1342.76 Q2113.79 1342.76 2110.87 1339.12 Q2107.95 1335.49 2107.95 1329.49 Q2107.95 1323.47 2110.87 1319.84 Q2113.79 1316.2 2118.55 1316.2 Q2121.42 1316.2 2123.49 1317.34 Q2125.55 1318.47 2126.86 1320.76 L2126.86 1316.83 L2131.12 1316.83 L2131.12 1339.54 Z" fill="#000000" fill-rule="evenodd" fill-opacity="1" /><path clip-path="url(#clip700)" d="M2154.92 1320.81 Q2154.2 1320.39 2153.35 1320.21 Q2152.51 1320 2151.49 1320 Q2147.88 1320 2145.94 1322.36 Q2144.02 1324.7 2144.02 1329.1 L2144.02 1342.76 L2139.73 1342.76 L2139.73 1316.83 L2144.02 1316.83 L2144.02 1320.86 Q2145.36 1318.5 2147.51 1317.36 Q2149.67 1316.2 2152.74 1316.2 Q2153.18 1316.2 2153.72 1316.27 Q2154.25 1316.32 2154.9 1316.44 L2154.92 1320.81 Z" fill="#000000" fill-rule="evenodd" fill-opacity="1" /><path clip-path="url(#clip700)" d="M2180.52 1328.73 L2180.52 1330.81 L2160.94 1330.81 Q2161.22 1335.21 2163.58 1337.52 Q2165.96 1339.82 2170.2 1339.82 Q2172.65 1339.82 2174.94 1339.21 Q2177.26 1338.61 2179.53 1337.41 L2179.53 1341.44 Q2177.23 1342.41 2174.83 1342.92 Q2172.42 1343.43 2169.94 1343.43 Q2163.74 1343.43 2160.11 1339.82 Q2156.49 1336.2 2156.49 1330.05 Q2156.49 1323.68 2159.92 1319.95 Q2163.37 1316.2 2169.2 1316.2 Q2174.43 1316.2 2177.47 1319.58 Q2180.52 1322.94 2180.52 1328.73 M2176.26 1327.48 Q2176.22 1323.98 2174.29 1321.9 Q2172.4 1319.82 2169.25 1319.82 Q2165.68 1319.82 2163.53 1321.83 Q2161.4 1323.84 2161.08 1327.5 L2176.26 1327.48 Z" fill="#000000" fill-rule="evenodd" fill-opacity="1" /><path clip-path="url(#clip700)" d="M2209.69 1328.73 L2209.69 1330.81 L2190.11 1330.81 Q2190.38 1335.21 2192.74 1337.52 Q2195.13 1339.82 2199.36 1339.82 Q2201.82 1339.82 2204.11 1339.21 Q2206.42 1338.61 2208.69 1337.41 L2208.69 1341.44 Q2206.4 1342.41 2203.99 1342.92 Q2201.59 1343.43 2199.11 1343.43 Q2192.91 1343.43 2189.27 1339.82 Q2185.66 1336.2 2185.66 1330.05 Q2185.66 1323.68 2189.09 1319.95 Q2192.54 1316.2 2198.37 1316.2 Q2203.6 1316.2 2206.63 1319.58 Q2209.69 1322.94 2209.69 1328.73 M2205.43 1327.48 Q2205.38 1323.98 2203.46 1321.9 Q2201.56 1319.82 2198.42 1319.82 Q2194.85 1319.82 2192.7 1321.83 Q2190.57 1323.84 2190.24 1327.5 L2205.43 1327.48 Z" fill="#000000" fill-rule="evenodd" fill-opacity="1" /><path clip-path="url(#clip700)" d="M2233.21 1317.59 L2233.21 1321.62 Q2231.4 1320.7 2229.46 1320.23 Q2227.51 1319.77 2225.43 1319.77 Q2222.26 1319.77 2220.66 1320.74 Q2219.09 1321.71 2219.09 1323.66 Q2219.09 1325.14 2220.22 1326 Q2221.35 1326.83 2224.78 1327.59 L2226.24 1327.92 Q2230.78 1328.89 2232.67 1330.67 Q2234.6 1332.43 2234.6 1335.6 Q2234.6 1339.21 2231.73 1341.32 Q2228.88 1343.43 2223.88 1343.43 Q2221.79 1343.43 2219.53 1343.01 Q2217.28 1342.62 2214.78 1341.81 L2214.78 1337.41 Q2217.14 1338.63 2219.43 1339.26 Q2221.73 1339.86 2223.97 1339.86 Q2226.98 1339.86 2228.6 1338.84 Q2230.22 1337.8 2230.22 1335.93 Q2230.22 1334.19 2229.04 1333.26 Q2227.88 1332.34 2223.92 1331.48 L2222.44 1331.14 Q2218.48 1330.3 2216.73 1328.59 Q2214.97 1326.85 2214.97 1323.84 Q2214.97 1320.19 2217.56 1318.2 Q2220.15 1316.2 2224.92 1316.2 Q2227.28 1316.2 2229.36 1316.55 Q2231.45 1316.9 2233.21 1317.59 Z" fill="#000000" fill-rule="evenodd" fill-opacity="1" /></svg>
