<?xml version="1.0" encoding="utf-8"?>
<svg xmlns="http://www.w3.org/2000/svg" xmlns:xlink="http://www.w3.org/1999/xlink" width="600" height="400" viewBox="0 0 2400 1600">
<defs>
  <clipPath id="clip740">
    <rect x="0" y="0" width="2400" height="1600"/>
  </clipPath>
</defs>
<path clip-path="url(#clip740)" d="
M0 1600 L2400 1600 L2400 0 L0 0  Z
  " fill="#ffffff" fill-rule="evenodd" fill-opacity="1"/>
<defs>
  <clipPath id="clip741">
    <rect x="480" y="0" width="1681" height="1600"/>
  </clipPath>
</defs>
<defs>
  <clipPath id="clip742">
    <rect x="247" y="47" width="2106" height="1377"/>
  </clipPath>
</defs>
<path clip-path="url(#clip740)" d="
M279.704 1423.18 L2352.76 1423.18 L2352.76 47.2441 L279.704 47.2441  Z
  " fill="#ffffff" fill-rule="evenodd" fill-opacity="1"/>
<defs>
  <clipPath id="clip743">
    <rect x="279" y="47" width="2074" height="1377"/>
  </clipPath>
</defs>
<polyline clip-path="url(#clip743)" style="stroke:#000000; stroke-linecap:butt; stroke-linejoin:round; stroke-width:2; stroke-opacity:0.1; fill:none" points="
  573.44,1423.18 573.44,47.2441 
  "/>
<polyline clip-path="url(#clip743)" style="stroke:#000000; stroke-linecap:butt; stroke-linejoin:round; stroke-width:2; stroke-opacity:0.1; fill:none" points="
  954.822,1423.18 954.822,47.2441 
  "/>
<polyline clip-path="url(#clip743)" style="stroke:#000000; stroke-linecap:butt; stroke-linejoin:round; stroke-width:2; stroke-opacity:0.1; fill:none" points="
  1336.2,1423.18 1336.2,47.2441 
  "/>
<polyline clip-path="url(#clip743)" style="stroke:#000000; stroke-linecap:butt; stroke-linejoin:round; stroke-width:2; stroke-opacity:0.1; fill:none" points="
  1717.59,1423.18 1717.59,47.2441 
  "/>
<polyline clip-path="url(#clip743)" style="stroke:#000000; stroke-linecap:butt; stroke-linejoin:round; stroke-width:2; stroke-opacity:0.1; fill:none" points="
  2098.97,1423.18 2098.97,47.2441 
  "/>
<polyline clip-path="url(#clip740)" style="stroke:#000000; stroke-linecap:butt; stroke-linejoin:round; stroke-width:4; stroke-opacity:1; fill:none" points="
  279.704,1423.18 2352.76,1423.18 
  "/>
<polyline clip-path="url(#clip740)" style="stroke:#000000; stroke-linecap:butt; stroke-linejoin:round; stroke-width:4; stroke-opacity:1; fill:none" points="
  573.44,1423.18 573.44,1404.28 
  "/>
<polyline clip-path="url(#clip740)" style="stroke:#000000; stroke-linecap:butt; stroke-linejoin:round; stroke-width:4; stroke-opacity:1; fill:none" points="
  954.822,1423.18 954.822,1404.28 
  "/>
<polyline clip-path="url(#clip740)" style="stroke:#000000; stroke-linecap:butt; stroke-linejoin:round; stroke-width:4; stroke-opacity:1; fill:none" points="
  1336.2,1423.18 1336.2,1404.28 
  "/>
<polyline clip-path="url(#clip740)" style="stroke:#000000; stroke-linecap:butt; stroke-linejoin:round; stroke-width:4; stroke-opacity:1; fill:none" points="
  1717.59,1423.18 1717.59,1404.28 
  "/>
<polyline clip-path="url(#clip740)" style="stroke:#000000; stroke-linecap:butt; stroke-linejoin:round; stroke-width:4; stroke-opacity:1; fill:none" points="
  2098.97,1423.18 2098.97,1404.28 
  "/>
<path clip-path="url(#clip740)" d="M525.559 1481.64 L533.197 1481.64 L533.197 1455.28 L524.887 1456.95 L524.887 1452.69 L533.151 1451.02 L537.827 1451.02 L537.827 1481.64 L545.466 1481.64 L545.466 1485.58 L525.559 1485.58 L525.559 1481.64 Z" fill="#000000" fill-rule="evenodd" fill-opacity="1" /><path clip-path="url(#clip740)" d="M555.72 1481.64 L563.359 1481.64 L563.359 1455.28 L555.049 1456.95 L555.049 1452.69 L563.313 1451.02 L567.989 1451.02 L567.989 1481.64 L575.628 1481.64 L575.628 1485.58 L555.72 1485.58 L555.72 1481.64 Z" fill="#000000" fill-rule="evenodd" fill-opacity="1" /><path clip-path="url(#clip740)" d="M585.072 1479.7 L589.956 1479.7 L589.956 1485.58 L585.072 1485.58 L585.072 1479.7 Z" fill="#000000" fill-rule="evenodd" fill-opacity="1" /><path clip-path="url(#clip740)" d="M610.141 1469.17 Q606.808 1469.17 604.887 1470.95 Q602.989 1472.73 602.989 1475.86 Q602.989 1478.98 604.887 1480.77 Q606.808 1482.55 610.141 1482.55 Q613.475 1482.55 615.396 1480.77 Q617.317 1478.96 617.317 1475.86 Q617.317 1472.73 615.396 1470.95 Q613.498 1469.17 610.141 1469.17 M605.465 1467.18 Q602.456 1466.44 600.766 1464.38 Q599.1 1462.32 599.1 1459.35 Q599.1 1455.21 602.04 1452.8 Q605.003 1450.39 610.141 1450.39 Q615.303 1450.39 618.243 1452.8 Q621.183 1455.21 621.183 1459.35 Q621.183 1462.32 619.493 1464.38 Q617.827 1466.44 614.84 1467.18 Q618.22 1467.96 620.095 1470.26 Q621.993 1472.55 621.993 1475.86 Q621.993 1480.88 618.914 1483.57 Q615.859 1486.25 610.141 1486.25 Q604.424 1486.25 601.345 1483.57 Q598.29 1480.88 598.29 1475.86 Q598.29 1472.55 600.188 1470.26 Q602.086 1467.96 605.465 1467.18 M603.753 1459.79 Q603.753 1462.48 605.419 1463.98 Q607.109 1465.49 610.141 1465.49 Q613.151 1465.49 614.84 1463.98 Q616.553 1462.48 616.553 1459.79 Q616.553 1457.11 614.84 1455.6 Q613.151 1454.1 610.141 1454.1 Q607.109 1454.1 605.419 1455.6 Q603.753 1457.11 603.753 1459.79 Z" fill="#000000" fill-rule="evenodd" fill-opacity="1" /><path clip-path="url(#clip740)" d="M906.894 1481.64 L914.533 1481.64 L914.533 1455.28 L906.223 1456.95 L906.223 1452.69 L914.487 1451.02 L919.162 1451.02 L919.162 1481.64 L926.801 1481.64 L926.801 1485.58 L906.894 1485.58 L906.894 1481.64 Z" fill="#000000" fill-rule="evenodd" fill-opacity="1" /><path clip-path="url(#clip740)" d="M940.273 1481.64 L956.593 1481.64 L956.593 1485.58 L934.648 1485.58 L934.648 1481.64 Q937.31 1478.89 941.894 1474.26 Q946.5 1469.61 947.681 1468.27 Q949.926 1465.74 950.806 1464.01 Q951.709 1462.25 951.709 1460.56 Q951.709 1457.8 949.764 1456.07 Q947.843 1454.33 944.741 1454.33 Q942.542 1454.33 940.088 1455.09 Q937.658 1455.86 934.88 1457.41 L934.88 1452.69 Q937.704 1451.55 940.158 1450.97 Q942.611 1450.39 944.648 1450.39 Q950.019 1450.39 953.213 1453.08 Q956.408 1455.77 956.408 1460.26 Q956.408 1462.39 955.597 1464.31 Q954.81 1466.2 952.704 1468.8 Q952.125 1469.47 949.023 1472.69 Q945.922 1475.88 940.273 1481.64 Z" fill="#000000" fill-rule="evenodd" fill-opacity="1" /><path clip-path="url(#clip740)" d="M966.408 1479.7 L971.292 1479.7 L971.292 1485.58 L966.408 1485.58 L966.408 1479.7 Z" fill="#000000" fill-rule="evenodd" fill-opacity="1" /><path clip-path="url(#clip740)" d="M991.477 1454.1 Q987.866 1454.1 986.037 1457.66 Q984.232 1461.2 984.232 1468.33 Q984.232 1475.44 986.037 1479.01 Q987.866 1482.55 991.477 1482.55 Q995.111 1482.55 996.917 1479.01 Q998.745 1475.44 998.745 1468.33 Q998.745 1461.2 996.917 1457.66 Q995.111 1454.1 991.477 1454.1 M991.477 1450.39 Q997.287 1450.39 1000.34 1455 Q1003.42 1459.58 1003.42 1468.33 Q1003.42 1477.06 1000.34 1481.67 Q997.287 1486.25 991.477 1486.25 Q985.667 1486.25 982.588 1481.67 Q979.532 1477.06 979.532 1468.33 Q979.532 1459.58 982.588 1455 Q985.667 1450.39 991.477 1450.39 Z" fill="#000000" fill-rule="evenodd" fill-opacity="1" /><path clip-path="url(#clip740)" d="M1289.07 1481.64 L1296.71 1481.64 L1296.71 1455.28 L1288.4 1456.95 L1288.4 1452.69 L1296.67 1451.02 L1301.34 1451.02 L1301.34 1481.64 L1308.98 1481.64 L1308.98 1485.58 L1289.07 1485.58 L1289.07 1481.64 Z" fill="#000000" fill-rule="evenodd" fill-opacity="1" /><path clip-path="url(#clip740)" d="M1322.45 1481.64 L1338.77 1481.64 L1338.77 1485.58 L1316.83 1485.58 L1316.83 1481.64 Q1319.49 1478.89 1324.07 1474.26 Q1328.68 1469.61 1329.86 1468.27 Q1332.11 1465.74 1332.99 1464.01 Q1333.89 1462.25 1333.89 1460.56 Q1333.89 1457.8 1331.94 1456.07 Q1330.02 1454.33 1326.92 1454.33 Q1324.72 1454.33 1322.27 1455.09 Q1319.84 1455.86 1317.06 1457.41 L1317.06 1452.69 Q1319.88 1451.55 1322.34 1450.97 Q1324.79 1450.39 1326.83 1450.39 Q1332.2 1450.39 1335.39 1453.08 Q1338.59 1455.77 1338.59 1460.26 Q1338.59 1462.39 1337.78 1464.31 Q1336.99 1466.2 1334.88 1468.8 Q1334.31 1469.47 1331.2 1472.69 Q1328.1 1475.88 1322.45 1481.64 Z" fill="#000000" fill-rule="evenodd" fill-opacity="1" /><path clip-path="url(#clip740)" d="M1348.59 1479.7 L1353.47 1479.7 L1353.47 1485.58 L1348.59 1485.58 L1348.59 1479.7 Z" fill="#000000" fill-rule="evenodd" fill-opacity="1" /><path clip-path="url(#clip740)" d="M1367.68 1481.64 L1384 1481.64 L1384 1485.58 L1362.06 1485.58 L1362.06 1481.64 Q1364.72 1478.89 1369.31 1474.26 Q1373.91 1469.61 1375.09 1468.27 Q1377.34 1465.74 1378.22 1464.01 Q1379.12 1462.25 1379.12 1460.56 Q1379.12 1457.8 1377.18 1456.07 Q1375.25 1454.33 1372.15 1454.33 Q1369.95 1454.33 1367.5 1455.09 Q1365.07 1455.86 1362.29 1457.41 L1362.29 1452.69 Q1365.12 1451.55 1367.57 1450.97 Q1370.02 1450.39 1372.06 1450.39 Q1377.43 1450.39 1380.62 1453.08 Q1383.82 1455.77 1383.82 1460.26 Q1383.82 1462.39 1383.01 1464.31 Q1382.22 1466.2 1380.12 1468.8 Q1379.54 1469.47 1376.43 1472.69 Q1373.33 1475.88 1367.68 1481.64 Z" fill="#000000" fill-rule="evenodd" fill-opacity="1" /><path clip-path="url(#clip740)" d="M1669.41 1481.64 L1677.05 1481.64 L1677.05 1455.28 L1668.74 1456.95 L1668.74 1452.69 L1677.01 1451.02 L1681.68 1451.02 L1681.68 1481.64 L1689.32 1481.64 L1689.32 1485.58 L1669.41 1485.58 L1669.41 1481.64 Z" fill="#000000" fill-rule="evenodd" fill-opacity="1" /><path clip-path="url(#clip740)" d="M1702.79 1481.64 L1719.11 1481.64 L1719.11 1485.58 L1697.17 1485.58 L1697.17 1481.64 Q1699.83 1478.89 1704.41 1474.26 Q1709.02 1469.61 1710.2 1468.27 Q1712.45 1465.74 1713.33 1464.01 Q1714.23 1462.25 1714.23 1460.56 Q1714.23 1457.8 1712.28 1456.07 Q1710.36 1454.33 1707.26 1454.33 Q1705.06 1454.33 1702.61 1455.09 Q1700.18 1455.86 1697.4 1457.41 L1697.4 1452.69 Q1700.22 1451.55 1702.68 1450.97 Q1705.13 1450.39 1707.17 1450.39 Q1712.54 1450.39 1715.73 1453.08 Q1718.93 1455.77 1718.93 1460.26 Q1718.93 1462.39 1718.12 1464.31 Q1717.33 1466.2 1715.22 1468.8 Q1714.65 1469.47 1711.54 1472.69 Q1708.44 1475.88 1702.79 1481.64 Z" fill="#000000" fill-rule="evenodd" fill-opacity="1" /><path clip-path="url(#clip740)" d="M1728.93 1479.7 L1733.81 1479.7 L1733.81 1485.58 L1728.93 1485.58 L1728.93 1479.7 Z" fill="#000000" fill-rule="evenodd" fill-opacity="1" /><path clip-path="url(#clip740)" d="M1756.84 1455.09 L1745.04 1473.54 L1756.84 1473.54 L1756.84 1455.09 M1755.62 1451.02 L1761.5 1451.02 L1761.5 1473.54 L1766.43 1473.54 L1766.43 1477.43 L1761.5 1477.43 L1761.5 1485.58 L1756.84 1485.58 L1756.84 1477.43 L1741.24 1477.43 L1741.24 1472.92 L1755.62 1451.02 Z" fill="#000000" fill-rule="evenodd" fill-opacity="1" /><path clip-path="url(#clip740)" d="M2050.96 1481.64 L2058.6 1481.64 L2058.6 1455.28 L2050.29 1456.95 L2050.29 1452.69 L2058.55 1451.02 L2063.23 1451.02 L2063.23 1481.64 L2070.87 1481.64 L2070.87 1485.58 L2050.96 1485.58 L2050.96 1481.64 Z" fill="#000000" fill-rule="evenodd" fill-opacity="1" /><path clip-path="url(#clip740)" d="M2084.34 1481.64 L2100.66 1481.64 L2100.66 1485.58 L2078.71 1485.58 L2078.71 1481.64 Q2081.37 1478.89 2085.96 1474.26 Q2090.56 1469.61 2091.74 1468.27 Q2093.99 1465.74 2094.87 1464.01 Q2095.77 1462.25 2095.77 1460.56 Q2095.77 1457.8 2093.83 1456.07 Q2091.91 1454.33 2088.81 1454.33 Q2086.61 1454.33 2084.15 1455.09 Q2081.72 1455.86 2078.94 1457.41 L2078.94 1452.69 Q2081.77 1451.55 2084.22 1450.97 Q2086.68 1450.39 2088.71 1450.39 Q2094.08 1450.39 2097.28 1453.08 Q2100.47 1455.77 2100.47 1460.26 Q2100.47 1462.39 2099.66 1464.31 Q2098.87 1466.2 2096.77 1468.8 Q2096.19 1469.47 2093.09 1472.69 Q2089.99 1475.88 2084.34 1481.64 Z" fill="#000000" fill-rule="evenodd" fill-opacity="1" /><path clip-path="url(#clip740)" d="M2110.47 1479.7 L2115.36 1479.7 L2115.36 1485.58 L2110.47 1485.58 L2110.47 1479.7 Z" fill="#000000" fill-rule="evenodd" fill-opacity="1" /><path clip-path="url(#clip740)" d="M2136.12 1466.44 Q2132.97 1466.44 2131.12 1468.59 Q2129.29 1470.74 2129.29 1474.49 Q2129.29 1478.22 2131.12 1480.39 Q2132.97 1482.55 2136.12 1482.55 Q2139.27 1482.55 2141.1 1480.39 Q2142.95 1478.22 2142.95 1474.49 Q2142.95 1470.74 2141.1 1468.59 Q2139.27 1466.44 2136.12 1466.44 M2145.4 1451.78 L2145.4 1456.04 Q2143.64 1455.21 2141.84 1454.77 Q2140.05 1454.33 2138.3 1454.33 Q2133.67 1454.33 2131.21 1457.45 Q2128.78 1460.58 2128.43 1466.9 Q2129.8 1464.89 2131.86 1463.82 Q2133.92 1462.73 2136.4 1462.73 Q2141.61 1462.73 2144.62 1465.9 Q2147.65 1469.05 2147.65 1474.49 Q2147.65 1479.82 2144.5 1483.03 Q2141.35 1486.25 2136.12 1486.25 Q2130.12 1486.25 2126.95 1481.67 Q2123.78 1477.06 2123.78 1468.33 Q2123.78 1460.14 2127.67 1455.28 Q2131.56 1450.39 2138.11 1450.39 Q2139.87 1450.39 2141.65 1450.74 Q2143.46 1451.09 2145.4 1451.78 Z" fill="#000000" fill-rule="evenodd" fill-opacity="1" /><path clip-path="url(#clip740)" d="M1330.51 1525.32 Q1330.51 1525.74 1330.41 1526.03 Q1330.31 1526.28 1330.09 1526.41 Q1329.86 1526.54 1329.73 1526.57 Q1329.6 1526.61 1329.31 1526.64 Q1327.93 1526.77 1326.96 1526.99 Q1326.03 1527.22 1323.71 1528.38 Q1321.42 1529.54 1318.56 1531.63 L1307.03 1540.55 L1305.1 1542.06 Q1305.1 1542.16 1305.16 1542.35 Q1305.22 1542.51 1305.29 1542.74 Q1305.39 1542.93 1305.42 1543 L1314.79 1564.61 Q1315.53 1566.35 1316.43 1566.96 Q1317.33 1567.57 1319.36 1567.6 Q1319.68 1567.6 1319.81 1567.64 Q1319.97 1567.64 1320.2 1567.7 Q1320.46 1567.73 1320.55 1567.89 Q1320.68 1568.05 1320.68 1568.31 Q1320.68 1569.63 1319.49 1569.63 Q1318.75 1569.63 1316.24 1569.54 Q1313.73 1569.44 1313.02 1569.44 Q1311.7 1569.44 1308.99 1569.54 Q1306.29 1569.63 1304.97 1569.63 Q1304.03 1569.63 1304.03 1568.89 Q1304.03 1568.28 1304.26 1567.99 Q1304.52 1567.67 1304.74 1567.64 Q1304.97 1567.6 1305.48 1567.6 Q1305.87 1567.6 1306.29 1567.57 Q1306.74 1567.51 1307.38 1567.35 Q1308.06 1567.15 1308.48 1566.7 Q1308.93 1566.22 1308.93 1565.54 Q1308.93 1564.99 1308.12 1563.22 L1300.49 1545.48 L1290.67 1553.14 L1288.03 1563.51 Q1287.96 1563.9 1287.8 1564.58 Q1287.64 1565.25 1287.51 1565.74 Q1287.41 1566.22 1287.41 1566.41 Q1287.41 1566.83 1287.67 1567.09 Q1287.96 1567.35 1288.67 1567.47 Q1289.38 1567.57 1289.93 1567.6 Q1290.51 1567.6 1291.7 1567.6 Q1293.18 1567.6 1293.44 1567.86 Q1293.57 1568.02 1293.57 1568.31 Q1293.57 1568.76 1293.44 1569.08 Q1293.31 1569.37 1293.05 1569.47 Q1292.83 1569.57 1292.66 1569.6 Q1292.5 1569.63 1292.25 1569.63 Q1291.57 1569.63 1290.12 1569.57 Q1288.7 1569.5 1287.96 1569.5 L1283.74 1569.44 L1275.37 1569.63 Q1274.37 1569.63 1274.37 1568.83 Q1274.37 1568.22 1274.63 1567.96 Q1274.89 1567.67 1275.18 1567.64 Q1275.47 1567.6 1276.21 1567.6 Q1277.82 1567.6 1278.78 1567.51 Q1279.75 1567.41 1280.36 1567.28 Q1281.01 1567.12 1281.33 1566.67 Q1281.68 1566.22 1281.84 1565.83 Q1282 1565.41 1282.23 1564.48 L1291.05 1529.05 Q1291.31 1527.99 1291.31 1527.83 Q1291.31 1527.28 1290.99 1527.09 Q1290.7 1526.86 1289.86 1526.77 Q1288.25 1526.64 1287.03 1526.64 Q1286.22 1526.64 1285.9 1526.61 Q1285.61 1526.57 1285.35 1526.41 Q1285.13 1526.22 1285.13 1525.83 Q1285.13 1524.58 1286.45 1524.58 L1294.95 1524.77 L1303.39 1524.58 Q1304.32 1524.58 1304.32 1525.32 Q1304.32 1526.25 1303.87 1526.44 Q1303.45 1526.64 1302.07 1526.64 Q1299.65 1526.64 1298.56 1526.96 Q1297.49 1527.25 1297.17 1527.76 Q1296.88 1528.25 1296.53 1529.66 L1291.25 1550.82 L1316.98 1531.05 Q1319.36 1529.05 1319.36 1528.02 Q1319.36 1527.35 1318.88 1527.06 Q1318.43 1526.73 1317.3 1526.64 Q1316.5 1526.51 1316.5 1525.9 Q1316.5 1525.28 1316.72 1524.99 Q1316.98 1524.67 1317.17 1524.64 Q1317.4 1524.58 1317.75 1524.58 Q1318.94 1524.58 1321.42 1524.67 Q1323.9 1524.77 1325.1 1524.77 Q1325.9 1524.77 1327.48 1524.67 Q1329.06 1524.58 1329.77 1524.58 Q1330.12 1524.58 1330.31 1524.83 Q1330.51 1525.06 1330.51 1525.32 Z" fill="#000000" fill-rule="evenodd" fill-opacity="1" /><path clip-path="url(#clip740)" d="M1351.19 1567.42 Q1351.19 1568.05 1350.89 1568.21 Q1350.6 1568.34 1349.79 1568.34 L1345.46 1568.34 L1342.03 1581.96 Q1341.76 1583.15 1341.76 1584.17 Q1341.76 1585.3 1342.1 1585.79 Q1342.46 1586.29 1343.2 1586.29 Q1344.67 1586.29 1346.25 1584.96 Q1347.85 1583.63 1349.2 1580.38 Q1349.38 1579.95 1349.47 1579.86 Q1349.58 1579.75 1349.88 1579.75 Q1350.44 1579.75 1350.44 1580.2 Q1350.44 1580.36 1350.13 1581.08 Q1349.83 1581.8 1349.18 1582.86 Q1348.55 1583.92 1347.71 1584.91 Q1346.9 1585.9 1345.66 1586.63 Q1344.42 1587.32 1343.09 1587.32 Q1341.22 1587.32 1340.03 1586.13 Q1338.85 1584.94 1338.85 1583.06 Q1338.85 1582.46 1339.33 1580.52 Q1339.8 1578.56 1342.37 1568.34 L1338.29 1568.34 Q1337.73 1568.34 1337.5 1568.32 Q1337.3 1568.3 1337.14 1568.18 Q1337 1568.05 1337 1567.78 Q1337 1567.35 1337.19 1567.17 Q1337.37 1566.97 1337.59 1566.94 Q1337.84 1566.9 1338.4 1566.9 L1342.73 1566.9 L1344.53 1559.57 Q1344.71 1558.85 1345.17 1558.45 Q1345.64 1558.02 1345.91 1557.97 Q1346.18 1557.9 1346.38 1557.9 Q1346.99 1557.9 1347.35 1558.24 Q1347.71 1558.56 1347.71 1559.14 Q1347.71 1559.46 1345.82 1566.9 L1349.88 1566.9 Q1350.4 1566.9 1350.6 1566.92 Q1350.82 1566.94 1351 1567.06 Q1351.19 1567.17 1351.19 1567.42 Z" fill="#000000" fill-rule="evenodd" fill-opacity="1" /><polyline clip-path="url(#clip743)" style="stroke:#000000; stroke-linecap:butt; stroke-linejoin:round; stroke-width:2; stroke-opacity:0.1; fill:none" points="
  279.704,1379.34 2352.76,1379.34 
  "/>
<polyline clip-path="url(#clip743)" style="stroke:#000000; stroke-linecap:butt; stroke-linejoin:round; stroke-width:2; stroke-opacity:0.1; fill:none" points="
  279.704,1110.11 2352.76,1110.11 
  "/>
<polyline clip-path="url(#clip743)" style="stroke:#000000; stroke-linecap:butt; stroke-linejoin:round; stroke-width:2; stroke-opacity:0.1; fill:none" points="
  279.704,840.882 2352.76,840.882 
  "/>
<polyline clip-path="url(#clip743)" style="stroke:#000000; stroke-linecap:butt; stroke-linejoin:round; stroke-width:2; stroke-opacity:0.1; fill:none" points="
  279.704,571.652 2352.76,571.652 
  "/>
<polyline clip-path="url(#clip743)" style="stroke:#000000; stroke-linecap:butt; stroke-linejoin:round; stroke-width:2; stroke-opacity:0.1; fill:none" points="
  279.704,302.422 2352.76,302.422 
  "/>
<polyline clip-path="url(#clip740)" style="stroke:#000000; stroke-linecap:butt; stroke-linejoin:round; stroke-width:4; stroke-opacity:1; fill:none" points="
  279.704,1423.18 279.704,47.2441 
  "/>
<polyline clip-path="url(#clip740)" style="stroke:#000000; stroke-linecap:butt; stroke-linejoin:round; stroke-width:4; stroke-opacity:1; fill:none" points="
  279.704,1379.34 298.602,1379.34 
  "/>
<polyline clip-path="url(#clip740)" style="stroke:#000000; stroke-linecap:butt; stroke-linejoin:round; stroke-width:4; stroke-opacity:1; fill:none" points="
  279.704,1110.11 298.602,1110.11 
  "/>
<polyline clip-path="url(#clip740)" style="stroke:#000000; stroke-linecap:butt; stroke-linejoin:round; stroke-width:4; stroke-opacity:1; fill:none" points="
  279.704,840.882 298.602,840.882 
  "/>
<polyline clip-path="url(#clip740)" style="stroke:#000000; stroke-linecap:butt; stroke-linejoin:round; stroke-width:4; stroke-opacity:1; fill:none" points="
  279.704,571.652 298.602,571.652 
  "/>
<polyline clip-path="url(#clip740)" style="stroke:#000000; stroke-linecap:butt; stroke-linejoin:round; stroke-width:4; stroke-opacity:1; fill:none" points="
  279.704,302.422 298.602,302.422 
  "/>
<path clip-path="url(#clip740)" d="M127.2 1365.14 Q123.589 1365.14 121.76 1368.7 Q119.955 1372.25 119.955 1379.38 Q119.955 1386.48 121.76 1390.05 Q123.589 1393.59 127.2 1393.59 Q130.834 1393.59 132.64 1390.05 Q134.468 1386.48 134.468 1379.38 Q134.468 1372.25 132.64 1368.7 Q130.834 1365.14 127.2 1365.14 M127.2 1361.44 Q133.01 1361.44 136.066 1366.04 Q139.144 1370.63 139.144 1379.38 Q139.144 1388.1 136.066 1392.71 Q133.01 1397.29 127.2 1397.29 Q121.39 1397.29 118.311 1392.71 Q115.256 1388.1 115.256 1379.38 Q115.256 1370.63 118.311 1366.04 Q121.39 1361.44 127.2 1361.44 Z" fill="#000000" fill-rule="evenodd" fill-opacity="1" /><path clip-path="url(#clip740)" d="M147.362 1390.74 L152.246 1390.74 L152.246 1396.62 L147.362 1396.62 L147.362 1390.74 Z" fill="#000000" fill-rule="evenodd" fill-opacity="1" /><path clip-path="url(#clip740)" d="M166.459 1392.69 L182.778 1392.69 L182.778 1396.62 L160.834 1396.62 L160.834 1392.69 Q163.496 1389.93 168.079 1385.3 Q172.686 1380.65 173.866 1379.31 Q176.112 1376.78 176.991 1375.05 Q177.894 1373.29 177.894 1371.6 Q177.894 1368.84 175.95 1367.11 Q174.028 1365.37 170.927 1365.37 Q168.727 1365.37 166.274 1366.14 Q163.843 1366.9 161.065 1368.45 L161.065 1363.73 Q163.89 1362.59 166.343 1362.01 Q168.797 1361.44 170.834 1361.44 Q176.204 1361.44 179.399 1364.12 Q182.593 1366.81 182.593 1371.3 Q182.593 1373.43 181.783 1375.35 Q180.996 1377.25 178.889 1379.84 Q178.311 1380.51 175.209 1383.73 Q172.107 1386.92 166.459 1392.69 Z" fill="#000000" fill-rule="evenodd" fill-opacity="1" /><path clip-path="url(#clip740)" d="M192.732 1395.9 L192.732 1391.64 Q194.491 1392.48 196.297 1392.92 Q198.102 1393.36 199.838 1393.36 Q204.468 1393.36 206.899 1390.26 Q209.352 1387.13 209.699 1380.79 Q208.357 1382.78 206.297 1383.84 Q204.237 1384.91 201.737 1384.91 Q196.551 1384.91 193.519 1381.78 Q190.51 1378.63 190.51 1373.2 Q190.51 1367.87 193.658 1364.65 Q196.806 1361.44 202.037 1361.44 Q208.033 1361.44 211.181 1366.04 Q214.352 1370.63 214.352 1379.38 Q214.352 1387.55 210.463 1392.43 Q206.598 1397.29 200.047 1397.29 Q198.287 1397.29 196.482 1396.95 Q194.676 1396.6 192.732 1395.9 M202.037 1381.25 Q205.186 1381.25 207.014 1379.1 Q208.866 1376.95 208.866 1373.2 Q208.866 1369.47 207.014 1367.32 Q205.186 1365.14 202.037 1365.14 Q198.889 1365.14 197.037 1367.32 Q195.209 1369.47 195.209 1373.2 Q195.209 1376.95 197.037 1379.1 Q198.889 1381.25 202.037 1381.25 Z" fill="#000000" fill-rule="evenodd" fill-opacity="1" /><path clip-path="url(#clip740)" d="M222.801 1362.06 L241.158 1362.06 L241.158 1366 L227.084 1366 L227.084 1374.47 Q228.102 1374.12 229.121 1373.96 Q230.139 1373.77 231.158 1373.77 Q236.945 1373.77 240.324 1376.95 Q243.704 1380.12 243.704 1385.53 Q243.704 1391.11 240.232 1394.21 Q236.76 1397.29 230.44 1397.29 Q228.264 1397.29 225.996 1396.92 Q223.75 1396.55 221.343 1395.81 L221.343 1391.11 Q223.426 1392.25 225.648 1392.8 Q227.871 1393.36 230.347 1393.36 Q234.352 1393.36 236.69 1391.25 Q239.028 1389.14 239.028 1385.53 Q239.028 1381.92 236.69 1379.82 Q234.352 1377.71 230.347 1377.71 Q228.473 1377.71 226.598 1378.13 Q224.746 1378.54 222.801 1379.42 L222.801 1362.06 Z" fill="#000000" fill-rule="evenodd" fill-opacity="1" /><path clip-path="url(#clip740)" d="M126.205 1095.91 Q122.593 1095.91 120.765 1099.47 Q118.959 1103.02 118.959 1110.15 Q118.959 1117.25 120.765 1120.82 Q122.593 1124.36 126.205 1124.36 Q129.839 1124.36 131.644 1120.82 Q133.473 1117.25 133.473 1110.15 Q133.473 1103.02 131.644 1099.47 Q129.839 1095.91 126.205 1095.91 M126.205 1092.21 Q132.015 1092.21 135.07 1096.81 Q138.149 1101.4 138.149 1110.15 Q138.149 1118.87 135.07 1123.48 Q132.015 1128.06 126.205 1128.06 Q120.394 1128.06 117.316 1123.48 Q114.26 1118.87 114.26 1110.15 Q114.26 1101.4 117.316 1096.81 Q120.394 1092.21 126.205 1092.21 Z" fill="#000000" fill-rule="evenodd" fill-opacity="1" /><path clip-path="url(#clip740)" d="M146.366 1121.51 L151.251 1121.51 L151.251 1127.39 L146.366 1127.39 L146.366 1121.51 Z" fill="#000000" fill-rule="evenodd" fill-opacity="1" /><path clip-path="url(#clip740)" d="M175.602 1108.76 Q178.959 1109.47 180.834 1111.74 Q182.732 1114.01 182.732 1117.35 Q182.732 1122.46 179.214 1125.26 Q175.695 1128.06 169.214 1128.06 Q167.038 1128.06 164.723 1127.62 Q162.431 1127.21 159.978 1126.35 L159.978 1121.84 Q161.922 1122.97 164.237 1123.55 Q166.552 1124.13 169.075 1124.13 Q173.473 1124.13 175.764 1122.39 Q178.079 1120.66 178.079 1117.35 Q178.079 1114.29 175.926 1112.58 Q173.797 1110.84 169.977 1110.84 L165.95 1110.84 L165.95 1107 L170.163 1107 Q173.612 1107 175.44 1105.63 Q177.269 1104.24 177.269 1101.65 Q177.269 1098.99 175.371 1097.58 Q173.496 1096.14 169.977 1096.14 Q168.056 1096.14 165.857 1096.56 Q163.658 1096.97 161.019 1097.85 L161.019 1093.69 Q163.681 1092.95 165.996 1092.58 Q168.334 1092.21 170.394 1092.21 Q175.718 1092.21 178.82 1094.64 Q181.922 1097.04 181.922 1101.16 Q181.922 1104.03 180.278 1106.03 Q178.635 1107.99 175.602 1108.76 Z" fill="#000000" fill-rule="evenodd" fill-opacity="1" /><path clip-path="url(#clip740)" d="M201.598 1095.91 Q197.987 1095.91 196.158 1099.47 Q194.352 1103.02 194.352 1110.15 Q194.352 1117.25 196.158 1120.82 Q197.987 1124.36 201.598 1124.36 Q205.232 1124.36 207.037 1120.82 Q208.866 1117.25 208.866 1110.15 Q208.866 1103.02 207.037 1099.47 Q205.232 1095.91 201.598 1095.91 M201.598 1092.21 Q207.408 1092.21 210.463 1096.81 Q213.542 1101.4 213.542 1110.15 Q213.542 1118.87 210.463 1123.48 Q207.408 1128.06 201.598 1128.06 Q195.787 1128.06 192.709 1123.48 Q189.653 1118.87 189.653 1110.15 Q189.653 1101.4 192.709 1096.81 Q195.787 1092.21 201.598 1092.21 Z" fill="#000000" fill-rule="evenodd" fill-opacity="1" /><path clip-path="url(#clip740)" d="M231.76 1095.91 Q228.148 1095.91 226.32 1099.47 Q224.514 1103.02 224.514 1110.15 Q224.514 1117.25 226.32 1120.82 Q228.148 1124.36 231.76 1124.36 Q235.394 1124.36 237.199 1120.82 Q239.028 1117.25 239.028 1110.15 Q239.028 1103.02 237.199 1099.47 Q235.394 1095.91 231.76 1095.91 M231.76 1092.21 Q237.57 1092.21 240.625 1096.81 Q243.704 1101.4 243.704 1110.15 Q243.704 1118.87 240.625 1123.48 Q237.57 1128.06 231.76 1128.06 Q225.949 1128.06 222.871 1123.48 Q219.815 1118.87 219.815 1110.15 Q219.815 1101.4 222.871 1096.81 Q225.949 1092.21 231.76 1092.21 Z" fill="#000000" fill-rule="evenodd" fill-opacity="1" /><path clip-path="url(#clip740)" d="M127.2 826.68 Q123.589 826.68 121.76 830.245 Q119.955 833.787 119.955 840.916 Q119.955 848.023 121.76 851.587 Q123.589 855.129 127.2 855.129 Q130.834 855.129 132.64 851.587 Q134.468 848.023 134.468 840.916 Q134.468 833.787 132.64 830.245 Q130.834 826.68 127.2 826.68 M127.2 822.977 Q133.01 822.977 136.066 827.583 Q139.144 832.166 139.144 840.916 Q139.144 849.643 136.066 854.25 Q133.01 858.833 127.2 858.833 Q121.39 858.833 118.311 854.25 Q115.256 849.643 115.256 840.916 Q115.256 832.166 118.311 827.583 Q121.39 822.977 127.2 822.977 Z" fill="#000000" fill-rule="evenodd" fill-opacity="1" /><path clip-path="url(#clip740)" d="M147.362 852.282 L152.246 852.282 L152.246 858.162 L147.362 858.162 L147.362 852.282 Z" fill="#000000" fill-rule="evenodd" fill-opacity="1" /><path clip-path="url(#clip740)" d="M176.598 839.527 Q179.954 840.245 181.829 842.513 Q183.727 844.782 183.727 848.115 Q183.727 853.231 180.209 856.032 Q176.69 858.833 170.209 858.833 Q168.033 858.833 165.718 858.393 Q163.427 857.976 160.973 857.12 L160.973 852.606 Q162.917 853.74 165.232 854.319 Q167.547 854.898 170.07 854.898 Q174.468 854.898 176.76 853.162 Q179.075 851.425 179.075 848.115 Q179.075 845.06 176.922 843.347 Q174.792 841.611 170.973 841.611 L166.945 841.611 L166.945 837.768 L171.158 837.768 Q174.607 837.768 176.436 836.402 Q178.264 835.014 178.264 832.421 Q178.264 829.759 176.366 828.347 Q174.491 826.912 170.973 826.912 Q169.052 826.912 166.852 827.328 Q164.653 827.745 162.015 828.625 L162.015 824.458 Q164.677 823.717 166.991 823.347 Q169.329 822.977 171.389 822.977 Q176.714 822.977 179.815 825.407 Q182.917 827.814 182.917 831.935 Q182.917 834.805 181.274 836.796 Q179.63 838.763 176.598 839.527 Z" fill="#000000" fill-rule="evenodd" fill-opacity="1" /><path clip-path="url(#clip740)" d="M202.593 826.68 Q198.982 826.68 197.153 830.245 Q195.348 833.787 195.348 840.916 Q195.348 848.023 197.153 851.587 Q198.982 855.129 202.593 855.129 Q206.227 855.129 208.033 851.587 Q209.861 848.023 209.861 840.916 Q209.861 833.787 208.033 830.245 Q206.227 826.68 202.593 826.68 M202.593 822.977 Q208.403 822.977 211.459 827.583 Q214.537 832.166 214.537 840.916 Q214.537 849.643 211.459 854.25 Q208.403 858.833 202.593 858.833 Q196.783 858.833 193.704 854.25 Q190.649 849.643 190.649 840.916 Q190.649 832.166 193.704 827.583 Q196.783 822.977 202.593 822.977 Z" fill="#000000" fill-rule="evenodd" fill-opacity="1" /><path clip-path="url(#clip740)" d="M222.801 823.602 L241.158 823.602 L241.158 827.537 L227.084 827.537 L227.084 836.009 Q228.102 835.662 229.121 835.5 Q230.139 835.314 231.158 835.314 Q236.945 835.314 240.324 838.486 Q243.704 841.657 243.704 847.074 Q243.704 852.652 240.232 855.754 Q236.76 858.833 230.44 858.833 Q228.264 858.833 225.996 858.462 Q223.75 858.092 221.343 857.351 L221.343 852.652 Q223.426 853.787 225.648 854.342 Q227.871 854.898 230.347 854.898 Q234.352 854.898 236.69 852.791 Q239.028 850.685 239.028 847.074 Q239.028 843.463 236.69 841.356 Q234.352 839.25 230.347 839.25 Q228.473 839.25 226.598 839.666 Q224.746 840.083 222.801 840.963 L222.801 823.602 Z" fill="#000000" fill-rule="evenodd" fill-opacity="1" /><path clip-path="url(#clip740)" d="M126.205 557.451 Q122.593 557.451 120.765 561.015 Q118.959 564.557 118.959 571.687 Q118.959 578.793 120.765 582.358 Q122.593 585.899 126.205 585.899 Q129.839 585.899 131.644 582.358 Q133.473 578.793 133.473 571.687 Q133.473 564.557 131.644 561.015 Q129.839 557.451 126.205 557.451 M126.205 553.747 Q132.015 553.747 135.07 558.353 Q138.149 562.937 138.149 571.687 Q138.149 580.413 135.07 585.02 Q132.015 589.603 126.205 589.603 Q120.394 589.603 117.316 585.02 Q114.26 580.413 114.26 571.687 Q114.26 562.937 117.316 558.353 Q120.394 553.747 126.205 553.747 Z" fill="#000000" fill-rule="evenodd" fill-opacity="1" /><path clip-path="url(#clip740)" d="M146.366 583.052 L151.251 583.052 L151.251 588.932 L146.366 588.932 L146.366 583.052 Z" fill="#000000" fill-rule="evenodd" fill-opacity="1" /><path clip-path="url(#clip740)" d="M175.602 570.298 Q178.959 571.015 180.834 573.284 Q182.732 575.552 182.732 578.886 Q182.732 584.001 179.214 586.802 Q175.695 589.603 169.214 589.603 Q167.038 589.603 164.723 589.163 Q162.431 588.747 159.978 587.89 L159.978 583.376 Q161.922 584.511 164.237 585.089 Q166.552 585.668 169.075 585.668 Q173.473 585.668 175.764 583.932 Q178.079 582.196 178.079 578.886 Q178.079 575.83 175.926 574.117 Q173.797 572.381 169.977 572.381 L165.95 572.381 L165.95 568.538 L170.163 568.538 Q173.612 568.538 175.44 567.173 Q177.269 565.784 177.269 563.191 Q177.269 560.529 175.371 559.117 Q173.496 557.682 169.977 557.682 Q168.056 557.682 165.857 558.099 Q163.658 558.515 161.019 559.395 L161.019 555.228 Q163.681 554.488 165.996 554.117 Q168.334 553.747 170.394 553.747 Q175.718 553.747 178.82 556.177 Q181.922 558.585 181.922 562.705 Q181.922 565.575 180.278 567.566 Q178.635 569.534 175.602 570.298 Z" fill="#000000" fill-rule="evenodd" fill-opacity="1" /><path clip-path="url(#clip740)" d="M192.408 584.997 L200.047 584.997 L200.047 558.631 L191.737 560.298 L191.737 556.038 L200 554.372 L204.676 554.372 L204.676 584.997 L212.315 584.997 L212.315 588.932 L192.408 588.932 L192.408 584.997 Z" fill="#000000" fill-rule="evenodd" fill-opacity="1" /><path clip-path="url(#clip740)" d="M231.76 557.451 Q228.148 557.451 226.32 561.015 Q224.514 564.557 224.514 571.687 Q224.514 578.793 226.32 582.358 Q228.148 585.899 231.76 585.899 Q235.394 585.899 237.199 582.358 Q239.028 578.793 239.028 571.687 Q239.028 564.557 237.199 561.015 Q235.394 557.451 231.76 557.451 M231.76 553.747 Q237.57 553.747 240.625 558.353 Q243.704 562.937 243.704 571.687 Q243.704 580.413 240.625 585.02 Q237.57 589.603 231.76 589.603 Q225.949 589.603 222.871 585.02 Q219.815 580.413 219.815 571.687 Q219.815 562.937 222.871 558.353 Q225.949 553.747 231.76 553.747 Z" fill="#000000" fill-rule="evenodd" fill-opacity="1" /><path clip-path="url(#clip740)" d="M127.2 288.221 Q123.589 288.221 121.76 291.786 Q119.955 295.327 119.955 302.457 Q119.955 309.563 121.76 313.128 Q123.589 316.67 127.2 316.67 Q130.834 316.67 132.64 313.128 Q134.468 309.563 134.468 302.457 Q134.468 295.327 132.64 291.786 Q130.834 288.221 127.2 288.221 M127.2 284.517 Q133.01 284.517 136.066 289.124 Q139.144 293.707 139.144 302.457 Q139.144 311.184 136.066 315.79 Q133.01 320.373 127.2 320.373 Q121.39 320.373 118.311 315.79 Q115.256 311.184 115.256 302.457 Q115.256 293.707 118.311 289.124 Q121.39 284.517 127.2 284.517 Z" fill="#000000" fill-rule="evenodd" fill-opacity="1" /><path clip-path="url(#clip740)" d="M147.362 313.822 L152.246 313.822 L152.246 319.702 L147.362 319.702 L147.362 313.822 Z" fill="#000000" fill-rule="evenodd" fill-opacity="1" /><path clip-path="url(#clip740)" d="M176.598 301.068 Q179.954 301.786 181.829 304.054 Q183.727 306.323 183.727 309.656 Q183.727 314.772 180.209 317.572 Q176.69 320.373 170.209 320.373 Q168.033 320.373 165.718 319.934 Q163.427 319.517 160.973 318.66 L160.973 314.147 Q162.917 315.281 165.232 315.86 Q167.547 316.438 170.07 316.438 Q174.468 316.438 176.76 314.702 Q179.075 312.966 179.075 309.656 Q179.075 306.6 176.922 304.887 Q174.792 303.151 170.973 303.151 L166.945 303.151 L166.945 299.309 L171.158 299.309 Q174.607 299.309 176.436 297.943 Q178.264 296.554 178.264 293.961 Q178.264 291.299 176.366 289.887 Q174.491 288.452 170.973 288.452 Q169.052 288.452 166.852 288.869 Q164.653 289.286 162.015 290.165 L162.015 285.999 Q164.677 285.258 166.991 284.887 Q169.329 284.517 171.389 284.517 Q176.714 284.517 179.815 286.948 Q182.917 289.355 182.917 293.475 Q182.917 296.346 181.274 298.336 Q179.63 300.304 176.598 301.068 Z" fill="#000000" fill-rule="evenodd" fill-opacity="1" /><path clip-path="url(#clip740)" d="M193.403 315.767 L201.042 315.767 L201.042 289.401 L192.732 291.068 L192.732 286.809 L200.996 285.142 L205.672 285.142 L205.672 315.767 L213.311 315.767 L213.311 319.702 L193.403 319.702 L193.403 315.767 Z" fill="#000000" fill-rule="evenodd" fill-opacity="1" /><path clip-path="url(#clip740)" d="M222.801 285.142 L241.158 285.142 L241.158 289.077 L227.084 289.077 L227.084 297.549 Q228.102 297.202 229.121 297.04 Q230.139 296.855 231.158 296.855 Q236.945 296.855 240.324 300.026 Q243.704 303.198 243.704 308.614 Q243.704 314.193 240.232 317.295 Q236.76 320.373 230.44 320.373 Q228.264 320.373 225.996 320.003 Q223.75 319.633 221.343 318.892 L221.343 314.193 Q223.426 315.327 225.648 315.883 Q227.871 316.438 230.347 316.438 Q234.352 316.438 236.69 314.332 Q239.028 312.225 239.028 308.614 Q239.028 305.003 236.69 302.897 Q234.352 300.79 230.347 300.79 Q228.473 300.79 226.598 301.207 Q224.746 301.623 222.801 302.503 L222.801 285.142 Z" fill="#000000" fill-rule="evenodd" fill-opacity="1" /><path clip-path="url(#clip740)" d="M21.2773 721.243 Q22.2113 721.243 22.4045 721.662 Q22.5978 722.048 22.5978 723.465 Q22.5978 725.881 22.9198 726.976 Q23.2097 728.039 23.725 728.361 Q24.2081 728.65 25.6251 729.005 L61.2448 737.926 Q61.277 737.926 61.7279 738.022 Q62.1466 738.119 62.372 738.119 Q62.7907 738.119 63.0483 737.861 Q63.306 737.571 63.4348 736.863 Q63.5314 736.154 63.5636 735.607 Q63.5636 735.027 63.5636 733.836 Q63.5636 732.354 63.8213 732.129 Q63.9823 732 64.2722 732 Q64.8841 732 65.2061 732.258 Q65.496 732.483 65.5604 732.708 Q65.5926 732.902 65.5926 733.288 Q65.5926 733.964 65.5282 735.414 Q65.4638 736.863 65.4638 737.604 L65.3994 741.823 L65.5926 750.196 Q65.5926 751.098 64.8519 751.098 Q64.2077 751.098 63.9179 750.873 Q63.628 750.647 63.5958 750.422 Q63.5636 750.164 63.5636 749.52 Q63.5636 746.203 63.2416 745.108 Q62.8873 743.98 61.3736 743.53 L43.1773 738.989 L43.1773 759.085 L61.2448 763.594 Q61.277 763.594 61.7279 763.69 Q62.1466 763.787 62.372 763.787 Q62.7907 763.787 63.0483 763.529 Q63.306 763.24 63.4348 762.531 Q63.5314 761.823 63.5636 761.275 Q63.5636 760.695 63.5636 759.504 Q63.5636 758.022 63.8213 757.765 Q63.9823 757.636 64.2722 757.636 Q64.723 757.636 65.0451 757.765 Q65.3349 757.861 65.4316 758.119 Q65.5282 758.344 65.5604 758.505 Q65.5926 758.666 65.5926 758.956 Q65.5926 759.633 65.5282 761.082 Q65.4638 762.499 65.4638 763.24 L65.3994 767.459 L65.5926 775.832 Q65.5926 776.766 64.8519 776.766 Q64.2077 776.766 63.9501 776.541 Q63.6602 776.315 63.628 776.025 Q63.5636 775.735 63.5636 774.995 Q63.5636 773.384 63.467 772.418 Q63.3704 771.452 63.2416 770.84 Q63.0805 770.196 62.6297 769.874 Q62.1788 769.52 61.7923 769.359 Q61.3736 769.198 60.4397 768.972 L25.0132 760.148 Q23.9504 759.89 23.7894 759.89 Q23.1775 759.89 23.0164 760.277 Q22.8232 760.631 22.7266 761.661 L22.5978 764.174 Q22.5978 764.946 22.5656 765.269 Q22.5334 765.558 22.3723 765.784 Q22.2113 766.009 21.857 766.009 Q21.4062 766.009 21.1163 765.913 Q20.7942 765.784 20.6976 765.558 Q20.601 765.333 20.5688 765.172 Q20.5366 765.011 20.5366 764.753 L20.7298 756.251 L20.5366 747.813 Q20.5366 746.879 21.2773 746.879 Q22.2113 746.879 22.4045 747.298 Q22.5978 747.716 22.5978 749.133 Q22.5978 751.484 22.9198 752.579 Q23.2097 753.674 23.725 754.029 Q24.2403 754.351 25.6251 754.673 L41.1161 758.57 L41.1161 738.441 L25.0132 734.48 Q23.8538 734.222 23.7894 734.222 Q23.1775 734.222 23.0164 734.609 Q22.8232 734.963 22.7266 735.993 L22.5978 738.505 Q22.5978 739.278 22.5656 739.6 Q22.5334 739.89 22.3723 740.148 Q22.2113 740.373 21.857 740.373 Q21.4062 740.373 21.1163 740.277 Q20.7942 740.148 20.6976 739.923 Q20.601 739.697 20.5688 739.536 Q20.5366 739.375 20.5366 739.117 L20.7298 730.615 L20.5366 722.145 Q20.5366 721.243 21.2773 721.243 Z" fill="#000000" fill-rule="evenodd" fill-opacity="1" /><path clip-path="url(#clip740)" d="M63.3787 700.561 Q64.01 700.561 64.1678 700.854 Q64.303 701.148 64.303 701.959 L64.303 706.288 L77.9197 709.714 Q79.1145 709.985 80.129 709.985 Q81.2562 709.985 81.7522 709.647 Q82.2481 709.286 82.2481 708.542 Q82.2481 707.077 80.918 705.499 Q79.5879 703.898 76.3416 702.545 Q75.9133 702.365 75.8231 702.275 Q75.7104 702.162 75.7104 701.869 Q75.7104 701.305 76.1612 701.305 Q76.319 701.305 77.0405 701.621 Q77.7619 701.914 78.8214 702.568 Q79.881 703.199 80.873 704.033 Q81.8649 704.845 82.5863 706.085 Q83.2852 707.325 83.2852 708.655 Q83.2852 710.526 82.0903 711.721 Q80.8955 712.893 79.0243 712.893 Q78.4156 712.893 76.4769 712.42 Q74.5155 711.946 64.303 709.376 L64.303 713.457 Q64.303 714.02 64.2805 714.246 Q64.2579 714.449 64.1452 714.606 Q64.01 714.742 63.7394 714.742 Q63.3111 714.742 63.1307 714.561 Q62.9278 714.381 62.9053 714.156 Q62.8602 713.908 62.8602 713.344 L62.8602 709.015 L55.5334 707.212 Q54.812 707.032 54.4062 706.581 Q53.9778 706.107 53.9327 705.837 Q53.8651 705.566 53.8651 705.363 Q53.8651 704.755 54.2033 704.394 Q54.5189 704.033 55.105 704.033 Q55.4207 704.033 62.8602 705.927 L62.8602 701.869 Q62.8602 701.35 62.8828 701.148 Q62.9053 700.922 63.018 700.742 Q63.1307 700.561 63.3787 700.561 Z" fill="#000000" fill-rule="evenodd" fill-opacity="1" /><polyline clip-path="url(#clip743)" style="stroke:#009af9; stroke-linecap:butt; stroke-linejoin:round; stroke-width:4; stroke-opacity:1; fill:none" stroke-dasharray="2, 4" points="
  2195.91,1374.2 2097.67,1360.57 2004.01,1348.87 1914.62,1334.58 1829.54,1324.08 1748.53,1318.92 1670.82,1301.09 1597.18,1277 1793.43,1298.83 1715.31,1290.21 
  1640.71,1285.51 1569.28,1278.42 1501.18,1257.75 1436.89,1242.07 1375.93,1226.41 1318.35,1223.68 1263.26,1210.92 1211.03,1202.04 1161.5,1208.35 1112.74,1187.28 
  1067.23,1188.55 1023.08,1167.4 982.172,1158.53 942.918,1151.36 905.603,1148.06 869.954,1147.2 835.891,1140.63 803.699,1127.5 773.47,1117.77 744.766,1115.52 
  717.262,1113.05 691.074,1104.31 666.572,1100.05 642.924,1103.9 619.983,1096.49 598.685,1094.19 1221.31,1188.79 1172.16,1178.76 1125.21,1174.16 1080.26,1168.52 
  1037.43,1161.52 996.536,1158.45 1630.47,1265.59 1784.14,1311.19 1705.46,1283.05 1631.75,1273.88 1561.39,1263.5 1494.32,1252.27 1430.37,1246.69 1369.28,1233.32 
  1311.26,1221.24 1256.11,1225.93 1734.47,1293.56 1659.52,1276.22 1803.49,1299.96 1725.17,1290.05 1650.33,1279.04 1578.95,1273.35 1510.69,1260.1 1445.95,1245.16 
  1384.7,1230.92 1326.64,1263.24 1268.05,1225.3 1214.85,1213.1 1164.15,1194.21 1117.05,1186.83 1072.55,1167.72 1030.43,1159.84 990.29,1163.78 951.553,1154.95 
  914.282,1149.68 878.713,1138.6 845.188,1128.56 813.19,1128.25 782.439,1119.4 753.175,1113.39 725.306,1113.71 953.845,1134.62 917.654,1136.68 2254.22,1381.44 
  2153.5,1370.85 2057.21,1362.26 1965.19,1346.97 1877.69,1328.12 1794.68,1309.66 1716.02,1293.52 1641.29,1275.64 1570.37,1271.01 1502.5,1257.56 2185.72,1369.22 
  2173.36,1372.25 2076.22,1359.69 1983.48,1348.76 1894.92,1328.66 1811.07,1309.78 1731.61,1297.34 1655.83,1285.95 1583.62,1273.73 1514.95,1268.39 1449.33,1253.53 
  1387.28,1232.69 1328.86,1224.76 1273.27,1220.07 1220.35,1209.21 1169.87,1199.02 1122.28,1196.16 1282.72,1212.33 1230.4,1204.72 1180.62,1196.91 1133.54,1186.08 
  1088.63,1185.34 1046.06,1155.88 1005.98,1163.71 967.173,1147.81 930.051,1140.19 894.851,1139.04 861.168,1123 829.047,1132.12 797.292,1128.03 767.293,1122.52 
  738.985,1113.2 711.698,1109.65 685.729,1103.56 661.014,1103.27 637.519,1102.17 615.306,1097.22 594.336,1083.21 574.199,1099.6 553.143,1087.35 534.304,1081.23 
  516.618,1073.12 499.889,1070.79 1013.81,1174.08 972.768,1150.12 1712.34,1280.15 1913.29,1326.86 1829.08,1309.04 1749.35,1294.04 1673.54,1284.65 1601.28,1267.98 
  1532.62,1258.61 1467.16,1247.16 1404.94,1231.16 1345.83,1223.55 1289.46,1210.1 1236.14,1204.37 1184.98,1197.3 1136.34,1196.92 1089.32,1179.19 1436.38,1231.61 
  1804.03,1299.68 1725.57,1289.24 1650.74,1278.08 1579.43,1258.99 1511.82,1256.8 1446.97,1245.27 1547.14,1258.76 1480.88,1244.97 1417.87,1241.06 1357.54,1238.21 
  1299.11,1220.99 1244.29,1209.66 1192.13,1192.44 1143.02,1185.53 1096.12,1181.56 1123.24,1184.28 1077.2,1177.94 1033.17,1166.32 1602.84,1259.13 1534.35,1254.99 
  1468.61,1247.95 1405.84,1235.24 1346.16,1228.69 1785.11,1299.39 1707.18,1287.04 1632.9,1274.82 1562.13,1270.57 1494.4,1258.5 2073.53,1353.19 1981.34,1339.15 
  1893.49,1326.04 1809.77,1312.58 2000.48,1340.88 1911.52,1326.73 1826.79,1302.11 1746.98,1303.15 1669.94,1277.92 1597.55,1273.82 1527.99,1267.59 1461.63,1244.42 
  1398.78,1239.48 1338.57,1218.21 1282.47,1219.08 1228.2,1207.29 1176.48,1208.02 1126.3,1197.79 1078.97,1183.96 1034.36,1175.24 991.843,1166.24 951.235,1157.24 
  1901.74,1345.63 1815.51,1307.55 1735.5,1294.41 1659.28,1286.59 1586.41,1277.85 1516.93,1263.13 1451,1248.39 1388.57,1234.83 1329.35,1228.74 1272.83,1215.77 
  1607.98,1271.75 1537.97,1258.01 1471.38,1256.5 1407.13,1241.48 1346.37,1236.77 1288.23,1220.09 1233.37,1209.4 1181.32,1198.54 1131.77,1188.51 1084.63,1175.3 
  1039.76,1172.51 996.77,1174.85 955.289,1159.48 916.325,1152.53 957.061,1163.04 917.987,1151.37 880.996,1157.45 844.962,1133.21 811.603,1131.44 779.709,1132 
  749.148,1118.43 720.445,1114.32 693.122,1105.95 667.269,1105.28 642.187,1105.55 617.954,1102.3 594.818,1096.88 572.877,1091.27 552.22,1089.45 532.561,1081.36 
  791.866,1114.67 761.884,1119.46 732.731,1124.2 704.687,1118.87 678.368,1117.25 1923.15,1323.37 1838.68,1313.98 1757.82,1289.23 1681.75,1286.99 1608.37,1274.62 
  1538.54,1265.41 1471.94,1275.84 1406.76,1241.12 1346.7,1226.42 1289.66,1215.63 1235.5,1214.16 1183.51,1213.83 1133.78,1199.15 1086.94,1187.4 1042.64,1173.14 
  1000.96,1162.82 961.554,1150.59 1567.16,1249.53 1501.21,1244.57 1437.98,1236.8 1377.44,1232.55 1319.63,1222.48 1264.16,1225.43 1454.98,1237.12 1450.37,1237.09 
  1389.1,1235.99 1330.33,1225.35 1274.44,1210.34 1221.39,1203.36 1170.7,1216.15 1120.71,1187.34 1342.57,1224.8 1285.7,1206.41 1232.21,1207.32 1180.67,1199 
  1131.65,1187.14 1349.99,1229.03 1292.83,1215.16 1419.73,1233.31 1359.84,1230.27 2263.77,1384.24 2162.34,1372.4 2065.5,1359.91 1973.11,1345.74 1885.09,1332.01 
  1801.38,1307.91 1722.2,1291.74 1646.95,1283.12 1622.28,1273.29 1551.81,1261.53 1484.75,1250.04 1420.85,1240.92 1360.02,1227.79 1302.22,1215.86 2158.94,1369.92 
  2062.17,1349.15 1998.44,1341.62 1909.32,1349.5 1921.18,1330.4 1835.62,1320.45 1753.87,1311.11 1675.9,1293.24 1602.08,1280.99 1531.87,1268.61 1465.21,1259.91 
  1401.85,1242.88 1341.87,1243.5 1284.23,1216.5 1230.36,1208.89 1179.18,1202.39 1129.83,1211.31 1081.1,1182.21 1036.4,1171.69 993.909,1170.35 953.226,1159.53 
  914.697,1155.39 877.904,1150.8 842.979,1137.01 809.881,1129.37 778.654,1127.66 748.579,1123.89 719.918,1127.98 780.959,1117.04 751.703,1118.64 723.403,1115.7 
  696.554,1115.63 670.777,1101.85 646.457,1106.68 622.587,1107.53 599.323,1094.87 577.893,1101.61 556.611,1082.99 1052.59,1180.64 1009.1,1165.32 968.401,1160.76 
  929.635,1158.86 972.077,1155.49 933.532,1144.24 896.954,1141.76 861.957,1140.04 828.388,1142.35 796.158,1128.97 765.983,1129.94 987.511,1162.78 948.439,1150.64 
  911.283,1155.85 1033.76,1160.78 993.615,1153.44 955.864,1146.76 918.952,1144.16 883.471,1134.44 849.674,1126.75 817.406,1123.24 786.521,1114.9 757.206,1115.15 
  816.399,1119.69 785.377,1122.86 755.345,1113.72 727.549,1121.47 700.251,1112.61 764.921,1105.85 736.721,1136.42 706.829,1104.98 680.637,1105.67 655.422,1100.99 
  631.517,1097.38 608.81,1093.29 587.367,1077.98 567.739,1087.98 547.98,1091.75 529.128,1080.7 511.672,1078.26 495.002,1074.41 479.463,1070.72 564.367,1083.48 
  546.03,1076.8 528.287,1073.37 511.556,1081.92 593.15,1072.6 573.824,1080.88 554.584,1077.15 978.373,1149.51 940.027,1141.88 1445.09,1230.15 1384.63,1224.27 
  1327.13,1216.25 1272.33,1211.19 1219.99,1204.39 1170.22,1194.71 1123.12,1182.82 1077.54,1178.13 1033.93,1165.09 992.723,1160.11 953.204,1167.36 1655.17,1274.48 
  1584.07,1263.36 1516.22,1256.23 1451.28,1258.11 1811.91,1299.82 1733.46,1301.62 1657.65,1279.58 1586.28,1274.46 1517.97,1257.54 1453.43,1244.12 1392.06,1235.46 
  1333.54,1227.83 1277.7,1210.71 1225.03,1199.96 1175.11,1199.9 1127.33,1206.75 1862.22,1313.74 1780.77,1297.25 1703.27,1290.02 2179.51,1368.07 2082.45,1353.03 
  1989.89,1342.01 1901.5,1324.05 1817.59,1310.11 1737.62,1303.72 1661.13,1289.32 1634.78,1278.68 1563.8,1268.28 1496.11,1259.6 1431.66,1249.99 1370.34,1240.6 
  1311.97,1225.89 1256.79,1210.74 1204.57,1190.81 1155.85,1196.98 1108.69,1173.42 1065.22,1179.38 1023.11,1178.93 982.636,1168.2 944.912,1151.17 908.779,1139.66 
  873.507,1137.06 839.484,1131.84 806.966,1129.37 775.762,1119.1 746.445,1130.75 717.685,1124.65 690.63,1140.06 663.379,1105.13 2009.81,1337.99 2010.31,1341.65 
  1951.85,1328.41 1865.66,1316.72 1783.47,1305.35 1704.99,1289.33 1630.38,1276.28 1973.66,1332.8 1886.21,1325.04 1936.88,1333.35 1850.82,1328.25 1806.04,1323.72 
  1725.42,1295.02 1649.63,1284.77 2086.53,1360.19 1993.13,1344.14 1904.27,1326.94 1819.67,1314.2 1739.05,1300.37 1784.48,1303.1 1785.24,1303.49 1706.52,1292.39 
  1794.65,1304.37 1715.42,1291.03 1639.9,1295.45 1566.63,1277.91 1497.52,1265.62 1431.95,1259.55 1369.47,1242.39 1310.29,1231.05 1254.15,1218.02 1201.19,1202.09 
  1150.77,1191.99 1102.75,1210.42 1054.94,1168.29 1011.74,1165.96 970.264,1162.26 930.552,1156.65 892.717,1137.86 857.589,1137.64 823.48,1132.75 790.94,1129.5 
  759.773,1131.21 729.736,1121.84 701.454,1115.89 674.607,1103.59 649.363,1097.97 625.459,1099.13 602.598,1097.86 580.535,1090.48 559.627,1101.22 2185.08,1364.93 
  2088.27,1357.36 2048.13,1344.91 1957.6,1342.42 1870.39,1318.15 1860.58,1317.14 1778.97,1305.41 1701.2,1295.15 1627.15,1289.6 1555.99,1263.35 1489.34,1256.53 
  1425.64,1252.83 1364.4,1221.79 1307.29,1219.46 1252.55,1218.28 1265.36,1200.03 1213.14,1198.02 1229.39,1205.97 1178.08,1197.65 1129.23,1185.95 1082.83,1190.25 
  1110.95,1181.04 1502.36,1243.01 1438.47,1239.09 1377.2,1229.06 1318.74,1218.9 1263.08,1213.93 1209.76,1202.18 1159.36,1199.05 1111.14,1189.58 1065.23,1185.06 
  1021.54,1179.59 980.213,1168.5 941.345,1143.78 905.025,1145.13 869.814,1141.41 1656.13,1274.45 2294.08,1384.06 2191.8,1376.37 2093.63,1368.12 1999.45,1339.98 
  1910.78,1323.08 2150.27,1370.03 2053.83,1352.68 1961.97,1339.06 1874.4,1324.12 1863.02,1322.09 1780.36,1303.06 1701.9,1288.09 1627.18,1301.35 1553.93,1270.99 
  1485.75,1263.26 1420.75,1250.79 1358.91,1245.93 1299.43,1234.42 1242.97,1217.64 1190,1206.13 1551.55,1261.54 1484.41,1255.8 1710.94,1288.67 1636.19,1273.32 
  1565.03,1264.54 1497.08,1250.71 1432.46,1240.6 1370.86,1245.34 1311.09,1227.26 1254.99,1214.35 1201.73,1204.68 1732.81,1292.3 1656.98,1286.41 1584.32,1271.97 
  1515.32,1255.66 1449.79,1235.36 1388.18,1226.98 1329.42,1229.58 1272.68,1220.55 1218.82,1213.03 1167.49,1204.84 1118.66,1190.94 1072.56,1182.1 1028.89,1174.91 
  987.217,1165.71 947.52,1161.07 909.822,1169.21 872.598,1142.57 839.084,1146.65 805.871,1130.01 775.304,1126.58 832.748,1125.1 801.227,1121.57 770.847,1115.67 
  1271.05,1206.4 1217.9,1203.37 1167,1201.67 1118.22,1190.78 1604.81,1265.48 1535.84,1260.26 1469.8,1251.68 1406.79,1236.92 1346.96,1232.83 1289.35,1217.22 
  1235.07,1211.25 1183.23,1201.78 1134.01,1195.54 1087.17,1177.93 1043.11,1176.32 1001.01,1169.94 960.905,1164.18 922.826,1149.08 887.049,1139.46 852.774,1137.76 
  820.032,1129.31 789.214,1123.52 760.18,1123.6 732.427,1111.86 706.52,1104.74 681.809,1112.05 657.237,1105.27 634.473,1095.77 612.906,1094.84 592.56,1088.74 
  573.777,1087.57 556.064,1082.55 538.292,1081.43 521.256,1104.57 1309.29,1204.49 1255.89,1215.68 1203.47,1195.61 1154.36,1183.62 1107.75,1178.75 1063.13,1172.23 
  1020.55,1160.39 980.172,1178.51 1672.69,1273.02 1601.34,1265.29 1533.03,1255.73 1467.85,1244.3 1405.88,1234.24 1346.76,1225.11 1290.58,1213.71 1363.11,1222.41 
  1306.38,1203.81 1880.33,1316.21 1798.33,1300.91 1720.68,1297.64 1645.9,1278.25 1575.17,1270.05 1507.78,1255.48 1444.01,1237.61 1383.6,1259.05 1645.13,1265.66 
  1754.18,1287.58 1678.49,1288 1605.36,1271.75 1536.16,1268.08 1751.03,1296.03 1675.01,1284.7 1602.54,1272.95 1533.64,1259.92 1468.31,1248.03 1406.41,1235.85 
  1661.19,1270.05 1589.9,1268.82 1521.46,1255.77 1456.37,1245.37 1394.28,1232.84 1335.29,1226.52 1278.97,1215.57 1225.29,1207.97 1476.67,1243.46 1413.65,1242.93 
  1353.06,1255.89 1293.55,1227.69 1238.7,1221.71 1314.17,1212.55 1259.17,1203.39 1206.61,1200.93 1156.27,1192.94 1108.22,1189.72 1062.25,1195.33 1017.6,1179.98 
  976.17,1171.83 937.14,1168.41 980.623,1157.57 943.212,1152.8 907.713,1149.84 873.874,1127.34 841.04,1133.14 808.47,1138.24 776.79,1125.05 746.965,1111.98 
  719.226,1103.52 693.402,1104.44 668.429,1108.87 644.574,1103.84 622.135,1090.92 600.427,1087.4 579.838,1089.27 559.357,1089.78 539.673,1078.83 521.713,1080.04 
  504.712,1090.15 487.888,1073.88 472.89,1068.81 655.901,1090.84 633.38,1086.12 611.712,1090.08 590.795,1085.73 571.095,1082.66 552.17,1083.77 533.878,1074.17 
  516.422,1071.31 499.816,1071.55 483.864,1067.19 468.812,1065.71 454.552,1067.01 440.811,1069.3 427.703,1067.58 415.373,1070.99 403.375,1053.73 392.263,1055.31 
  381.694,1049.74 372.07,1046.95 363.29,1044.27 354.67,1041.36 346.157,1034.06 1136.86,1178.24 1091.26,1174.92 1047.49,1176.6 1465.03,1234.23 1403.91,1226.58 
  1345.38,1219.71 1289.5,1226.46 1235.16,1210.46 1183.71,1192.82 1135.53,1183.87 1089.56,1174.28 1045.85,1185.09 1218.36,1206.18 1235.62,1199.11 1185.46,1181.64 
  1137.97,1179.16 1092.33,1173.46 1048.7,1164.95 1007.21,1157.79 967.607,1155.35 929.596,1145.36 893.478,1145.73 858.876,1140.73 825.906,1132.5 794.687,1123.7 
  765.074,1116.14 736.93,1109.76 1043.41,1159.23 1406.58,1233.04 1347.96,1219.08 1292.4,1207.69 1239.63,1199.57 1189.31,1193.33 1276.49,1197.9 1224.78,1194.39 
  1175.37,1185.01 1128.08,1178.7 1082.97,1176.44 1183.36,1182.05 1204.82,1189.22 1155.8,1183.32 1108.85,1177.52 1064.08,1175.46 1021.02,1162.42 980.29,1152.91 
  941.571,1161.16 903.686,1139.59 868.619,1137.8 834.885,1131.43 802.905,1123.84 772.674,1113.64 1067.56,1169.9 1024.87,1171.61 983.464,1157.66 944.891,1163.02 
  907.829,1144.29 873.254,1133.94 840.461,1144.05 808.301,1138.65 1098.72,1172.61 1054.83,1160.37 1013.14,1151.31 973.447,1151.64 935.277,1149.56 898.764,1135.06 
  864.219,1132.74 831.024,1127.37 799.352,1116.08 770.012,1119.44 741.661,1118.26 714.578,1115.27 688.747,1112.13 663.958,1100.06 640.911,1102.54 619.211,1098.28 
  598.655,1076.25 579.675,1080.26 561.353,1074.55 543.916,1075.8 526.179,1073.47 509.197,1077.1 492.727,1068.95 577.085,1076.63 558.263,1077.53 540.198,1074.31 
  2032.79,1341.84 1943.27,1350.58 1856.15,1313.05 1774.92,1302.27 1697.46,1296.42 1623.28,1282.12 1553,1269.77 1486.3,1253.46 1998.72,1331.17 1911.1,1320.55 
  1929.5,1323.53 1844.81,1313.14 1763.91,1303.1 1686.74,1285.75 1613.57,1273.71 1543.9,1267.76 1477.29,1253 1413.97,1239.29 1664.96,1286.17 1592.4,1262.22 
  1524.23,1251.88 1459.19,1247.11 1396.74,1240.99 1337.01,1227.87 1280.41,1224.21 1568.15,1262.7 1500.64,1247.17 1436.7,1241.47 1486.46,1249.07 1423.07,1238.88 
  1362.71,1223.51 1305.32,1221.6 1250.31,1216.73 1197.78,1204.18 1147.95,1192.91 1362.43,1236.13 1304.71,1225.5 1250.29,1206.69 1198.84,1192.33 1149.78,1183.08 
  1103.04,1182.17 1058.09,1175.28 1015.24,1166.35 1321.59,1209.01 1266.93,1211.76 1214.2,1213.96 1163.31,1196.39 1115.64,1178.11 1070.56,1177.41 1720.13,1277.62 
  1646.42,1269.73 1575.84,1260.74 1508.38,1261.07 1443.11,1237.53 1381.93,1232.8 1323.2,1223.95 1267.31,1212 1214.28,1216.52 1162.82,1240.36 1111.23,1185.72 
  1065.87,1186.66 1021.67,1172.02 980.401,1171.18 940.888,1159.44 903.758,1146.23 868.779,1145.76 835.033,1127.19 803.651,1119.13 773.861,1131.65 744.334,1114.37 
  716.789,1117.15 689.778,1106.3 664.676,1102.83 1779.62,1290.05 1702.84,1284.87 1629.15,1278.08 1779.27,1297.35 1701.88,1299.15 1627.01,1292.96 1555.6,1280.21 
  1487.61,1260.08 1423.81,1243.33 1363.5,1234.77 1306.03,1216.46 1251.79,1211.41 1199.77,1202.08 1150.3,1231.22 1099.96,1183.6 1264.24,1203.07 1212.66,1198.04 
  1163.2,1189.05 1116.4,1182.94 1071.86,1176.12 1029.45,1163.91 989.306,1165.02 950.796,1159.29 914.348,1157.58 879.341,1144.33 847.065,1138.85 816.726,1122.12 
  788.312,1124.69 761.128,1096.25 735.086,1103.65 709.172,1100.58 684.267,1099.82 660.413,1105.24 814.273,1113.09 870.286,1132.79 837.419,1133.96 806.06,1135.45 
  776.165,1128.71 748.181,1120.53 721.806,1112.6 697.026,1097.87 673.552,1099.5 651.09,1097.8 629.757,1089.88 877.087,1132.06 844.03,1123.58 812.754,1129.78 
  782.353,1126.8 753.394,1129.61 725.06,1113.65 699.163,1105.41 674.837,1089.21 652.886,1094.35 631.063,1089.2 610.054,1090.03 
  "/>
<polyline clip-path="url(#clip743)" style="stroke:#e26f46; stroke-linecap:butt; stroke-linejoin:round; stroke-width:4; stroke-opacity:1; fill:none" stroke-dasharray="2, 4" points="
  2093.81,433.821 2116.43,449.872 2136.99,439.123 2157.73,446.264 2177.23,447.882 1528.02,330.993 1577.57,335.03 1625.32,339.093 1670.96,361.298 1713.3,360.343 
  1754.4,369.732 578.589,140.876 673.772,158.394 764.485,182.649 850.473,191.115 933.093,228.07 1010.11,238.571 1083.85,264.455 1153.27,255.346 957.281,210.963 
  1034.69,226.073 1108.45,237.739 1178.96,250.6 1246.21,259.265 1310.55,277.59 1371.4,296.872 1428.7,326.131 1481.88,321.97 1533.68,336.091 1582.76,334.509 
  1561.11,329.13 1609.9,338.358 1656.48,344.744 1701.1,354.57 1743.68,358.688 1202.57,266.572 1267.78,276.168 1330.18,285.692 1389.82,291.234 1447.08,324.65 
  1499.8,314.59 1551.64,324.064 1601.02,337.684 1647.75,347.721 1692.19,358.567 1588.25,339.334 1635.38,337.263 1681,360.545 1723.23,356.85 1764.41,366.511 
  698.404,169.638 787.414,180.381 872.539,194.859 882.961,190.639 964.646,208.387 1041.98,225.87 1115.52,240.358 1185.5,254.485 1252.14,266.535 1315.72,277.729 
  1376.41,287.074 1434.33,303.425 1489.17,314.971 1541.34,325.754 1590.94,332.827 1638.4,343.996 1683.44,351.941 1726.41,368.505 1766.58,367.75 1805.53,374.75 
  1842.61,380.215 1878.05,388.191 1911.7,398.638 1943.52,397.426 1974.29,406.096 2003.38,446.026 2028.22,419.073 2054.43,426.914 2079.18,428.415 2102.95,432.572 
  2125.59,434.01 2147.31,440.952 2167.75,443.095 2187.32,449.1 2205.77,453.728 2223.22,468.873 2238.81,465.66 1437.99,302.906 1492.52,316.934 1544.2,325.751 
  1593.52,335.703 1640.48,342.182 1685.37,352.142 1727.98,361.601 1768.46,375.721 1806.63,377.15 1843.4,388.477 1878.12,391.582 1911.42,393.912 1943.39,404.372 
  1973.52,407.689 2002.37,416.153 2029.66,428.218 2054.97,434.201 2078.93,427.254 2102.67,436.819 2124.9,437.879 2146.27,442.305 2166.54,448.446 2088.48,433.319 
  2111.36,437.671 2133.12,443.454 2153.72,446.744 1076.9,233.146 1148.83,244.66 1217.47,266.189 483.722,121.04 582.925,139.054 677.637,161.23 767.748,188.896 
  852.963,190.834 935.33,207.848 934.961,203.014 1013.77,220.078 1088.72,234.856 1160.15,246.417 1228.4,258.238 1293.5,285.632 1354.3,284.582 1413.3,299.155 
  1469.35,307.213 1522.86,315.457 1574.01,330.76 1622.38,338.009 1668.51,348.666 1639.02,343.45 1684.16,352.926 1727.06,357.109 1768.18,369.8 1807.03,373.626 
  1844.28,383.781 1879.52,387.82 1045.62,230.165 1118.61,243.869 1188.27,257.1 1254.7,272.068 1318.1,281.371 1378.6,288.962 1376.12,294.378 1433.58,307.086 
  1488.19,314.107 1540.42,323.652 1590.15,342.116 1636.71,344.83 1681.61,351.082 1724.54,362.47 1765.23,369.169 1385.18,298.084 1441.78,310.163 1495.62,317.293 
  1051.1,235.86 991.292,228.441 1065.95,237.217 1137.56,250.982 1205.83,259.202 1271.23,272.448 1333.51,287.717 1392.66,299.794 1448.93,307.685 1502.75,316.426 
  1554.13,330.352 1289.09,283.71 1350,291.236 1408.28,299.001 1464.08,331.46 1515.47,319.85 1566.15,333.093 1614.22,339.608 1660.12,347.607 1703.91,355.831 
  1745.62,366.245 1430.01,310.11 1484.2,317.899 1536.03,326.916 1585.42,334.467 1632.59,341.855 1677.61,355.156 1720.18,360.538 1760.94,367.312 1799.8,371.558 
  1836.98,381.979 1872.11,387.824 1905.6,399.959 1937.07,404.896 1967.13,410.425 1995.77,417.631 2022.91,420.111 2048.9,426.926 1730.04,369.1 1769.63,374.477 
  1807.52,379.206 1843.77,380.349 1878.67,390.956 1911.57,398.833 1942.78,407.779 1972.29,411.822 912.675,209.315 990.951,225.264 1065.58,248.072 1135.92,248.353 
  1204.05,261.596 1268.94,276.463 1330.6,289.826 1389.27,299.361 1445.29,342.954 1496,323.123 1546.87,345.987 1594.34,377.925 1637.38,345.549 1681.82,356.82 
  1723.91,364.838 1764.03,409.582 1798.99,388.984 1834.65,387.249 1869.35,400.781 1218.96,271.121 1282.73,283.682 1343.52,290.775 1401.78,299.489 1457.38,309.794 
  1510.35,326.623 1560.32,335.268 879.267,226.871 514.198,132.965 611.065,150.752 703.527,166.455 653.612,164.419 744.773,178.718 832.233,210.334 913.78,201.599 
  993.245,221.13 1069.03,229.235 1141.42,245.925 1210.19,257.983 1275.79,273.769 1338.07,287.849 1397.29,298.554 1453.85,309.399 1507.7,316.077 1559.15,326.888 
  1608.15,332.582 1654.99,341.822 1699.54,352.62 1741.76,360.017 1781.96,370.068 1820.03,382.87 1855.93,385.453 1890.39,392.386 924.297,202.757 1003.48,220.117 
  1078.87,232.109 1150.97,250.344 1219.43,256.122 1285.03,270.141 1347.42,296.312 1405.72,298.052 1462.11,311.443 1515.77,317.379 1210.73,266.978 1275.88,272.977 
  1338.32,281.785 1398.01,291.773 1393.41,291.305 1075.01,232.765 1146.78,246.864 1215.21,256.066 1280.63,273.796 1085.22,241.024 1155.93,251.918 1223.58,259.402 
  1288.45,276.605 1238.9,268.617 1302.53,279.891 1363.29,308.918 1302.39,281.223 1363.02,292.881 1420.79,299.671 1476.1,311.616 1528.7,324.051 1578.64,345.954 
  1625.17,341.111 1670.61,354.316 1713.58,359.048 1754.78,366.534 1794.04,380.988 1831.01,385.003 1866.37,389.192 1900.23,391.344 1932.74,401.149 1963.5,417.264 
  1991.88,403.591 2020.54,417.845 2047.02,419.669 2072.42,431.695 2096.05,435.559 2118.61,437.439 2140.26,441.086 2160.88,447.373 2180.32,446.83 2199.11,463.469 
  2215.87,458.048 2232.56,461.061 2248.45,460.932 1575.03,336.697 1247.39,276.416 1309.92,288.405 1369.61,296.453 1426.81,306.7 1481.22,314.257 1533.31,326.24 
  1582.73,331.158 1630.09,343.031 1674.98,352.022 1717.67,370.958 1757.41,374.871 1795.66,379.581 1832.28,388.827 1867.03,395.013 1900.18,397.765 1932,400.399 
  1962.55,410.076 1991.3,416.986 2018.6,418.941 2044.8,421.618 2069.92,428.913 2093.65,421.777 2117.23,438.144 2138.6,441.301 1970.32,411.588 1822.55,398.848 
  1856.42,395.771 1889.51,399.663 691.923,166.702 537.592,137.49 634.011,148.949 726.065,162.436 814.113,183.173 897.776,200.808 977.428,225.916 892.632,209.127 
  737.265,170.962 824.616,185.341 908.102,205.785 875.055,202.235 956.085,214.839 728.875,169.312 674.465,157.598 464.345,123.806 494.438,123.874 536.412,133.64 
  633.069,147.166 725.58,162.702 813.977,182.694 898.056,196.109 903.388,202.988 982.965,222.313 1058.65,233.102 1131.21,247.232 1200.54,258.795 1266.89,275.13 
  1330.13,280.668 1390.31,320.855 914.586,206.689 993.57,233.566 1067.99,232.288 1140.13,247.082 1208.89,260.537 1274.46,275.03 1336.84,286.757 1396.3,292.877 
  1453.31,300.509 1507.76,312.36 1559.5,325.415 1608.53,335.187 1388.52,312.718 1444.05,318.119 1497.42,318.029 1549.06,324.894 1598.55,337.205 1645.56,346.292 
  1690.23,353.927 1732.8,362.398 1773.33,370.457 1081.22,233.243 1153.15,237.672 1222.56,259.555 1287.85,271.357 1350.11,280.659 1409.55,299.597 1465.43,326.888 
  1517.3,325.445 1567.6,327.803 1616.12,336.379 1662.38,346.831 1706.32,355.386 1748.12,361.026 1788.1,367.899 1826.2,378.876 1629.17,345.849 1674.17,351.524 
  1717.2,358.729 1758.26,378.229 1796.37,385.359 1832.67,384.494 1867.9,391.873 1901.45,394.129 1933.65,393.965 1964.91,407.333 1993.97,414.396 2021.55,417.43 
  2047.92,424.024 2072.91,429.083 2096.65,432.641 2119.32,452.298 2139.68,445.321 2159.96,445.95 1588.38,342.741 639.839,162.124 731.099,168.91 818.943,186.709 
  902.767,193.772 983.159,211.808 1059.62,229.241 1132.34,248.447 1201.4,253.456 1267.64,270.725 1330.45,281.185 1390.38,294.311 1447.35,303.256 1501.81,314.205 
  1553.62,329.351 1602.58,336.962 1649.34,346.047 1693.86,352.008 1736.42,362.082 1776.8,366.27 1815.46,372.343 1852.32,382.987 1887.12,387.801 1920.35,395.148 
  1951.9,405.929 1981.57,411.549 1921.21,395.591 1952.58,403.53 1982.25,411.446 1921.17,403.368 1559.38,340.527 1606.6,352.662 1651.35,352.005 1694.78,361.888 
  1736.09,366.286 1775.63,373.861 1813.29,379.469 1849.24,383.227 1883.69,394.763 1916.12,400.942 1946.96,437.899 1802.45,380.463 1838.61,388.551 1872.99,396.445 
  1905.66,400.228 1768.4,376.424 1577.28,336.046 1624.28,346.523 1668.99,350.888 1711.83,373.537 1751.42,370.497 1790,379.878 1826.62,383.269 1861.74,394.549 
  1894.85,402.367 1926.29,404.573 1956.51,413.419 1985.06,424.972 2011.69,418.659 2037.96,426.615 2062.78,429.568 1662.3,353.386 1705.09,362.097 1745.84,372.12 
  1705.93,363.756 1746.48,369.729 1631.39,347.184 1675.57,358.63 1717.5,366.223 1757.43,383.686 538.736,137.507 634.473,154.413 725.967,172.108 813.21,188.166 
  896.504,203.528 975.99,215.96 1051.96,233.122 1124.21,246.17 1193.18,260.913 1258.84,273.303 1321.42,306.145 1379.34,325.596 1433.85,313.213 1487.88,319.036 
  1539.7,328.413 1589.2,336.486 1636.36,343.966 1681.39,350.106 1724.42,360.877 1765.18,368.76 1803.98,375.076 1841.05,381.777 1876.42,389.482 1910.01,395.579 
  1942.07,405.907 1972.36,411.413 2001.06,413.983 2028.58,418.006 2054.83,426.308 2079.58,431.917 2103.11,434.858 2125.67,439.089 2147.1,454.927 2166.52,457.72 
  1995.5,430.439 2021.82,419.613 1788.16,379.032 1825.27,387.363 1199.68,258.93 1162.77,261.231 1037.88,230.949 1065.76,263.635 1135.56,248.827 1204.14,260.715 
  1269.57,271.335 1331.99,282.463 1391.52,292.937 1448.31,304.3 836.243,200.207 918.12,202.278 997.37,225.296 1072.53,231.596 1144.55,251.406 1212.85,260.326 
  1278.18,272.383 1340.45,282.951 1399.86,297.085 1456.25,307.709 1509.97,318.564 1561.07,326.753 1609.79,337.49 1584.7,334.211 1632.01,342.096 1677.18,364.383 
  1719.18,362.889 1760.04,382.337 1798,376.14 1835.17,393.376 1869.75,391.366 1903.43,398.54 1935.43,400.57 1966.15,408.814 1995.22,415.629 2022.83,419.143 
  2049.25,425.953 2074.28,427.055 2098.33,432.456 2121.12,436.558 2142.8,446.184 2163.03,447.929 2182.45,449.635 2201.06,454.203 2218.69,454.838 2235.65,458.463 
  2251.72,473.393 2265.97,464.813 2280.48,469.8 1826.47,385.912 1861.52,392.886 1894.88,397.999 1926.75,403.594 1957.13,406.613 1986.23,444.762 2011.19,420.209 
  2037.43,426.438 2062.34,429.815 2086.14,430.168 2109.07,446.89 2129.84,443.429 1791.03,371.134 1828.31,387.626 1139.76,254.625 1207.28,267.622 1271.63,277.118 
  1333.19,291.145 1391.69,301.016 1447.51,315.166 1500.51,317.54 1420.2,313.627 1474.3,316.066 1526.36,325.675 1576.02,344.644 1622.46,340.078 1667.8,348.725 
  1151.01,258.329 1217.83,267.772 1281.76,280.405 1342.64,308.195 1399.48,304.623 1454.86,313.608 1507.75,326.394 1557.92,353.581 1604.16,375.718 1647.14,344.572 
  1691.28,359.824 746.034,177.2 741.864,172.381 828.694,185.068 911.772,202.376 990.839,218.731 1066.12,233.34 1137.86,249.498 1206.05,262.911 1072.09,242.677 
  1143.23,251.219 1211.46,263.018 1276.46,272.055 1338.6,307.421 1395.88,293.835 1452.4,315.01 1505.55,321.955 1556.42,332.811 502.816,120.355 601.996,137.546 
  696.595,158.46 786.591,175.21 872.482,197.593 954.11,205.311 1032.36,217.455 1107.17,238.503 1177.97,247.844 1245.73,272.724 939.848,210.076 1017.95,223.073 
  1092.6,237.99 1163.77,252.802 1231.63,262.703 1296.56,273.579 1358.44,288.571 1417.36,298.521 1473.4,307.881 1526.92,320.622 1577.75,325.476 1626.45,336.818 
  1237.04,266.705 1301.29,270.286 1252.74,270.046 1316.15,278.323 1376.78,289.374 1434.59,301.271 1489.63,313.658 1541.89,324.487 1591.64,336.786 1638.86,344.59 
  1683.92,351.646 1726.95,362.052 1767.86,363.038 1807.3,373.159 1844.68,378.021 1323.45,280.055 1383.83,291.983 1441.3,304.678 1495.93,316.407 1547.9,318.085 
  1597.94,334.279 1575.04,329.224 1623.27,340.506 1669.04,352.229 1712.47,355.133 1469.49,317.823 1521.97,320.744 1572.52,331.546 1620.55,344.668 1665.98,347.671 
  1709.64,358.554 1347.9,288.023 1406.9,296.271 1463.12,306.884 1516.63,329.845 1566.52,325.519 1615.12,337.322 1174.09,256.289 1240.69,264.75 1304.42,289.274 
  1364.13,289.859 1421.9,304.453 1185.87,269.992 1250.99,268.413 900.313,208.383 459.073,114.64 559.761,132.094 338.375,86.1857 445.152,111.977 546.726,132.025 
  643.773,144.874 736.445,161.521 824.911,183.424 908.957,202.889 988.617,215.62 1064.95,239.642 1004.98,218.866 1080.37,233.609 1152.23,246.854 1220.81,259.329 
  1286.24,271.239 1348.65,280.329 1408.27,292.76 1002.9,224.86 1078,234.903 1149.88,250.004 1167.93,254.21 710.367,161.167 799.721,177.725 884.91,192.548 
  966.301,213.492 1002.57,219.437 1078.15,233.626 1150.23,245.893 1219.18,259.741 1284.75,271.689 1347.26,287.939 1141.33,246.209 1210.44,258.478 1039.22,227.414 
  1112.88,237.794 1135.63,243.7 743.896,174.804 830.733,193.182 913.527,215.529 991.874,219.36 777.943,174.289 864.207,187.519 946.581,204.279 1025.01,232.085 
  477.412,121.892 523.224,131.029 620.919,140.547 714.658,157.396 804.109,184.439 888.633,194.118 969.8,207.306 1047.36,218.967 1121.43,234.127 1191.91,251.317 
  1258.79,264.524 1322.5,310.742 1380.43,324.359 1435.6,308.864 1490.24,310.863 1543.11,341.48 1591.55,333.195 1639.15,340.99 1684.59,349.816 1727.92,356.643 
  1769.21,371.553 1807.87,372.641 1845.24,402.084 1878.94,387.774 1912.76,393.156 1945.01,397.243 1975.81,402.795 2005.11,410.946 1423.28,304.363 1478.65,310.644 
  1531.51,322.458 1581.73,331.075 1629.66,341.468 1675.23,347.256 1718.8,356.436 1760.23,368.367 1799.36,376.54 1836.59,380.088 1872.3,386.888 1906.32,393.913 
  1938.65,397.317 1969.59,407.182 1827.42,384.123 1862.98,387.993 1897.06,394.494 1353.88,292.646 1412.03,300.912 1467.73,312.134 1520.7,322.344 1571.14,334.383 
  1619.03,338.764 1225.96,267.4 1290.16,278.122 1351.42,289.273 1409.86,301.084 1465.52,321.885 1517.74,324.309 1375.63,297.722 1432.59,313.197 1100.75,238.894 
  1171.2,260.719 1237.61,269.353 1301.48,281.157 974.64,216.964 1050.94,235.081 1123.48,245.362 1192.99,268.073 1258.36,268.737 1027.3,227.84 1101.23,237.701 
  1172.07,250.841 1239.5,268.848 1303.64,290.271 1364.17,290.232 1422.96,298.338 1478.77,309.942 1531.83,317.334 1582.51,331.113 1630.5,335.744 1676.49,346.117 
  640.627,152.452 732.569,166.028 820.64,188.765 904.391,199.201 984.871,210.31 1061.54,225.49 1134.56,240.666 1204.03,259.294 1269.87,270.606 1332.7,282.898 
  1392.54,292.008 1449.69,301.088 1504.22,311.38 1556.17,322.461 1605.55,336.705 1652.22,347.037 1696.58,348.928 1739.3,361.36 1558.65,328.28 1607.37,336.781 
  1653.79,345.583 1698.02,365.388 1739.19,362.73 1055.54,227.346 1128.56,242.011 1198.18,261.641 637.369,201.011 725.62,163.413 784.513,176.595 608.875,138.733 
  703.499,166.047 792.788,192.862 
  "/>
<path clip-path="url(#clip740)" d="
M1783.45 248.629 L2283.65 248.629 L2283.65 93.1086 L1783.45 93.1086  Z
  " fill="#ffffff" fill-rule="evenodd" fill-opacity="1"/>
<polyline clip-path="url(#clip740)" style="stroke:#000000; stroke-linecap:butt; stroke-linejoin:round; stroke-width:4; stroke-opacity:1; fill:none" points="
  1783.45,248.629 2283.65,248.629 2283.65,93.1086 1783.45,93.1086 1783.45,248.629 
  "/>
<polyline clip-path="url(#clip740)" style="stroke:#009af9; stroke-linecap:butt; stroke-linejoin:round; stroke-width:4; stroke-opacity:1; fill:none" stroke-dasharray="2, 4" points="
  1807.45,144.949 1951.45,144.949 
  "/>
<path clip-path="url(#clip740)" d="M1980.12 145.724 L1980.12 158.386 L1987.62 158.386 Q1991.4 158.386 1993.2 156.835 Q1995.03 155.261 1995.03 152.043 Q1995.03 148.803 1993.2 147.275 Q1991.4 145.724 1987.62 145.724 L1980.12 145.724 M1980.12 131.511 L1980.12 141.928 L1987.04 141.928 Q1990.47 141.928 1992.14 140.655 Q1993.83 139.358 1993.83 136.719 Q1993.83 134.104 1992.14 132.807 Q1990.47 131.511 1987.04 131.511 L1980.12 131.511 M1975.45 127.669 L1987.39 127.669 Q1992.74 127.669 1995.63 129.891 Q1998.53 132.113 1998.53 136.21 Q1998.53 139.382 1997.04 141.257 Q1995.56 143.131 1992.69 143.594 Q1996.14 144.335 1998.04 146.696 Q1999.96 149.034 1999.96 152.553 Q1999.96 157.182 1996.81 159.705 Q1993.66 162.229 1987.85 162.229 L1975.45 162.229 L1975.45 127.669 Z" fill="#000000" fill-rule="evenodd" fill-opacity="1" /><path clip-path="url(#clip740)" d="M2019.57 149.196 Q2014.41 149.196 2012.41 150.377 Q2010.42 151.557 2010.42 154.405 Q2010.42 156.673 2011.91 158.016 Q2013.41 159.335 2015.98 159.335 Q2019.52 159.335 2021.65 156.835 Q2023.8 154.312 2023.8 150.145 L2023.8 149.196 L2019.57 149.196 M2028.06 147.437 L2028.06 162.229 L2023.8 162.229 L2023.8 158.293 Q2022.35 160.655 2020.17 161.789 Q2017.99 162.9 2014.85 162.9 Q2010.86 162.9 2008.5 160.678 Q2006.16 158.432 2006.16 154.682 Q2006.16 150.307 2009.08 148.085 Q2012.02 145.863 2017.83 145.863 L2023.8 145.863 L2023.8 145.446 Q2023.8 142.507 2021.86 140.909 Q2019.94 139.289 2016.44 139.289 Q2014.22 139.289 2012.11 139.821 Q2010.01 140.354 2008.06 141.419 L2008.06 137.483 Q2010.4 136.581 2012.6 136.141 Q2014.8 135.678 2016.88 135.678 Q2022.51 135.678 2025.28 138.594 Q2028.06 141.511 2028.06 147.437 Z" fill="#000000" fill-rule="evenodd" fill-opacity="1" /><path clip-path="url(#clip740)" d="M2053.9 140.238 L2053.9 126.21 L2058.16 126.21 L2058.16 162.229 L2053.9 162.229 L2053.9 158.34 Q2052.55 160.655 2050.49 161.789 Q2048.46 162.9 2045.59 162.9 Q2040.89 162.9 2037.92 159.15 Q2034.98 155.4 2034.98 149.289 Q2034.98 143.178 2037.92 139.428 Q2040.89 135.678 2045.59 135.678 Q2048.46 135.678 2050.49 136.812 Q2052.55 137.923 2053.9 140.238 M2039.38 149.289 Q2039.38 153.988 2041.3 156.673 Q2043.25 159.335 2046.63 159.335 Q2050.01 159.335 2051.95 156.673 Q2053.9 153.988 2053.9 149.289 Q2053.9 144.59 2051.95 141.928 Q2050.01 139.243 2046.63 139.243 Q2043.25 139.243 2041.3 141.928 Q2039.38 144.59 2039.38 149.289 Z" fill="#000000" fill-rule="evenodd" fill-opacity="1" /><path clip-path="url(#clip740)" d="M2102.9 128.803 L2102.9 133.363 Q2100.24 132.09 2097.88 131.465 Q2095.52 130.84 2093.32 130.84 Q2089.5 130.84 2087.41 132.321 Q2085.35 133.803 2085.35 136.534 Q2085.35 138.826 2086.72 140.007 Q2088.11 141.164 2091.95 141.882 L2094.78 142.46 Q2100.01 143.456 2102.48 145.979 Q2104.98 148.479 2104.98 152.692 Q2104.98 157.715 2101.6 160.307 Q2098.25 162.9 2091.74 162.9 Q2089.29 162.9 2086.51 162.344 Q2083.76 161.789 2080.79 160.701 L2080.79 155.886 Q2083.64 157.483 2086.37 158.293 Q2089.1 159.104 2091.74 159.104 Q2095.75 159.104 2097.92 157.53 Q2100.1 155.956 2100.1 153.039 Q2100.1 150.493 2098.53 149.057 Q2096.97 147.622 2093.41 146.905 L2090.56 146.349 Q2085.33 145.307 2082.99 143.085 Q2080.66 140.863 2080.66 136.905 Q2080.66 132.321 2083.87 129.682 Q2087.11 127.044 2092.78 127.044 Q2095.22 127.044 2097.74 127.483 Q2100.26 127.923 2102.9 128.803 Z" fill="#000000" fill-rule="evenodd" fill-opacity="1" /><path clip-path="url(#clip740)" d="M2116.3 128.942 L2116.3 136.303 L2125.08 136.303 L2125.08 139.613 L2116.3 139.613 L2116.3 153.687 Q2116.3 156.858 2117.16 157.761 Q2118.04 158.664 2120.7 158.664 L2125.08 158.664 L2125.08 162.229 L2120.7 162.229 Q2115.77 162.229 2113.9 160.4 Q2112.02 158.548 2112.02 153.687 L2112.02 139.613 L2108.9 139.613 L2108.9 136.303 L2112.02 136.303 L2112.02 128.942 L2116.3 128.942 Z" fill="#000000" fill-rule="evenodd" fill-opacity="1" /><path clip-path="url(#clip740)" d="M2142.46 149.196 Q2137.3 149.196 2135.31 150.377 Q2133.32 151.557 2133.32 154.405 Q2133.32 156.673 2134.8 158.016 Q2136.3 159.335 2138.87 159.335 Q2142.41 159.335 2144.54 156.835 Q2146.7 154.312 2146.7 150.145 L2146.7 149.196 L2142.46 149.196 M2150.96 147.437 L2150.96 162.229 L2146.7 162.229 L2146.7 158.293 Q2145.24 160.655 2143.06 161.789 Q2140.89 162.9 2137.74 162.9 Q2133.76 162.9 2131.4 160.678 Q2129.06 158.432 2129.06 154.682 Q2129.06 150.307 2131.97 148.085 Q2134.91 145.863 2140.72 145.863 L2146.7 145.863 L2146.7 145.446 Q2146.7 142.507 2144.75 140.909 Q2142.83 139.289 2139.34 139.289 Q2137.11 139.289 2135.01 139.821 Q2132.9 140.354 2130.96 141.419 L2130.96 137.483 Q2133.29 136.581 2135.49 136.141 Q2137.69 135.678 2139.78 135.678 Q2145.4 135.678 2148.18 138.594 Q2150.96 141.511 2150.96 147.437 Z" fill="#000000" fill-rule="evenodd" fill-opacity="1" /><path clip-path="url(#clip740)" d="M2163.94 128.942 L2163.94 136.303 L2172.71 136.303 L2172.71 139.613 L2163.94 139.613 L2163.94 153.687 Q2163.94 156.858 2164.8 157.761 Q2165.68 158.664 2168.34 158.664 L2172.71 158.664 L2172.71 162.229 L2168.34 162.229 Q2163.41 162.229 2161.53 160.4 Q2159.66 158.548 2159.66 153.687 L2159.66 139.613 L2156.53 139.613 L2156.53 136.303 L2159.66 136.303 L2159.66 128.942 L2163.94 128.942 Z" fill="#000000" fill-rule="evenodd" fill-opacity="1" /><path clip-path="url(#clip740)" d="M2200.49 148.201 L2200.49 150.284 L2180.91 150.284 Q2181.19 154.682 2183.55 156.997 Q2185.93 159.289 2190.17 159.289 Q2192.62 159.289 2194.91 158.687 Q2197.23 158.085 2199.5 156.881 L2199.5 160.909 Q2197.21 161.881 2194.8 162.391 Q2192.39 162.9 2189.91 162.9 Q2183.71 162.9 2180.08 159.289 Q2176.46 155.678 2176.46 149.52 Q2176.46 143.155 2179.89 139.428 Q2183.34 135.678 2189.17 135.678 Q2194.4 135.678 2197.44 139.057 Q2200.49 142.414 2200.49 148.201 M2196.23 146.951 Q2196.19 143.456 2194.27 141.372 Q2192.37 139.289 2189.22 139.289 Q2185.65 139.289 2183.5 141.303 Q2181.37 143.317 2181.05 146.974 L2196.23 146.951 Z" fill="#000000" fill-rule="evenodd" fill-opacity="1" /><polyline clip-path="url(#clip740)" style="stroke:#e26f46; stroke-linecap:butt; stroke-linejoin:round; stroke-width:4; stroke-opacity:1; fill:none" stroke-dasharray="2, 4" points="
  1807.45,196.789 1951.45,196.789 
  "/>
<path clip-path="url(#clip740)" d="M2001 209.138 L2001 199.856 L1993.36 199.856 L1993.36 196.013 L2005.63 196.013 L2005.63 210.851 Q2002.92 212.772 1999.66 213.768 Q1996.4 214.74 1992.69 214.74 Q1984.59 214.74 1980.01 210.018 Q1975.45 205.272 1975.45 196.823 Q1975.45 188.351 1980.01 183.629 Q1984.59 178.884 1992.69 178.884 Q1996.07 178.884 1999.1 179.717 Q2002.16 180.55 2004.73 182.171 L2004.73 187.147 Q2002.14 184.948 1999.22 183.837 Q1996.3 182.726 1993.09 182.726 Q1986.74 182.726 1983.55 186.268 Q1980.38 189.809 1980.38 196.823 Q1980.38 203.814 1983.55 207.356 Q1986.74 210.897 1993.09 210.897 Q1995.56 210.897 1997.51 210.481 Q1999.45 210.041 2001 209.138 Z" fill="#000000" fill-rule="evenodd" fill-opacity="1" /><path clip-path="url(#clip740)" d="M2024.03 191.129 Q2020.61 191.129 2018.62 193.814 Q2016.63 196.476 2016.63 201.129 Q2016.63 205.782 2018.6 208.467 Q2020.59 211.129 2024.03 211.129 Q2027.44 211.129 2029.43 208.444 Q2031.42 205.758 2031.42 201.129 Q2031.42 196.522 2029.43 193.837 Q2027.44 191.129 2024.03 191.129 M2024.03 187.518 Q2029.59 187.518 2032.76 191.129 Q2035.93 194.74 2035.93 201.129 Q2035.93 207.495 2032.76 211.129 Q2029.59 214.74 2024.03 214.74 Q2018.46 214.74 2015.28 211.129 Q2012.14 207.495 2012.14 201.129 Q2012.14 194.74 2015.28 191.129 Q2018.46 187.518 2024.03 187.518 Z" fill="#000000" fill-rule="evenodd" fill-opacity="1" /><path clip-path="url(#clip740)" d="M2053.04 191.129 Q2049.61 191.129 2047.62 193.814 Q2045.63 196.476 2045.63 201.129 Q2045.63 205.782 2047.6 208.467 Q2049.59 211.129 2053.04 211.129 Q2056.44 211.129 2058.43 208.444 Q2060.42 205.758 2060.42 201.129 Q2060.42 196.522 2058.43 193.837 Q2056.44 191.129 2053.04 191.129 M2053.04 187.518 Q2058.59 187.518 2061.77 191.129 Q2064.94 194.74 2064.94 201.129 Q2064.94 207.495 2061.77 211.129 Q2058.59 214.74 2053.04 214.74 Q2047.46 214.74 2044.29 211.129 Q2041.14 207.495 2041.14 201.129 Q2041.14 194.74 2044.29 191.129 Q2047.46 187.518 2053.04 187.518 Z" fill="#000000" fill-rule="evenodd" fill-opacity="1" /><path clip-path="url(#clip740)" d="M2089.06 192.078 L2089.06 178.05 L2093.32 178.05 L2093.32 214.069 L2089.06 214.069 L2089.06 210.18 Q2087.72 212.495 2085.65 213.629 Q2083.62 214.74 2080.75 214.74 Q2076.05 214.74 2073.09 210.99 Q2070.15 207.24 2070.15 201.129 Q2070.15 195.018 2073.09 191.268 Q2076.05 187.518 2080.75 187.518 Q2083.62 187.518 2085.65 188.652 Q2087.72 189.763 2089.06 192.078 M2074.54 201.129 Q2074.54 205.828 2076.47 208.513 Q2078.41 211.175 2081.79 211.175 Q2085.17 211.175 2087.11 208.513 Q2089.06 205.828 2089.06 201.129 Q2089.06 196.43 2087.11 193.768 Q2085.17 191.083 2081.79 191.083 Q2078.41 191.083 2076.47 193.768 Q2074.54 196.43 2074.54 201.129 Z" fill="#000000" fill-rule="evenodd" fill-opacity="1" /><path clip-path="url(#clip740)" d="M2138.06 180.643 L2138.06 185.203 Q2135.4 183.93 2133.04 183.305 Q2130.68 182.68 2128.48 182.68 Q2124.66 182.68 2122.58 184.161 Q2120.52 185.643 2120.52 188.374 Q2120.52 190.666 2121.88 191.847 Q2123.27 193.004 2127.11 193.722 L2129.94 194.3 Q2135.17 195.296 2137.65 197.819 Q2140.15 200.319 2140.15 204.532 Q2140.15 209.555 2136.77 212.147 Q2133.41 214.74 2126.9 214.74 Q2124.45 214.74 2121.67 214.184 Q2118.92 213.629 2115.96 212.541 L2115.96 207.726 Q2118.8 209.323 2121.53 210.133 Q2124.27 210.944 2126.9 210.944 Q2130.91 210.944 2133.09 209.37 Q2135.26 207.796 2135.26 204.879 Q2135.26 202.333 2133.69 200.897 Q2132.14 199.462 2128.57 198.745 L2125.72 198.189 Q2120.49 197.147 2118.15 194.925 Q2115.82 192.703 2115.82 188.745 Q2115.82 184.161 2119.03 181.522 Q2122.28 178.884 2127.95 178.884 Q2130.38 178.884 2132.9 179.323 Q2135.42 179.763 2138.06 180.643 Z" fill="#000000" fill-rule="evenodd" fill-opacity="1" /><path clip-path="url(#clip740)" d="M2151.46 180.782 L2151.46 188.143 L2160.24 188.143 L2160.24 191.453 L2151.46 191.453 L2151.46 205.527 Q2151.46 208.698 2152.32 209.601 Q2153.2 210.504 2155.86 210.504 L2160.24 210.504 L2160.24 214.069 L2155.86 214.069 Q2150.93 214.069 2149.06 212.24 Q2147.18 210.388 2147.18 205.527 L2147.18 191.453 L2144.06 191.453 L2144.06 188.143 L2147.18 188.143 L2147.18 180.782 L2151.46 180.782 Z" fill="#000000" fill-rule="evenodd" fill-opacity="1" /><path clip-path="url(#clip740)" d="M2177.62 201.036 Q2172.46 201.036 2170.47 202.217 Q2168.48 203.397 2168.48 206.245 Q2168.48 208.513 2169.96 209.856 Q2171.46 211.175 2174.03 211.175 Q2177.58 211.175 2179.71 208.675 Q2181.86 206.152 2181.86 201.985 L2181.86 201.036 L2177.62 201.036 M2186.12 199.277 L2186.12 214.069 L2181.86 214.069 L2181.86 210.133 Q2180.4 212.495 2178.22 213.629 Q2176.05 214.74 2172.9 214.74 Q2168.92 214.74 2166.56 212.518 Q2164.22 210.272 2164.22 206.522 Q2164.22 202.147 2167.14 199.925 Q2170.08 197.703 2175.89 197.703 L2181.86 197.703 L2181.86 197.286 Q2181.86 194.347 2179.91 192.749 Q2177.99 191.129 2174.5 191.129 Q2172.27 191.129 2170.17 191.661 Q2168.06 192.194 2166.12 193.259 L2166.12 189.323 Q2168.46 188.421 2170.65 187.981 Q2172.85 187.518 2174.94 187.518 Q2180.56 187.518 2183.34 190.434 Q2186.12 193.351 2186.12 199.277 Z" fill="#000000" fill-rule="evenodd" fill-opacity="1" /><path clip-path="url(#clip740)" d="M2199.1 180.782 L2199.1 188.143 L2207.88 188.143 L2207.88 191.453 L2199.1 191.453 L2199.1 205.527 Q2199.1 208.698 2199.96 209.601 Q2200.84 210.504 2203.5 210.504 L2207.88 210.504 L2207.88 214.069 L2203.5 214.069 Q2198.57 214.069 2196.7 212.24 Q2194.82 210.388 2194.82 205.527 L2194.82 191.453 L2191.7 191.453 L2191.7 188.143 L2194.82 188.143 L2194.82 180.782 L2199.1 180.782 Z" fill="#000000" fill-rule="evenodd" fill-opacity="1" /><path clip-path="url(#clip740)" d="M2235.65 200.041 L2235.65 202.124 L2216.07 202.124 Q2216.35 206.522 2218.71 208.837 Q2221.09 211.129 2225.33 211.129 Q2227.78 211.129 2230.08 210.527 Q2232.39 209.925 2234.66 208.721 L2234.66 212.749 Q2232.37 213.721 2229.96 214.231 Q2227.55 214.74 2225.08 214.74 Q2218.87 214.74 2215.24 211.129 Q2211.63 207.518 2211.63 201.36 Q2211.63 194.995 2215.05 191.268 Q2218.5 187.518 2224.33 187.518 Q2229.57 187.518 2232.6 190.897 Q2235.65 194.254 2235.65 200.041 M2231.39 198.791 Q2231.35 195.296 2229.43 193.212 Q2227.53 191.129 2224.38 191.129 Q2220.82 191.129 2218.66 193.143 Q2216.53 195.157 2216.21 198.814 L2231.39 198.791 Z" fill="#000000" fill-rule="evenodd" fill-opacity="1" /></svg>
